<?xml version="1.0" encoding="utf-8"?>
<!-- Generator: Adobe Illustrator 24.2.3, SVG Export Plug-In . SVG Version: 6.00 Build 0)  -->
<svg version="1.1" id="Layer_1" xmlns="http://www.w3.org/2000/svg" xmlns:xlink="http://www.w3.org/1999/xlink" x="0px" y="0px"
	 viewBox="0 0 595.28 57.16" style="enable-background:new 0 0 595.28 57.16;" xml:space="preserve">
<style type="text/css">
	.st0{fill:#FFFFFF;}
	.st1{fill:none;stroke:#000000;stroke-width:0.67;stroke-linecap:square;stroke-miterlimit:10;}
	.st2{fill:none;stroke:#000000;stroke-width:0;stroke-miterlimit:10;}
	.st3{fill-rule:evenodd;clip-rule:evenodd;fill:#FFFFFF;}
	.st4{fill:none;stroke:#000000;stroke-width:0.67;stroke-miterlimit:10;}
	.st5{fill:#E6E7E7;}
	.st6{fill-rule:evenodd;clip-rule:evenodd;fill:#373435;}
	.st7{fill:#065CA8;}
	.st8{fill:#E73A3A;}
	.st9{fill:#E8282B;}
	.st10{fill:#2B2A29;}
	.st11{font-family:'OpenSans';}
	.st12{font-size:13.629px;}
	.st13{fill-rule:evenodd;clip-rule:evenodd;fill:#E8282B;}
	.st14{fill-rule:evenodd;clip-rule:evenodd;fill:#F5F5F5;}
	.st15{fill:#D3D3D4;}
	.st16{clip-path:url(#SVGID_19_);fill:url(#SVGID_20_);}
	.st17{clip-path:url(#SVGID_21_);fill:url(#SVGID_22_);}
	.st18{fill-rule:evenodd;clip-rule:evenodd;fill:#D5292D;}
	.st19{fill:none;stroke:#D9DADA;stroke-width:1.0001;stroke-miterlimit:2.613;}
	.st20{fill-rule:evenodd;clip-rule:evenodd;fill:#727271;}
	.st21{fill-rule:evenodd;clip-rule:evenodd;fill:#FEFEFE;}
	.st22{clip-path:url(#SVGID_24_);fill:url(#SVGID_25_);}
	.st23{fill:#727271;}
	.st24{clip-path:url(#SVGID_27_);fill:url(#SVGID_28_);}
	.st25{fill:#FEFEFE;}
	.st26{fill:#D5292D;}
	.st27{fill:#0D78B6;}
	.st28{fill:none;stroke:#0D78B6;stroke-width:0.5669;stroke-miterlimit:22.9256;}
	.st29{fill:#0077B6;}
	.st30{fill-rule:evenodd;clip-rule:evenodd;fill:#0C54A0;}
	.st31{fill-rule:evenodd;clip-rule:evenodd;fill:#007FC4;}
	.st32{fill:none;stroke:#D9DADA;stroke-width:0.5;stroke-miterlimit:2.613;}
</style>
<g>
	<rect class="st5" width="595.28" height="57.16"/>
	<g>
		<rect x="523.07" y="12.33" class="st6" width="27.78" height="27.71"/>
		<rect x="523.89" y="13.14" class="st3" width="26.16" height="26.09"/>
		<rect x="524.82" y="14.07" class="st6" width="24.29" height="24.23"/>
		<rect x="526.99" y="18.4" class="st3" width="4.78" height="1.56"/>
		<rect x="528.3" y="19.61" class="st3" width="2.16" height="3.74"/>
		<polygon class="st3" points="533.21,18.41 535.33,18.41 537.26,23.35 535.12,23.35 		"/>
		<polygon class="st3" points="535.27,18.41 533.15,18.41 531.21,23.35 533.36,23.35 		"/>
		<rect x="536.72" y="18.4" class="st3" width="4.78" height="1.56"/>
		<rect x="538.04" y="19.61" class="st3" width="2.16" height="3.74"/>
		<polygon class="st3" points="542.94,18.41 545.06,18.41 547,23.35 544.86,23.35 		"/>
		<polygon class="st3" points="545.01,18.41 542.89,18.41 540.95,23.35 543.1,23.35 		"/>
		<path class="st3" d="M526.99,33.92v-2.18V33.92z M526.99,31.74h0.46v2.18h-0.46V31.74z M528.3,33.92v-2.18h0.47l0.94,1.27
			c0.03,0.04,0.06,0.09,0.09,0.15c0.03,0.07,0.07,0.14,0.1,0.23c-0.01-0.06-0.02-0.13-0.02-0.19c0-0.06-0.01-0.14-0.01-0.24v-1.22
			h0.43v2.18h-0.45l-0.97-1.29c-0.03-0.04-0.06-0.09-0.09-0.15c-0.03-0.07-0.07-0.14-0.1-0.23c0.01,0.06,0.02,0.13,0.02,0.19
			c0,0.06,0.01,0.14,0.01,0.24v1.24H528.3z M531.03,33.64l0.25-0.29c0.03,0.08,0.08,0.14,0.15,0.19c0.07,0.05,0.15,0.07,0.24,0.07
			c0.11,0,0.19-0.03,0.25-0.08c0.06-0.05,0.09-0.12,0.09-0.21c0-0.1-0.1-0.21-0.31-0.31c-0.07-0.03-0.12-0.06-0.16-0.08
			c-0.19-0.1-0.32-0.2-0.39-0.29c-0.07-0.1-0.11-0.21-0.11-0.34c0-0.18,0.07-0.33,0.21-0.44c0.14-0.12,0.32-0.17,0.54-0.17
			c0.13,0,0.24,0.02,0.34,0.07c0.09,0.05,0.18,0.12,0.25,0.22l-0.27,0.26c-0.03-0.06-0.07-0.11-0.13-0.14
			c-0.05-0.03-0.12-0.05-0.19-0.05c-0.09,0-0.16,0.02-0.22,0.07c-0.06,0.05-0.08,0.11-0.08,0.18c0,0.12,0.11,0.22,0.33,0.31
			c0.04,0.02,0.08,0.03,0.1,0.05c0.18,0.08,0.31,0.18,0.4,0.29c0.09,0.11,0.13,0.23,0.13,0.36c0,0.2-0.07,0.37-0.2,0.49
			c-0.14,0.12-0.32,0.18-0.55,0.18c-0.16,0-0.3-0.03-0.42-0.09C531.17,33.84,531.08,33.75,531.03,33.64z M535.04,31.74v1.35
			c0,0.3-0.08,0.52-0.23,0.66c-0.15,0.15-0.38,0.22-0.69,0.22c-0.31,0-0.54-0.07-0.7-0.22c-0.15-0.15-0.23-0.37-0.23-0.66v-1.35
			h0.45v1.28c0,0.18,0.04,0.31,0.11,0.41c0.08,0.09,0.2,0.14,0.35,0.14c0.15,0,0.27-0.05,0.35-0.14c0.08-0.09,0.12-0.23,0.12-0.4
			v-1.28H535.04z M537.42,33.92h-0.52l-0.56-1.02v1.02h-0.46v-2.18h0.65c0.26,0,0.45,0.05,0.58,0.15c0.13,0.1,0.19,0.26,0.19,0.46
			c0,0.15-0.04,0.28-0.13,0.38c-0.09,0.11-0.2,0.17-0.34,0.19L537.42,33.92z M536.34,32.67h0.07c0.18,0,0.31-0.02,0.37-0.06
			c0.06-0.04,0.09-0.11,0.09-0.21c0-0.11-0.03-0.18-0.1-0.23c-0.06-0.04-0.18-0.07-0.36-0.07h-0.07V32.67z M539.17,33.09l-0.24-0.7
			c-0.01-0.02-0.01-0.06-0.03-0.11c-0.01-0.05-0.02-0.11-0.03-0.19c-0.01,0.07-0.02,0.13-0.04,0.19c-0.01,0.05-0.02,0.09-0.03,0.11
			l-0.23,0.69H539.17z M537.81,33.92l0.81-2.18h0.52l0.82,2.18h-0.52l-0.17-0.46h-0.83l-0.15,0.46H537.81z M540.56,33.92v-2.18h0.47
			l0.95,1.27c0.03,0.04,0.06,0.09,0.09,0.15c0.03,0.07,0.07,0.14,0.1,0.23c-0.01-0.06-0.02-0.13-0.02-0.19
			c0-0.06-0.01-0.14-0.01-0.24v-1.22h0.44v2.18h-0.45l-0.97-1.29c-0.03-0.04-0.06-0.09-0.09-0.15c-0.03-0.07-0.07-0.14-0.1-0.23
			c0.01,0.06,0.02,0.13,0.02,0.19c0,0.06,0.01,0.14,0.01,0.24v1.24H540.56z M545.14,32.31c-0.09-0.08-0.19-0.15-0.28-0.19
			c-0.1-0.04-0.2-0.06-0.31-0.06c-0.23,0-0.41,0.07-0.54,0.21c-0.13,0.14-0.2,0.33-0.2,0.56c0,0.23,0.06,0.41,0.19,0.54
			c0.13,0.13,0.3,0.2,0.51,0.2c0.12,0,0.24-0.02,0.34-0.06c0.11-0.04,0.2-0.11,0.29-0.19l0,0.48c-0.1,0.06-0.2,0.1-0.31,0.13
			c-0.11,0.03-0.22,0.04-0.34,0.04c-0.34,0-0.62-0.11-0.84-0.32c-0.22-0.22-0.33-0.49-0.33-0.82c0-0.33,0.11-0.6,0.33-0.82
			c0.22-0.21,0.5-0.32,0.84-0.32c0.12,0,0.23,0.01,0.34,0.04c0.11,0.02,0.21,0.06,0.32,0.11L545.14,32.31z M545.93,33.92v-2.18h1.25
			v0.39h-0.8v0.45h0.8v0.4h-0.8v0.55h0.8v0.4H545.93z"/>
		<path class="st3" d="M529.96,30.21c0.16-0.04,0.31-0.22,0.46-0.52c0.09-0.2,0.19-0.42,0.29-0.67l1.81-4.59h0.21l2.07,5.12
			c0.1,0.24,0.18,0.41,0.24,0.5c0.09,0.13,0.25,0.2,0.48,0.21v0.22h-2.13v-0.22c0.36,0.01,0.54-0.09,0.53-0.28
			c0-0.13-0.05-0.32-0.14-0.55l-0.39-0.95h-2.02l-0.26,0.66l-0.16,0.44c-0.05,0.13-0.07,0.24-0.07,0.33
			c-0.01,0.22,0.17,0.33,0.55,0.35v0.22h-1.67v-0.22L529.96,30.21z M531.52,28.08L531.52,28.08l1.73,0v0l-0.85-2.22L531.52,28.08z
			 M535.87,30.25c0.39-0.01,0.62-0.11,0.67-0.28c0.05-0.17,0.08-0.43,0.08-0.79v-3.44c0-0.39-0.03-0.64-0.09-0.75
			c-0.09-0.15-0.31-0.23-0.66-0.24v-0.22h2.38v0.22c-0.33,0.01-0.55,0.1-0.66,0.25c-0.06,0.09-0.09,0.34-0.09,0.74v3.44
			c0,0.41,0.02,0.67,0.07,0.8c0.07,0.18,0.3,0.27,0.67,0.27v0.22h-2.38V30.25z M542.16,27.31h2.18v0.22c-0.33,0-0.51,0.15-0.54,0.44
			c-0.01,0.11-0.02,0.22-0.02,0.34V30l-0.48,0.23c-0.52,0.23-1.05,0.35-1.61,0.35c-0.92,0-1.66-0.31-2.22-0.93
			c-0.49-0.53-0.74-1.23-0.74-2.11c0-0.67,0.14-1.24,0.41-1.72c0.31-0.55,0.73-0.94,1.26-1.17c0.33-0.14,0.68-0.22,1.07-0.22
			c0.31,0,0.63,0.04,0.96,0.13l0.32,0.09c0.14,0.04,0.25,0.07,0.32,0.07c0.07,0,0.14-0.03,0.2-0.11l0.15-0.17h0.21l0.09,1.9h-0.21
			l-0.1-0.3c-0.14-0.37-0.38-0.66-0.71-0.87c-0.32-0.2-0.67-0.3-1.05-0.3c-0.62,0-1.12,0.29-1.49,0.87
			c-0.28,0.45-0.43,1.04-0.43,1.79c0,0.48,0.07,0.92,0.22,1.33c0.09,0.27,0.23,0.5,0.43,0.71c0.36,0.39,0.84,0.59,1.44,0.59
			c0.36,0,0.73-0.12,1.1-0.34V28.3c0-0.3-0.06-0.49-0.17-0.59c-0.09-0.08-0.28-0.14-0.58-0.17V27.31z"/>
		<path class="st6" d="M519.54,41.98h0.69l0.09,1.89h0.03l0.3-1.89h0.83l0.32,1.89h0.03l0.14-1.89h0.61l-0.43,2.8h-0.73l-0.38-2.19
			h-0.03l-0.35,2.19h-0.75L519.54,41.98z M523.18,41.98h0.71v2.8h-0.71V41.98z M524.41,41.98h1.78v0.43h-0.53v2.37h-0.73v-2.37
			h-0.53V41.98z M526.7,41.98h0.71v1.11h0.48v-1.11h0.71v2.8h-0.71v-1.26h-0.48v1.26h-0.71V41.98z M530.73,41.98h0.72l0.3,1.18h0.03
			l0.29-1.18h0.63l-0.64,1.67v1.13h-0.7v-1.13L530.73,41.98z M535.05,42.93v0.9c0,0.38-0.07,0.64-0.21,0.78
			c-0.14,0.14-0.39,0.21-0.75,0.21c-0.36,0-0.61-0.07-0.75-0.21c-0.14-0.14-0.21-0.4-0.21-0.79v-0.9c0-0.38,0.07-0.64,0.21-0.78
			c0.14-0.14,0.39-0.21,0.75-0.21c0.36,0,0.61,0.07,0.75,0.21C534.98,42.29,535.05,42.55,535.05,42.93z M534.34,42.8
			c0-0.18-0.02-0.3-0.05-0.35c-0.04-0.05-0.1-0.08-0.2-0.08c-0.09,0-0.16,0.03-0.2,0.08c-0.04,0.06-0.06,0.17-0.06,0.35v1.16
			c0,0.18,0.02,0.3,0.05,0.35c0.04,0.05,0.1,0.08,0.2,0.08c0.09,0,0.16-0.03,0.2-0.08c0.04-0.05,0.06-0.17,0.06-0.35V42.8z
			 M535.72,41.98h0.71v1.98c0,0.18,0.02,0.3,0.05,0.35c0.03,0.05,0.1,0.08,0.18,0.08s0.15-0.03,0.18-0.08
			c0.03-0.05,0.05-0.17,0.05-0.35v-1.98h0.71v1.85c0,0.38-0.07,0.64-0.21,0.78c-0.14,0.14-0.38,0.21-0.74,0.21
			c-0.35,0-0.6-0.07-0.73-0.21c-0.14-0.14-0.21-0.4-0.21-0.79V41.98z M540.85,42.46l-0.23,1.3h0.44l-0.19-1.3H540.85z M540.42,41.98
			h0.91l0.57,2.8h-0.69l-0.09-0.59h-0.59l-0.12,0.59h-0.63L540.42,41.98z M542.38,41.98h0.71v2.37h0.81v0.43h-1.52V41.98z
			 M544.03,41.98h0.69l0.09,1.89h0.03l0.3-1.89h0.83l0.32,1.89h0.03l0.14-1.89h0.62l-0.43,2.8h-0.74l-0.38-2.19h-0.03l-0.35,2.19
			h-0.75L544.03,41.98z M548.43,42.46l-0.23,1.3h0.44l-0.18-1.3H548.43z M548,41.98h0.91l0.57,2.8h-0.68l-0.09-0.59h-0.59
			l-0.12,0.59h-0.63L548,41.98z M549.64,41.98h0.71l0.3,1.18h0.04l0.28-1.18h0.63l-0.64,1.67v1.13h-0.71v-1.13L549.64,41.98z
			 M553.78,42.6v0.21h-0.69v-0.25c0-0.07-0.01-0.13-0.04-0.16c-0.03-0.03-0.07-0.05-0.14-0.05c-0.06,0-0.11,0.01-0.13,0.04
			c-0.03,0.03-0.04,0.08-0.04,0.16v0.18c0,0.07,0.02,0.13,0.06,0.19c0.04,0.05,0.13,0.12,0.24,0.19l0.29,0.18
			c0.02,0.01,0.04,0.02,0.07,0.04c0.14,0.08,0.24,0.16,0.29,0.23c0.04,0.05,0.07,0.11,0.08,0.17c0.02,0.06,0.02,0.14,0.02,0.23v0.17
			c0,0.22-0.08,0.38-0.24,0.5c-0.16,0.12-0.4,0.18-0.7,0.18c-0.31,0-0.53-0.05-0.67-0.16c-0.14-0.11-0.2-0.29-0.2-0.54v-0.21h0.71
			v0.24c0,0.09,0.01,0.15,0.05,0.18c0.03,0.04,0.08,0.05,0.16,0.05c0.07,0,0.13-0.02,0.16-0.05c0.03-0.03,0.04-0.1,0.04-0.19v-0.11
			c0-0.08-0.02-0.15-0.06-0.2c-0.04-0.06-0.14-0.13-0.3-0.23l-0.29-0.18c-0.14-0.08-0.24-0.18-0.3-0.27
			c-0.06-0.1-0.09-0.21-0.09-0.35v-0.25c0-0.19,0.08-0.34,0.25-0.46c0.17-0.12,0.39-0.17,0.67-0.17c0.26,0,0.46,0.06,0.6,0.17
			C553.71,42.22,553.78,42.38,553.78,42.6z"/>
	</g>
	<g>
		<text transform="matrix(1 0 0 1.0272 248.6209 32.6826)" class="st10 st11 st12">Rene</text>
		<text transform="matrix(1 0 0 1.0272 280.4315 32.6826)" class="st10 st11 st12">wal Notice</text>
	</g>
	<rect x="37.68" y="1.43" class="st7" width="141.3" height="54.3"/>
	<g>
		<path class="st0" d="M67.86,35.76l-4.22-12.15h-0.08c0.11,1.8,0.17,3.49,0.17,5.07v7.07h-2.16V21.22h3.35l4.04,11.57h0.06
			l4.16-11.57h3.36v14.54h-2.29v-7.19c0-0.72,0.02-1.66,0.05-2.83c0.04-1.16,0.07-1.86,0.09-2.11h-0.08l-4.37,12.13H67.86z"/>
		<path class="st0" d="M84.91,26.33c-0.74,0-1.34,0.24-1.79,0.71c-0.45,0.47-0.72,1.16-0.8,2.06h4.99c-0.01-0.91-0.23-1.6-0.66-2.06
			C86.24,26.57,85.65,26.33,84.91,26.33 M85.34,35.96c-1.71,0-3.05-0.5-4.01-1.5c-0.97-1-1.45-2.37-1.45-4.12
			c0-1.8,0.45-3.21,1.34-4.24c0.89-1.03,2.12-1.54,3.69-1.54c1.45,0,2.6,0.44,3.44,1.32c0.84,0.88,1.26,2.09,1.26,3.64v1.26h-7.33
			c0.03,1.07,0.32,1.89,0.86,2.46c0.54,0.57,1.31,0.86,2.3,0.86c0.65,0,1.25-0.06,1.82-0.18c0.56-0.12,1.16-0.33,1.81-0.61v1.9
			c-0.57,0.27-1.15,0.46-1.73,0.58C86.75,35.91,86.09,35.96,85.34,35.96"/>
		<path class="st0" d="M97.02,34.07c0.96,0,1.66-0.27,2.1-0.81c0.44-0.54,0.66-1.42,0.68-2.63V30.3c0-1.39-0.23-2.37-0.68-2.95
			c-0.45-0.58-1.16-0.88-2.12-0.88c-0.82,0-1.46,0.33-1.9,1c-0.44,0.67-0.67,1.61-0.67,2.85c0,1.22,0.21,2.15,0.65,2.79
			C95.51,33.75,96.15,34.07,97.02,34.07 M96.39,35.96c-1.37,0-2.44-0.5-3.21-1.49c-0.77-0.99-1.15-2.39-1.15-4.19
			c0-1.8,0.39-3.21,1.17-4.21c0.78-1.01,1.86-1.51,3.24-1.51c1.45,0,2.55,0.53,3.3,1.6h0.12c-0.11-0.79-0.17-1.41-0.17-1.87v-4.01
			h2.35v15.48h-1.83l-0.41-1.44h-0.11C98.93,35.42,97.84,35.96,96.39,35.96"/>
		<rect x="105.78" y="24.76" class="st0" width="2.34" height="11"/>
		<path class="st0" d="M127.93,34.17c0.85,0,1.53-0.24,2.04-0.71c0.51-0.47,0.77-1.14,0.77-1.99v-0.96l-1.41,0.06
			c-1.1,0.04-1.9,0.22-2.4,0.55c-0.5,0.33-0.75,0.83-0.75,1.51c0,0.49,0.15,0.87,0.44,1.14C126.91,34.04,127.35,34.17,127.93,34.17
			 M131.41,35.76l-0.47-1.53h-0.08c-0.53,0.67-1.06,1.13-1.6,1.37c-0.54,0.24-1.23,0.36-2.07,0.36c-1.08,0-1.93-0.29-2.53-0.88
			c-0.61-0.58-0.91-1.41-0.91-2.48c0-1.14,0.42-1.99,1.26-2.57c0.84-0.58,2.12-0.89,3.85-0.94l1.9-0.06v-0.59
			c0-0.7-0.16-1.23-0.49-1.58c-0.33-0.35-0.84-0.52-1.53-0.52c-0.56,0-1.1,0.08-1.62,0.25c-0.52,0.16-1.01,0.36-1.49,0.59
			l-0.76-1.67c0.6-0.31,1.25-0.55,1.96-0.71c0.71-0.16,1.38-0.24,2.01-0.24c1.4,0,2.46,0.3,3.17,0.92c0.71,0.61,1.07,1.57,1.07,2.87
			v7.41H131.41z"/>
		<path class="st0" d="M142.34,24.56c0.47,0,0.86,0.03,1.16,0.1l-0.23,2.18c-0.33-0.08-0.68-0.12-1.03-0.12
			c-0.94,0-1.69,0.31-2.27,0.91c-0.58,0.61-0.87,1.4-0.87,2.38v5.75h-2.34v-11h1.83l0.31,1.94h0.12c0.37-0.66,0.84-1.18,1.43-1.56
			C141.03,24.75,141.66,24.56,142.34,24.56"/>
		<path class="st0" d="M150.32,26.33c-0.74,0-1.34,0.24-1.79,0.71c-0.45,0.47-0.72,1.16-0.8,2.06h4.99
			c-0.01-0.91-0.23-1.6-0.66-2.06C151.65,26.57,151.07,26.33,150.32,26.33 M150.75,35.96c-1.71,0-3.05-0.5-4.01-1.5
			c-0.97-1-1.45-2.37-1.45-4.12c0-1.8,0.45-3.21,1.34-4.24c0.89-1.03,2.12-1.54,3.69-1.54c1.45,0,2.6,0.44,3.44,1.32
			c0.84,0.88,1.26,2.09,1.26,3.64v1.26h-7.33c0.03,1.07,0.32,1.89,0.87,2.46c0.54,0.57,1.31,0.86,2.3,0.86
			c0.65,0,1.26-0.06,1.81-0.18c0.56-0.12,1.16-0.33,1.81-0.61v1.9c-0.57,0.27-1.15,0.46-1.73,0.58
			C152.17,35.91,151.5,35.96,150.75,35.96"/>
		<path class="st9" d="M111.14,12.41h-1.81V10.6c0-1.35-1.02-2.48-2.32-2.55c-0.69-0.04-1.35,0.2-1.85,0.67
			c-0.48,0.45-0.75,1.08-0.77,1.73c-0.25,0.14-0.43,0.4-0.43,0.7c0,0.45,0.36,0.81,0.81,0.81c0.45,0,0.81-0.36,0.81-0.81
			c0-0.28-0.15-0.51-0.36-0.66c0.01-0.45,0.19-0.86,0.51-1.17c0.33-0.31,0.77-0.47,1.22-0.44c0.86,0.05,1.53,0.8,1.53,1.71v2.23
			l0.02,0.42h2.63c0.91,0,1.66,0.67,1.71,1.53c0.03,0.46-0.13,0.89-0.44,1.22c-0.31,0.33-0.73,0.51-1.19,0.51h-2.04l-4.21-3.98
			l-0.01-0.01c-0.15-0.15-0.16-0.16-2.46-0.12l-0.21,0l0,0.02c-1.22,0.13-2.2,1.09-2.27,2.3c-0.04,0.69,0.2,1.35,0.67,1.85
			c0.47,0.5,1.13,0.78,1.8,0.78h1.89v1.8c0,1.35,1.02,2.48,2.33,2.55c0.05,0,0.1,0,0.15,0c0.63,0,1.24-0.24,1.7-0.67
			c0.47-0.45,0.75-1.07,0.77-1.71c0.22-0.15,0.38-0.38,0.38-0.67c0-0.45-0.37-0.81-0.81-0.81c-0.45,0-0.81,0.37-0.81,0.81
			c0,0.3,0.17,0.55,0.4,0.69c-0.03,0.41-0.2,0.79-0.5,1.08c-0.33,0.31-0.76,0.47-1.22,0.44c-0.86-0.05-1.53-0.8-1.53-1.71l0-2.23
			l-0.02-0.42h-2.71c-0.45,0-0.88-0.18-1.19-0.51c-0.31-0.33-0.47-0.76-0.44-1.22c0.05-0.86,0.8-1.53,1.71-1.53h0.21v0
			c0.69-0.01,1.41-0.01,1.7-0.01l4.22,4.12v0h2.51c0.68,0,1.34-0.28,1.8-0.78c0.47-0.5,0.71-1.16,0.67-1.85
			C113.61,13.43,112.49,12.41,111.14,12.41"/>
		<polygon class="st0" points="63.82,17.37 63.23,17.37 63.23,12.83 61.63,12.83 61.63,12.31 65.42,12.31 65.42,12.83 63.82,12.83 
					"/>
		<path class="st0" d="M69.4,15.23l-0.59-1.57c-0.07-0.2-0.15-0.44-0.24-0.73c-0.05,0.22-0.12,0.46-0.22,0.73l-0.6,1.57H69.4z
			 M70.21,17.37l-0.63-1.61h-2.03l-0.62,1.61h-0.59l2-5.08h0.49l1.99,5.08H70.21z"/>
		<polygon class="st0" points="73.92,17.37 73.34,17.37 73.34,12.83 71.73,12.83 71.73,12.31 75.53,12.31 75.53,12.83 73.92,12.83 
					"/>
		<path class="st0" d="M79.51,15.23l-0.59-1.57c-0.08-0.2-0.16-0.44-0.24-0.73c-0.05,0.22-0.12,0.46-0.22,0.73l-0.6,1.57H79.51z
			 M80.32,17.37l-0.63-1.61h-2.03l-0.62,1.61h-0.6l2-5.08h0.5l1.99,5.08H80.32z"/>
		<path class="st0" d="M86.54,15.23l-0.59-1.57c-0.07-0.2-0.16-0.44-0.24-0.73c-0.05,0.22-0.12,0.46-0.22,0.73l-0.6,1.57H86.54z
			 M87.35,17.37l-0.63-1.61H84.7l-0.62,1.61h-0.59l2-5.08h0.5l1.99,5.08H87.35z"/>
		<rect x="89.51" y="12.31" class="st0" width="0.59" height="5.06"/>
		<path class="st0" d="M94.56,14.72h1.72v2.46c-0.27,0.09-0.54,0.15-0.82,0.19c-0.28,0.04-0.6,0.07-0.96,0.07
			c-0.77,0-1.36-0.23-1.79-0.68c-0.43-0.46-0.64-1.09-0.64-1.92c0-0.53,0.11-0.99,0.32-1.38c0.21-0.4,0.51-0.7,0.91-0.91
			c0.4-0.21,0.86-0.31,1.4-0.31c0.54,0,1.04,0.1,1.51,0.3l-0.23,0.52c-0.46-0.19-0.9-0.29-1.32-0.29c-0.62,0-1.1,0.18-1.44,0.55
			c-0.35,0.37-0.52,0.88-0.52,1.53c0,0.68,0.17,1.2,0.5,1.55c0.33,0.35,0.82,0.53,1.47,0.53c0.35,0,0.69-0.04,1.03-0.12v-1.56h-1.13
			V14.72z"/>
		<path class="st0" d="M117.78,24.09c-1.14,0-2.02,0.43-2.64,1.28c-0.62,0.86-0.94,2.05-0.94,3.57c0,3.18,1.19,4.77,3.58,4.77
			c1,0,2.21-0.25,3.63-0.75v2.54c-1.17,0.49-2.48,0.73-3.92,0.73c-2.07,0-3.66-0.63-4.76-1.89c-1.1-1.26-1.65-3.07-1.65-5.42
			c0-1.48,0.27-2.78,0.81-3.89c0.54-1.11,1.32-1.97,2.32-2.56c1.01-0.6,2.2-0.89,3.55-0.89c1.38,0,2.77,0.34,4.17,1.01l-0.98,2.45
			c-0.53-0.25-1.07-0.47-1.61-0.66C118.83,24.18,118.3,24.09,117.78,24.09"/>
		<path class="st0" d="M118.42,43.81c0,0.74-0.25,1.32-0.76,1.72c-0.51,0.4-1.23,0.6-2.18,0.6h-0.86v2.89h-0.85v-7.35h1.9
			C117.5,41.67,118.42,42.38,118.42,43.81 M114.62,45.4h0.77c0.76,0,1.31-0.12,1.64-0.37c0.34-0.24,0.51-0.64,0.51-1.17
			c0-0.49-0.16-0.85-0.48-1.09c-0.32-0.24-0.81-0.36-1.49-0.36h-0.95V45.4z M120.47,45.96v3.06h-0.85v-7.35h2.01
			c0.9,0,1.57,0.17,2,0.52c0.43,0.35,0.65,0.86,0.65,1.56c0,0.97-0.49,1.63-1.48,1.97l1.99,3.3h-1.01L122,45.96H120.47z
			 M120.47,45.23h1.17c0.6,0,1.04-0.12,1.33-0.36c0.28-0.24,0.42-0.6,0.42-1.08c0-0.49-0.14-0.83-0.43-1.05
			c-0.29-0.21-0.75-0.32-1.38-0.32h-1.11V45.23z M132.02,45.34c0,1.18-0.3,2.1-0.89,2.77c-0.59,0.67-1.42,1.01-2.48,1.01
			c-1.08,0-1.92-0.33-2.5-0.99c-0.59-0.66-0.88-1.59-0.88-2.8c0-1.2,0.3-2.12,0.89-2.78c0.59-0.66,1.43-0.99,2.51-0.99
			c1.06,0,1.88,0.34,2.47,1.01C131.72,43.23,132.02,44.16,132.02,45.34 M126.17,45.33c0,0.99,0.21,1.75,0.63,2.26
			c0.43,0.51,1.04,0.77,1.85,0.77c0.81,0,1.43-0.26,1.85-0.77c0.42-0.51,0.62-1.27,0.62-2.27c0-0.99-0.21-1.74-0.62-2.25
			c-0.41-0.51-1.02-0.77-1.84-0.77c-0.81,0-1.43,0.26-1.86,0.77C126.38,43.61,126.17,44.35,126.17,45.33 M135.27,49.02h-0.85v-6.59
			h-2.33v-0.76h5.5v0.76h-2.32V49.02z M142.46,49.02h-4.09v-7.35h4.09v0.76h-3.24v2.37h3.04v0.75h-3.04v2.71h3.24V49.02z
			 M146.9,42.33c-0.81,0-1.44,0.27-1.91,0.81c-0.47,0.54-0.7,1.27-0.7,2.21c0,0.96,0.22,1.7,0.68,2.23
			c0.45,0.52,1.09,0.79,1.93,0.79c0.51,0,1.1-0.09,1.75-0.28v0.75c-0.51,0.19-1.14,0.29-1.88,0.29c-1.08,0-1.92-0.33-2.5-0.98
			c-0.59-0.66-0.88-1.59-0.88-2.8c0-0.76,0.14-1.42,0.43-1.99c0.28-0.57,0.69-1.01,1.23-1.31c0.53-0.31,1.16-0.46,1.89-0.46
			c0.77,0,1.44,0.14,2.02,0.42l-0.36,0.73C148.01,42.46,147.45,42.33,146.9,42.33 M152.16,49.02h-0.85v-6.59h-2.33v-0.76h5.5v0.76
			h-2.32V49.02z"/>
	</g>
</g>
</svg>
