<?xml version="1.0" encoding="utf-8"?>
<!-- Generator: Adobe Illustrator 24.2.3, SVG Export Plug-In . SVG Version: 6.00 Build 0)  -->
<svg version="1.1" id="Layer_1" xmlns="http://www.w3.org/2000/svg" xmlns:xlink="http://www.w3.org/1999/xlink" x="0px" y="0px"
	 viewBox="0 0 595.28 57.16" style="enable-background:new 0 0 595.28 57.16;" xml:space="preserve">
<style type="text/css">
	.st0{fill:#FFFFFF;}
	.st1{fill:none;stroke:#000000;stroke-width:0.67;stroke-linecap:square;stroke-miterlimit:10;}
	.st2{fill:none;stroke:#000000;stroke-width:0;stroke-miterlimit:10;}
	.st3{fill-rule:evenodd;clip-rule:evenodd;fill:#FFFFFF;}
	.st4{fill:none;stroke:#000000;stroke-width:0.67;stroke-miterlimit:10;}
	.st5{fill:#E6E7E7;}
	.st6{fill-rule:evenodd;clip-rule:evenodd;fill:#373435;}
	.st7{fill:#065CA8;}
	.st8{fill:#E73A3A;}
	.st9{fill:#E8282B;}
	.st10{fill-rule:evenodd;clip-rule:evenodd;fill:#E8282B;}
	.st11{fill:#2B2A29;}
	.st12{font-family:'OpenSans';}
	.st13{font-size:13.629px;}
	.st14{fill-rule:evenodd;clip-rule:evenodd;fill:#F5F5F5;}
	.st15{fill:#D3D3D4;}
	.st16{clip-path:url(#SVGID_19_);fill:url(#SVGID_20_);}
	.st17{clip-path:url(#SVGID_21_);fill:url(#SVGID_22_);}
	.st18{fill-rule:evenodd;clip-rule:evenodd;fill:#D5292D;}
	.st19{fill:none;stroke:#D9DADA;stroke-width:1.0001;stroke-miterlimit:2.613;}
	.st20{fill-rule:evenodd;clip-rule:evenodd;fill:#727271;}
	.st21{fill-rule:evenodd;clip-rule:evenodd;fill:#FEFEFE;}
	.st22{clip-path:url(#SVGID_24_);fill:url(#SVGID_25_);}
	.st23{fill:#727271;}
	.st24{clip-path:url(#SVGID_27_);fill:url(#SVGID_28_);}
	.st25{fill:#FEFEFE;}
	.st26{fill:#D5292D;}
	.st27{fill:#0D78B6;}
	.st28{fill:none;stroke:#0D78B6;stroke-width:0.5669;stroke-miterlimit:22.9256;}
	.st29{fill:#0077B6;}
	.st30{fill-rule:evenodd;clip-rule:evenodd;fill:#0C54A0;}
	.st31{fill-rule:evenodd;clip-rule:evenodd;fill:#007FC4;}
	.st32{fill:none;stroke:#D9DADA;stroke-width:0.5;stroke-miterlimit:2.613;}
</style>
<g>
	<rect class="st5" width="595.28" height="57.16"/>
	<g>
		<rect x="523.07" y="12.33" class="st6" width="27.78" height="27.71"/>
		<rect x="523.89" y="13.14" class="st3" width="26.16" height="26.09"/>
		<rect x="524.82" y="14.07" class="st6" width="24.29" height="24.23"/>
		<rect x="526.99" y="18.4" class="st3" width="4.78" height="1.56"/>
		<rect x="528.3" y="19.61" class="st3" width="2.16" height="3.74"/>
		<polygon class="st3" points="533.21,18.41 535.33,18.41 537.26,23.35 535.12,23.35 		"/>
		<polygon class="st3" points="535.27,18.41 533.15,18.41 531.21,23.35 533.36,23.35 		"/>
		<rect x="536.72" y="18.4" class="st3" width="4.78" height="1.56"/>
		<rect x="538.04" y="19.61" class="st3" width="2.16" height="3.74"/>
		<polygon class="st3" points="542.94,18.41 545.06,18.41 547,23.35 544.86,23.35 		"/>
		<polygon class="st3" points="545.01,18.41 542.89,18.41 540.95,23.35 543.1,23.35 		"/>
		<path class="st3" d="M526.99,33.92v-2.18V33.92z M526.99,31.74h0.46v2.18h-0.46V31.74z M528.3,33.92v-2.18h0.47l0.94,1.27
			c0.03,0.04,0.06,0.09,0.09,0.15c0.03,0.07,0.07,0.14,0.1,0.23c-0.01-0.06-0.02-0.13-0.02-0.19c0-0.06-0.01-0.14-0.01-0.24v-1.22
			h0.43v2.18h-0.45l-0.97-1.29c-0.03-0.04-0.06-0.09-0.09-0.15c-0.03-0.07-0.07-0.14-0.1-0.23c0.01,0.06,0.02,0.13,0.02,0.19
			c0,0.06,0.01,0.14,0.01,0.24v1.24H528.3z M531.03,33.64l0.25-0.29c0.03,0.08,0.08,0.14,0.15,0.19c0.07,0.05,0.15,0.07,0.24,0.07
			c0.11,0,0.19-0.03,0.25-0.08c0.06-0.05,0.09-0.12,0.09-0.21c0-0.1-0.1-0.21-0.31-0.31c-0.07-0.03-0.12-0.06-0.16-0.08
			c-0.19-0.1-0.32-0.2-0.39-0.29c-0.07-0.1-0.11-0.21-0.11-0.34c0-0.18,0.07-0.33,0.21-0.44c0.14-0.12,0.32-0.17,0.54-0.17
			c0.13,0,0.24,0.02,0.34,0.07c0.09,0.05,0.18,0.12,0.25,0.22l-0.27,0.26c-0.03-0.06-0.07-0.11-0.13-0.14
			c-0.05-0.03-0.12-0.05-0.19-0.05c-0.09,0-0.16,0.02-0.22,0.07c-0.06,0.05-0.08,0.11-0.08,0.18c0,0.12,0.11,0.22,0.33,0.31
			c0.04,0.02,0.08,0.03,0.1,0.05c0.18,0.08,0.31,0.18,0.4,0.29c0.09,0.11,0.13,0.23,0.13,0.36c0,0.2-0.07,0.37-0.2,0.49
			c-0.14,0.12-0.32,0.18-0.55,0.18c-0.16,0-0.3-0.03-0.42-0.09C531.17,33.84,531.08,33.75,531.03,33.64z M535.04,31.74v1.35
			c0,0.3-0.08,0.52-0.23,0.66c-0.15,0.15-0.38,0.22-0.69,0.22c-0.31,0-0.54-0.07-0.7-0.22c-0.15-0.15-0.23-0.37-0.23-0.66v-1.35
			h0.45v1.28c0,0.18,0.04,0.31,0.11,0.41c0.08,0.09,0.2,0.14,0.35,0.14c0.15,0,0.27-0.05,0.35-0.14c0.08-0.09,0.12-0.23,0.12-0.4
			v-1.28H535.04z M537.42,33.92h-0.52l-0.56-1.02v1.02h-0.46v-2.18h0.65c0.26,0,0.45,0.05,0.58,0.15c0.13,0.1,0.19,0.26,0.19,0.46
			c0,0.15-0.04,0.28-0.13,0.38c-0.09,0.11-0.2,0.17-0.34,0.19L537.42,33.92z M536.34,32.67h0.07c0.18,0,0.31-0.02,0.37-0.06
			c0.06-0.04,0.09-0.11,0.09-0.21c0-0.11-0.03-0.18-0.1-0.23c-0.06-0.04-0.18-0.07-0.36-0.07h-0.07V32.67z M539.17,33.09l-0.24-0.7
			c-0.01-0.02-0.01-0.06-0.03-0.11c-0.01-0.05-0.02-0.11-0.03-0.19c-0.01,0.07-0.02,0.13-0.04,0.19c-0.01,0.05-0.02,0.09-0.03,0.11
			l-0.23,0.69H539.17z M537.81,33.92l0.81-2.18h0.52l0.82,2.18h-0.52l-0.17-0.46h-0.83l-0.15,0.46H537.81z M540.56,33.92v-2.18h0.47
			l0.95,1.27c0.03,0.04,0.06,0.09,0.09,0.15c0.03,0.07,0.07,0.14,0.1,0.23c-0.01-0.06-0.02-0.13-0.02-0.19
			c0-0.06-0.01-0.14-0.01-0.24v-1.22h0.44v2.18h-0.45l-0.97-1.29c-0.03-0.04-0.06-0.09-0.09-0.15c-0.03-0.07-0.07-0.14-0.1-0.23
			c0.01,0.06,0.02,0.13,0.02,0.19c0,0.06,0.01,0.14,0.01,0.24v1.24H540.56z M545.14,32.31c-0.09-0.08-0.19-0.15-0.28-0.19
			c-0.1-0.04-0.2-0.06-0.31-0.06c-0.23,0-0.41,0.07-0.54,0.21c-0.13,0.14-0.2,0.33-0.2,0.56c0,0.23,0.06,0.41,0.19,0.54
			c0.13,0.13,0.3,0.2,0.51,0.2c0.12,0,0.24-0.02,0.34-0.06c0.11-0.04,0.2-0.11,0.29-0.19l0,0.48c-0.1,0.06-0.2,0.1-0.31,0.13
			c-0.11,0.03-0.22,0.04-0.34,0.04c-0.34,0-0.62-0.11-0.84-0.32c-0.22-0.22-0.33-0.49-0.33-0.82c0-0.33,0.11-0.6,0.33-0.82
			c0.22-0.21,0.5-0.32,0.84-0.32c0.12,0,0.23,0.01,0.34,0.04c0.11,0.02,0.21,0.06,0.32,0.11L545.14,32.31z M545.93,33.92v-2.18h1.25
			v0.39h-0.8v0.45h0.8v0.4h-0.8v0.55h0.8v0.4H545.93z"/>
		<path class="st3" d="M529.96,30.21c0.16-0.04,0.31-0.22,0.46-0.52c0.09-0.2,0.19-0.42,0.29-0.67l1.81-4.59h0.21l2.07,5.12
			c0.1,0.24,0.18,0.41,0.24,0.5c0.09,0.13,0.25,0.2,0.48,0.21v0.22h-2.13v-0.22c0.36,0.01,0.54-0.09,0.53-0.28
			c0-0.13-0.05-0.32-0.14-0.55l-0.39-0.95h-2.02l-0.26,0.66l-0.16,0.44c-0.05,0.13-0.07,0.24-0.07,0.33
			c-0.01,0.22,0.17,0.33,0.55,0.35v0.22h-1.67v-0.22L529.96,30.21z M531.52,28.08L531.52,28.08l1.73,0v0l-0.85-2.22L531.52,28.08z
			 M535.87,30.25c0.39-0.01,0.62-0.11,0.67-0.28c0.05-0.17,0.08-0.43,0.08-0.79v-3.44c0-0.39-0.03-0.64-0.09-0.75
			c-0.09-0.15-0.31-0.23-0.66-0.24v-0.22h2.38v0.22c-0.33,0.01-0.55,0.1-0.66,0.25c-0.06,0.09-0.09,0.34-0.09,0.74v3.44
			c0,0.41,0.02,0.67,0.07,0.8c0.07,0.18,0.3,0.27,0.67,0.27v0.22h-2.38V30.25z M542.16,27.31h2.18v0.22c-0.33,0-0.51,0.15-0.54,0.44
			c-0.01,0.11-0.02,0.22-0.02,0.34V30l-0.48,0.23c-0.52,0.23-1.05,0.35-1.61,0.35c-0.92,0-1.66-0.31-2.22-0.93
			c-0.49-0.53-0.74-1.23-0.74-2.11c0-0.67,0.14-1.24,0.41-1.72c0.31-0.55,0.73-0.94,1.26-1.17c0.33-0.14,0.68-0.22,1.07-0.22
			c0.31,0,0.63,0.04,0.96,0.13l0.32,0.09c0.14,0.04,0.25,0.07,0.32,0.07c0.07,0,0.14-0.03,0.2-0.11l0.15-0.17h0.21l0.09,1.9h-0.21
			l-0.1-0.3c-0.14-0.37-0.38-0.66-0.71-0.87c-0.32-0.2-0.67-0.3-1.05-0.3c-0.62,0-1.12,0.29-1.49,0.87
			c-0.28,0.45-0.43,1.04-0.43,1.79c0,0.48,0.07,0.92,0.22,1.33c0.09,0.27,0.23,0.5,0.43,0.71c0.36,0.39,0.84,0.59,1.44,0.59
			c0.36,0,0.73-0.12,1.1-0.34V28.3c0-0.3-0.06-0.49-0.17-0.59c-0.09-0.08-0.28-0.14-0.58-0.17V27.31z"/>
		<path class="st6" d="M519.54,41.98h0.69l0.09,1.89h0.03l0.3-1.89h0.83l0.32,1.89h0.03l0.14-1.89h0.61l-0.43,2.8h-0.73l-0.38-2.19
			h-0.03l-0.35,2.19h-0.75L519.54,41.98z M523.18,41.98h0.71v2.8h-0.71V41.98z M524.41,41.98h1.78v0.43h-0.53v2.37h-0.73v-2.37
			h-0.53V41.98z M526.7,41.98h0.71v1.11h0.48v-1.11h0.71v2.8h-0.71v-1.26h-0.48v1.26h-0.71V41.98z M530.73,41.98h0.72l0.3,1.18h0.03
			l0.29-1.18h0.63l-0.64,1.67v1.13h-0.7v-1.13L530.73,41.98z M535.05,42.93v0.9c0,0.38-0.07,0.64-0.21,0.78
			c-0.14,0.14-0.39,0.21-0.75,0.21c-0.36,0-0.61-0.07-0.75-0.21c-0.14-0.14-0.21-0.4-0.21-0.79v-0.9c0-0.38,0.07-0.64,0.21-0.78
			c0.14-0.14,0.39-0.21,0.75-0.21c0.36,0,0.61,0.07,0.75,0.21C534.98,42.29,535.05,42.55,535.05,42.93z M534.34,42.8
			c0-0.18-0.02-0.3-0.05-0.35c-0.04-0.05-0.1-0.08-0.2-0.08c-0.09,0-0.16,0.03-0.2,0.08c-0.04,0.06-0.06,0.17-0.06,0.35v1.16
			c0,0.18,0.02,0.3,0.05,0.35c0.04,0.05,0.1,0.08,0.2,0.08c0.09,0,0.16-0.03,0.2-0.08c0.04-0.05,0.06-0.17,0.06-0.35V42.8z
			 M535.72,41.98h0.71v1.98c0,0.18,0.02,0.3,0.05,0.35c0.03,0.05,0.1,0.08,0.18,0.08s0.15-0.03,0.18-0.08
			c0.03-0.05,0.05-0.17,0.05-0.35v-1.98h0.71v1.85c0,0.38-0.07,0.64-0.21,0.78c-0.14,0.14-0.38,0.21-0.74,0.21
			c-0.35,0-0.6-0.07-0.73-0.21c-0.14-0.14-0.21-0.4-0.21-0.79V41.98z M540.85,42.46l-0.23,1.3h0.44l-0.19-1.3H540.85z M540.42,41.98
			h0.91l0.57,2.8h-0.69l-0.09-0.59h-0.59l-0.12,0.59h-0.63L540.42,41.98z M542.38,41.98h0.71v2.37h0.81v0.43h-1.52V41.98z
			 M544.03,41.98h0.69l0.09,1.89h0.03l0.3-1.89h0.83l0.32,1.89h0.03l0.14-1.89h0.62l-0.43,2.8h-0.74l-0.38-2.19h-0.03l-0.35,2.19
			h-0.75L544.03,41.98z M548.43,42.46l-0.23,1.3h0.44l-0.18-1.3H548.43z M548,41.98h0.91l0.57,2.8h-0.68l-0.09-0.59h-0.59
			l-0.12,0.59h-0.63L548,41.98z M549.64,41.98h0.71l0.3,1.18h0.04l0.28-1.18h0.63l-0.64,1.67v1.13h-0.71v-1.13L549.64,41.98z
			 M553.78,42.6v0.21h-0.69v-0.25c0-0.07-0.01-0.13-0.04-0.16c-0.03-0.03-0.07-0.05-0.14-0.05c-0.06,0-0.11,0.01-0.13,0.04
			c-0.03,0.03-0.04,0.08-0.04,0.16v0.18c0,0.07,0.02,0.13,0.06,0.19c0.04,0.05,0.13,0.12,0.24,0.19l0.29,0.18
			c0.02,0.01,0.04,0.02,0.07,0.04c0.14,0.08,0.24,0.16,0.29,0.23c0.04,0.05,0.07,0.11,0.08,0.17c0.02,0.06,0.02,0.14,0.02,0.23v0.17
			c0,0.22-0.08,0.38-0.24,0.5c-0.16,0.12-0.4,0.18-0.7,0.18c-0.31,0-0.53-0.05-0.67-0.16c-0.14-0.11-0.2-0.29-0.2-0.54v-0.21h0.71
			v0.24c0,0.09,0.01,0.15,0.05,0.18c0.03,0.04,0.08,0.05,0.16,0.05c0.07,0,0.13-0.02,0.16-0.05c0.03-0.03,0.04-0.1,0.04-0.19v-0.11
			c0-0.08-0.02-0.15-0.06-0.2c-0.04-0.06-0.14-0.13-0.3-0.23l-0.29-0.18c-0.14-0.08-0.24-0.18-0.3-0.27
			c-0.06-0.1-0.09-0.21-0.09-0.35v-0.25c0-0.19,0.08-0.34,0.25-0.46c0.17-0.12,0.39-0.17,0.67-0.17c0.26,0,0.46,0.06,0.6,0.17
			C553.71,42.22,553.78,42.38,553.78,42.6z"/>
	</g>
	<g>
		<text transform="matrix(1 0 0 1.0272 248.6209 32.6826)" class="st11 st12 st13">Rene</text>
		<text transform="matrix(1 0 0 1.0272 280.4315 32.6826)" class="st11 st12 st13">wal Notice</text>
	</g>
	<rect x="37.68" y="1.43" class="st7" width="141.3" height="54.3"/>
	<g>
		<path class="st8" d="M111.6,16.87h-2.21v-2.21c0-1.66-1.25-3.03-2.84-3.12c-0.84-0.05-1.65,0.24-2.26,0.82
			c-0.58,0.55-0.92,1.32-0.94,2.12c-0.31,0.17-0.53,0.49-0.53,0.86c0,0.55,0.45,1,1,1c0.55,0,1-0.45,1-1c0-0.34-0.18-0.62-0.44-0.8
			c0.01-0.55,0.23-1.05,0.63-1.43c0.4-0.38,0.93-0.57,1.49-0.54c1.05,0.06,1.87,0.98,1.87,2.09l0,2.72l0.03,0.52h3.21
			c1.11,0,2.03,0.82,2.09,1.87c0.03,0.56-0.16,1.09-0.54,1.49c-0.38,0.4-0.9,0.63-1.45,0.63h-2.49l-5.14-4.86l-0.01-0.01
			c-0.19-0.19-0.2-0.19-3.01-0.15l-0.26,0l0,0.03c-1.49,0.16-2.69,1.33-2.78,2.81c-0.05,0.85,0.24,1.65,0.82,2.26
			c0.57,0.61,1.37,0.95,2.21,0.95h2.31v2.21c0,1.65,1.25,3.03,2.84,3.12c0.06,0,0.13,0.01,0.19,0.01c0.77,0,1.51-0.29,2.07-0.82
			c0.58-0.54,0.91-1.3,0.94-2.09c0.27-0.18,0.46-0.47,0.46-0.82c0-0.55-0.45-1-1-1c-0.55,0-1,0.45-1,1c0,0.36,0.21,0.67,0.5,0.84
			c-0.03,0.5-0.24,0.97-0.61,1.32c-0.4,0.38-0.93,0.57-1.49,0.54c-1.05-0.06-1.87-0.98-1.87-2.09l0-2.72l-0.03-0.52h-3.31
			c-0.56,0-1.07-0.22-1.45-0.63c-0.38-0.41-0.57-0.93-0.54-1.49c0.06-1.05,0.98-1.87,2.09-1.87h0.26v0
			c0.84-0.01,1.72-0.02,2.08-0.01l5.16,5.04l0,0h3.07c0.83,0,1.63-0.35,2.21-0.95c0.58-0.61,0.87-1.42,0.82-2.26
			C114.63,18.12,113.26,16.87,111.6,16.87"/>
		<polygon class="st0" points="53.75,22.94 53.03,22.94 53.03,17.39 51.07,17.39 51.07,16.75 55.71,16.75 55.71,17.39 53.75,17.39 
					"/>
		<path class="st0" d="M61.57,22.94l-0.77-1.97h-2.48l-0.76,1.97h-0.73l2.45-6.21h0.6l2.43,6.21H61.57z M60.58,20.32l-0.72-1.92
			c-0.09-0.24-0.19-0.54-0.29-0.89c-0.06,0.27-0.15,0.57-0.27,0.89l-0.73,1.92H60.58z"/>
		<polygon class="st0" points="66.11,22.94 65.39,22.94 65.39,17.39 63.43,17.39 63.43,16.75 68.07,16.75 68.07,17.39 66.11,17.39 
					"/>
		<path class="st0" d="M73.93,22.94l-0.77-1.97h-2.48l-0.76,1.97h-0.73l2.45-6.21h0.6l2.43,6.21H73.93z M72.93,20.32l-0.72-1.92
			c-0.09-0.24-0.19-0.54-0.29-0.89c-0.06,0.27-0.15,0.57-0.27,0.89l-0.73,1.92H72.93z"/>
		<path class="st0" d="M82.53,22.94l-0.77-1.97h-2.48l-0.76,1.97h-0.73l2.44-6.21h0.61l2.43,6.21H82.53z M81.53,20.32l-0.72-1.92
			c-0.09-0.24-0.19-0.54-0.29-0.89c-0.06,0.27-0.15,0.57-0.27,0.89l-0.73,1.92H81.53z"/>
		<rect x="85.16" y="16.75" class="st0" width="0.72" height="6.19"/>
		<path class="st0" d="M91.34,19.7h2.1v3.01c-0.33,0.1-0.66,0.18-1,0.24c-0.34,0.05-0.73,0.08-1.18,0.08
			c-0.94,0-1.67-0.28-2.19-0.84c-0.52-0.56-0.78-1.34-0.78-2.34c0-0.64,0.13-1.21,0.39-1.69c0.26-0.48,0.63-0.85,1.11-1.11
			c0.49-0.25,1.05-0.38,1.7-0.38c0.66,0,1.28,0.12,1.84,0.36l-0.28,0.64c-0.56-0.24-1.1-0.36-1.61-0.36c-0.75,0-1.34,0.22-1.76,0.67
			c-0.42,0.45-0.63,1.07-0.63,1.87c0,0.84,0.2,1.47,0.61,1.9c0.41,0.43,1.01,0.65,1.8,0.65c0.43,0,0.85-0.05,1.26-0.15v-1.9h-1.38
			V19.7z"/>
		<path class="st0" d="M58.72,45.39l-5.16-14.85h-0.1c0.14,2.21,0.21,4.27,0.21,6.21v8.65h-2.64V27.6h4.1l4.94,14.15h0.07
			l5.08-14.15h4.11v17.79h-2.8v-8.8c0-0.88,0.02-2.04,0.07-3.45c0.04-1.42,0.08-2.28,0.12-2.58h-0.1l-5.34,14.83H58.72z"/>
		<path class="st0" d="M80.1,45.63c-2.09,0-3.73-0.61-4.91-1.83c-1.18-1.22-1.77-2.9-1.77-5.04c0-2.2,0.55-3.92,1.64-5.18
			c1.1-1.26,2.6-1.89,4.51-1.89c1.78,0,3.18,0.54,4.21,1.62c1.03,1.08,1.54,2.56,1.54,4.45v1.55h-8.97
			c0.04,1.31,0.39,2.31,1.06,3.01c0.67,0.7,1.6,1.05,2.81,1.05c0.79,0,1.53-0.08,2.22-0.23c0.69-0.15,1.42-0.4,2.21-0.75v2.32
			c-0.7,0.33-1.4,0.57-2.12,0.71C81.83,45.56,81.01,45.63,80.1,45.63 M79.57,33.85c-0.91,0-1.64,0.29-2.18,0.86
			c-0.55,0.58-0.87,1.42-0.98,2.52h6.11c-0.02-1.11-0.28-1.95-0.8-2.52C81.19,34.14,80.48,33.85,79.57,33.85z"/>
		<path class="st0" d="M93.61,45.63c-1.68,0-2.99-0.61-3.93-1.82c-0.94-1.22-1.41-2.92-1.41-5.12c0-2.21,0.48-3.92,1.43-5.15
			c0.95-1.23,2.27-1.84,3.96-1.84c1.77,0,3.11,0.65,4.04,1.96h0.15c-0.14-0.96-0.21-1.73-0.21-2.29v-4.9h2.87v18.93h-2.24l-0.5-1.76
			h-0.13C96.72,44.96,95.38,45.63,93.61,45.63 M94.38,43.32c1.18,0,2.03-0.33,2.57-0.99c0.54-0.66,0.81-1.73,0.83-3.22v-0.4
			c0-1.69-0.28-2.9-0.83-3.61c-0.55-0.71-1.42-1.07-2.59-1.07c-1.01,0-1.78,0.41-2.32,1.22c-0.54,0.81-0.82,1.98-0.82,3.48
			c0,1.49,0.26,2.63,0.79,3.41C92.53,42.93,93.32,43.32,94.38,43.32z"/>
		<rect x="105.09" y="31.93" class="st0" width="2.86" height="13.45"/>
		<path class="st0" d="M120.41,29.84c-1.67,0-2.98,0.59-3.94,1.78c-0.96,1.18-1.44,2.82-1.44,4.9c0,2.18,0.46,3.83,1.38,4.95
			c0.92,1.12,2.25,1.68,4,1.68c0.75,0,1.48-0.07,2.19-0.23c0.71-0.15,1.44-0.34,2.2-0.58v2.49c-1.39,0.53-2.98,0.79-4.74,0.79
			c-2.6,0-4.6-0.79-6-2.37c-1.39-1.58-2.09-3.83-2.09-6.77c0-1.85,0.34-3.47,1.02-4.85c0.68-1.39,1.66-2.45,2.94-3.19
			c1.28-0.74,2.79-1.11,4.51-1.11c1.82,0,3.5,0.38,5.04,1.14l-1.05,2.42c-0.6-0.28-1.23-0.53-1.9-0.75
			C121.85,29.95,121.15,29.84,120.41,29.84"/>
		<path class="st0" d="M136.75,45.39l-0.57-1.87h-0.1c-0.65,0.82-1.3,1.38-1.96,1.67c-0.66,0.3-1.5,0.44-2.53,0.44
			c-1.32,0-2.35-0.36-3.1-1.07c-0.74-0.71-1.11-1.72-1.11-3.03c0-1.39,0.51-2.43,1.54-3.14c1.03-0.71,2.6-1.09,4.71-1.16l2.32-0.07
			v-0.72c0-0.86-0.2-1.5-0.6-1.93c-0.4-0.42-1.02-0.64-1.87-0.64c-0.69,0-1.35,0.1-1.98,0.3c-0.63,0.2-1.24,0.44-1.83,0.72
			l-0.92-2.04c0.73-0.38,1.53-0.67,2.4-0.87c0.87-0.2,1.69-0.3,2.46-0.3c1.71,0,3,0.37,3.87,1.12c0.87,0.75,1.31,1.92,1.31,3.52
			v9.06H136.75z M132.49,43.44c1.04,0,1.87-0.29,2.5-0.87c0.63-0.58,0.94-1.39,0.94-2.44v-1.17l-1.73,0.07
			c-1.35,0.05-2.33,0.27-2.94,0.68c-0.61,0.4-0.92,1.02-0.92,1.84c0,0.6,0.18,1.07,0.54,1.39
			C131.24,43.28,131.78,43.44,132.49,43.44z"/>
		<path class="st0" d="M150.1,31.69c0.58,0,1.05,0.04,1.42,0.12l-0.28,2.66c-0.41-0.1-0.83-0.15-1.27-0.15
			c-1.14,0-2.07,0.37-2.78,1.12c-0.71,0.75-1.06,1.72-1.06,2.91v7.03h-2.86V31.93h2.24l0.38,2.37h0.15c0.45-0.8,1.03-1.44,1.75-1.91
			C148.5,31.92,149.28,31.69,150.1,31.69"/>
		<path class="st0" d="M160.39,45.63c-2.09,0-3.73-0.61-4.91-1.83c-1.18-1.22-1.77-2.9-1.77-5.04c0-2.2,0.55-3.92,1.64-5.18
			c1.09-1.26,2.6-1.89,4.51-1.89c1.78,0,3.18,0.54,4.21,1.62c1.03,1.08,1.54,2.56,1.54,4.45v1.55h-8.97
			c0.04,1.31,0.39,2.31,1.06,3.01c0.66,0.7,1.6,1.05,2.81,1.05c0.79,0,1.53-0.08,2.22-0.23c0.68-0.15,1.42-0.4,2.21-0.75v2.32
			c-0.7,0.33-1.4,0.57-2.12,0.71C162.13,45.56,161.31,45.63,160.39,45.63 M159.87,33.85c-0.91,0-1.64,0.29-2.18,0.86
			c-0.55,0.58-0.87,1.42-0.98,2.52h6.11c-0.02-1.11-0.28-1.95-0.8-2.52C161.49,34.14,160.78,33.85,159.87,33.85z"/>
	</g>
</g>
</svg>
