<?xml version="1.0" encoding="utf-8"?>
<!-- Generator: Adobe Illustrator 24.2.3, SVG Export Plug-In . SVG Version: 6.00 Build 0)  -->
<svg version="1.1" id="Layer_1" xmlns="http://www.w3.org/2000/svg" xmlns:xlink="http://www.w3.org/1999/xlink" x="0px" y="0px"
	 viewBox="0 0 60.58 57.16" style="enable-background:new 0 0 60.58 57.16;" xml:space="preserve">
<style type="text/css">
	.st0{fill:#FFFFFF;}
	.st1{fill:none;stroke:#000000;stroke-width:0.67;stroke-linecap:square;stroke-miterlimit:10;}
	.st2{fill:none;stroke:#000000;stroke-width:0;stroke-miterlimit:10;}
	.st3{fill-rule:evenodd;clip-rule:evenodd;fill:#FFFFFF;}
	.st4{fill:none;stroke:#000000;stroke-width:0.67;stroke-miterlimit:10;}
	.st5{fill:#E6E7E7;}
	.st6{fill-rule:evenodd;clip-rule:evenodd;fill:#373435;}
	.st7{fill:#065CA8;}
	.st8{fill:#E73A3A;}
	.st9{fill:#E8282B;}
	.st10{fill-rule:evenodd;clip-rule:evenodd;fill:#E8282B;}
	.st11{fill-rule:evenodd;clip-rule:evenodd;fill:#F5F5F5;}
	.st12{fill:#D3D3D4;}
	.st13{fill:#2B2A29;}
	.st14{clip-path:url(#SVGID_19_);fill:url(#SVGID_20_);}
	.st15{clip-path:url(#SVGID_21_);fill:url(#SVGID_22_);}
	.st16{fill-rule:evenodd;clip-rule:evenodd;fill:#D5292D;}
	.st17{fill:none;stroke:#D9DADA;stroke-width:1.0001;stroke-miterlimit:2.613;}
	.st18{fill-rule:evenodd;clip-rule:evenodd;fill:#727271;}
	.st19{fill-rule:evenodd;clip-rule:evenodd;fill:#FEFEFE;}
	.st20{clip-path:url(#SVGID_24_);fill:url(#SVGID_25_);}
	.st21{fill:#727271;}
	.st22{clip-path:url(#SVGID_27_);fill:url(#SVGID_28_);}
	.st23{fill:#FEFEFE;}
	.st24{fill:#D5292D;}
	.st25{fill:#0D78B6;}
	.st26{fill:none;stroke:#0D78B6;stroke-width:0.5669;stroke-miterlimit:22.9256;}
	.st27{fill:#0077B6;}
	.st28{fill-rule:evenodd;clip-rule:evenodd;fill:#0C54A0;}
	.st29{fill-rule:evenodd;clip-rule:evenodd;fill:#007FC4;}
	.st30{fill:none;stroke:#D9DADA;stroke-width:0.5;stroke-miterlimit:2.613;}
	.st31{fill-rule:evenodd;clip-rule:evenodd;fill:#2B2A29;}
	.st32{fill:none;stroke:#2B2A29;stroke-width:0.216;stroke-miterlimit:2.6131;}
</style>
<g>
	<g>
		<path class="st31" d="M34.9,7.73c-2.65-2.15-6.48-2.14-9.12,0.03L2.18,27.17h36.3c0.49,0.75,1.3,1.27,2.26,1.27
			c1.52,0,2.76-1.24,2.76-2.75c0-1.52-1.24-2.76-2.76-2.76c-1.01,0-1.86,0.57-2.34,1.38H10.15L27.6,9.96
			c1.59-1.31,3.9-1.31,5.5-0.02l17.27,14.04h-4.51v24H38.6v-6.51c0-4.3-3.5-7.8-7.8-7.8c-4.29,0-7.79,3.5-7.79,7.8v6.56l-7.31,0.1
			V33.88c0.76-0.49,1.3-1.3,1.3-2.28c0-1.52-1.24-2.76-2.76-2.76c-1.52,0-2.76,1.24-2.76,2.76c0,1,0.56,1.83,1.35,2.32v17.12
			l13.03-0.19v-9.38c0-2.72,2.22-4.94,4.94-4.94c2.72,0,4.94,2.21,4.94,4.94v9.37h12.97v-24h9.7L34.9,7.73z"/>
	</g>
	<g>
		<path class="st13" d="M12.4,51.48V34.15c-0.85-0.61-1.35-1.55-1.35-2.55c0-1.76,1.43-3.19,3.2-3.19c1.76,0,3.19,1.43,3.19,3.19
			c0,0.99-0.47,1.89-1.3,2.51v13.58l6.43-0.09v-6.13c0-4.54,3.7-8.23,8.24-8.23c4.54,0,8.23,3.69,8.23,8.23v6.08h6.38v-24h3.71
			L32.82,10.29c-1.44-1.17-3.52-1.16-4.95,0.02L11.38,23.87h26.78c0.61-0.87,1.55-1.38,2.58-1.38c1.76,0,3.19,1.43,3.19,3.19
			c0,1.76-1.43,3.19-3.19,3.19c-0.96,0-1.87-0.47-2.48-1.27H2.18L1.9,26.83L25.5,7.42c2.79-2.3,6.86-2.31,9.67-0.03L58.69,26.5
			l-0.28,0.78h-9.26v24H35.3v-9.81c0-2.48-2.02-4.5-4.5-4.5s-4.5,2.02-4.5,4.5v9.81L12.4,51.48z M14.24,29.28
			c-1.28,0-2.32,1.04-2.32,2.32c0,0.78,0.43,1.51,1.14,1.94l0.21,0.13v16.92l12.15-0.18v-8.95c0-2.96,2.41-5.37,5.38-5.37
			s5.38,2.41,5.38,5.37v8.93h12.09v-24h8.9L34.62,8.07c-2.5-2.02-6.09-2.01-8.56,0.03L3.4,26.73h35.31l0.13,0.2
			c0.45,0.68,1.14,1.07,1.89,1.07c1.28,0,2.31-1.04,2.31-2.32c0-1.28-1.04-2.32-2.31-2.32c-0.8,0-1.53,0.44-1.96,1.17l-0.13,0.21
			H10.16l-0.28-0.78L27.32,9.62c1.75-1.44,4.3-1.45,6.06-0.02l17.27,14.04l-0.28,0.78h-4.07v24h-8.13v-6.95
			c0-4.06-3.3-7.36-7.35-7.36c-4.06,0-7.36,3.3-7.36,7.36v6.99l-8.19,0.12V33.64l0.2-0.13c0.7-0.45,1.09-1.15,1.09-1.91
			C16.56,30.32,15.52,29.28,14.24,29.28z"/>
	</g>
</g>
</svg>
