<?xml version="1.0" encoding="utf-8"?>
<!-- Generator: Adobe Illustrator 24.2.3, SVG Export Plug-In . SVG Version: 6.00 Build 0)  -->
<svg version="1.1" id="Layer_1" xmlns="http://www.w3.org/2000/svg" xmlns:xlink="http://www.w3.org/1999/xlink" x="0px" y="0px"
	 viewBox="0 0 55.83 63" style="enable-background:new 0 0 55.83 63;" xml:space="preserve">
<style type="text/css">
	.st0{fill:#FFFFFF;}
	.st1{fill:none;stroke:#000000;stroke-width:0.67;stroke-linecap:square;stroke-miterlimit:10;}
	.st2{fill:none;stroke:#000000;stroke-width:0;stroke-miterlimit:10;}
	.st3{fill-rule:evenodd;clip-rule:evenodd;fill:#FFFFFF;}
	.st4{fill:none;stroke:#000000;stroke-width:0.67;stroke-miterlimit:10;}
	.st5{fill:#E6E7E7;}
	.st6{fill-rule:evenodd;clip-rule:evenodd;fill:#373435;}
	.st7{fill:#065CA8;}
	.st8{fill:#E73A3A;}
	.st9{fill:#E8282B;}
	.st10{fill-rule:evenodd;clip-rule:evenodd;fill:#E8282B;}
	.st11{fill-rule:evenodd;clip-rule:evenodd;fill:#F5F5F5;}
	.st12{fill:#D3D3D4;}
	.st13{fill:#2B2A29;}
	.st14{clip-path:url(#SVGID_19_);fill:url(#SVGID_20_);}
	.st15{clip-path:url(#SVGID_21_);fill:url(#SVGID_22_);}
	.st16{fill-rule:evenodd;clip-rule:evenodd;fill:#D5292D;}
	.st17{fill:none;stroke:#D9DADA;stroke-width:1.0001;stroke-miterlimit:2.613;}
	.st18{fill-rule:evenodd;clip-rule:evenodd;fill:#727271;}
	.st19{fill-rule:evenodd;clip-rule:evenodd;fill:#FEFEFE;}
	.st20{clip-path:url(#SVGID_24_);fill:url(#SVGID_25_);}
	.st21{fill:#727271;}
	.st22{clip-path:url(#SVGID_27_);fill:url(#SVGID_28_);}
	.st23{fill:#FEFEFE;}
	.st24{fill:#D5292D;}
	.st25{fill:#0D78B6;}
	.st26{fill:none;stroke:#0D78B6;stroke-width:0.5669;stroke-miterlimit:22.9256;}
	.st27{fill:#0077B6;}
	.st28{fill-rule:evenodd;clip-rule:evenodd;fill:#0C54A0;}
	.st29{fill-rule:evenodd;clip-rule:evenodd;fill:#007FC4;}
	.st30{fill:none;stroke:#D9DADA;stroke-width:0.5;stroke-miterlimit:2.613;}
	.st31{fill-rule:evenodd;clip-rule:evenodd;fill:#2B2A29;}
	.st32{fill:none;stroke:#2B2A29;stroke-width:0.216;stroke-miterlimit:2.6131;}
</style>
<g>
	<path class="st29" d="M2.4,25.41h51.02V6.05c0-2.35-1.72-4.36-3.83-4.36H6.23c-2.1,0-3.83,1.96-3.83,4.36v4.23V25.41z"/>
	<path class="st3" d="M2.4,25.41h51.02v31.54c0,2.35-1.72,4.36-3.83,4.36H6.23c-2.1,0-3.83-1.96-3.83-4.36v-4.23V25.41z"/>
	<path class="st17" d="M6.23,1.7H49.6c2.11,0,3.83,1.97,3.83,4.27v50.92c0,2.31-1.76,4.27-3.83,4.27H6.23
		c-2.07,0-3.83-1.92-3.83-4.27V5.97C2.4,3.62,4.12,1.7,6.23,1.7z"/>
	<path class="st23" d="M39.68,16.24c0,0.77-0.29,1.38-0.84,1.82c-0.55,0.44-1.33,0.67-2.33,0.67c-0.91,0-1.72-0.17-2.42-0.52v-1.69
		c0.58,0.26,1.07,0.44,1.46,0.55c0.41,0.11,0.77,0.16,1.1,0.16c0.4,0,0.71-0.07,0.91-0.23c0.22-0.16,0.32-0.38,0.32-0.68
		c0-0.17-0.05-0.31-0.14-0.44c-0.08-0.13-0.23-0.26-0.41-0.38c-0.18-0.12-0.55-0.31-1.12-0.58c-0.52-0.25-0.91-0.48-1.18-0.71
		c-0.26-0.23-0.47-0.49-0.62-0.79c-0.16-0.3-0.24-0.65-0.24-1.06c0-0.76,0.26-1.36,0.78-1.79c0.5-0.43,1.22-0.65,2.12-0.65
		c0.44,0,0.88,0.05,1.27,0.16c0.41,0.11,0.83,0.25,1.27,0.44l-0.59,1.42c-0.46-0.19-0.83-0.32-1.13-0.4
		c-0.3-0.07-0.6-0.11-0.89-0.11c-0.34,0-0.6,0.08-0.79,0.24c-0.18,0.16-0.28,0.37-0.28,0.62c0,0.17,0.04,0.3,0.12,0.42
		c0.07,0.12,0.19,0.24,0.35,0.35c0.17,0.11,0.55,0.31,1.15,0.6c0.8,0.38,1.36,0.77,1.64,1.15C39.52,15.21,39.68,15.68,39.68,16.24
		 M26.92,18.62l-2.06-6.72h-0.05c0.07,1.37,0.11,2.28,0.11,2.74v3.98H23.3v-8.57h2.47l2.03,6.55h0.04l2.15-6.55h2.47v8.57h-1.69
		v-4.06c0-0.19,0-0.41,0.01-0.66c0-0.25,0.04-0.91,0.07-1.99H30.8l-2.21,6.71H26.92z M21.75,16.24c0,0.77-0.29,1.38-0.84,1.82
		c-0.55,0.44-1.33,0.67-2.33,0.67c-0.91,0-1.72-0.17-2.42-0.52v-1.69c0.58,0.26,1.07,0.44,1.46,0.55c0.41,0.11,0.77,0.16,1.1,0.16
		c0.4,0,0.71-0.07,0.91-0.23c0.22-0.16,0.32-0.38,0.32-0.68c0-0.17-0.05-0.31-0.14-0.44c-0.08-0.13-0.23-0.26-0.41-0.38
		c-0.18-0.12-0.55-0.31-1.12-0.58c-0.52-0.25-0.91-0.48-1.18-0.71c-0.26-0.23-0.47-0.49-0.62-0.79c-0.16-0.3-0.24-0.65-0.24-1.06
		c0-0.76,0.26-1.36,0.78-1.79c0.5-0.43,1.22-0.65,2.12-0.65c0.44,0,0.88,0.05,1.27,0.16c0.41,0.11,0.83,0.25,1.27,0.44l-0.59,1.42
		c-0.46-0.19-0.83-0.32-1.13-0.4c-0.3-0.07-0.6-0.11-0.89-0.11c-0.34,0-0.6,0.08-0.79,0.24c-0.18,0.16-0.28,0.37-0.28,0.62
		c0,0.17,0.04,0.3,0.12,0.42c0.07,0.12,0.19,0.24,0.35,0.35c0.17,0.11,0.55,0.31,1.15,0.6c0.8,0.38,1.36,0.77,1.64,1.15
		C21.59,15.21,21.75,15.68,21.75,16.24"/>
	<path class="st25" d="M33.76,41.04v-5.71h1.21v4.71h2.32v1H33.76z M31.03,38.67c-0.38-1.23-0.6-1.93-0.65-2.09
		c-0.05-0.17-0.08-0.3-0.1-0.38c-0.08,0.33-0.33,1.15-0.74,2.47H31.03z M31.73,41.04l-0.42-1.36h-2.08l-0.42,1.36h-1.3l2.02-5.74
		h1.48l2.02,5.74H31.73z M27.05,41.04h-3.29v-5.71h3.29v0.99h-2.08v1.26h1.94v0.99h-1.94v1.47h2.08V41.04z M22.32,41.04h-1.21v-2.46
		h-2.26v2.46h-1.21v-5.71h1.21v2.24h2.26v-2.24h1.21V41.04z M13.57,38.85v2.19h-1.21v-5.71h1.66c0.78,0,1.35,0.14,1.72,0.42
		c0.38,0.28,0.56,0.71,0.56,1.29c0,0.34-0.1,0.63-0.28,0.9c-0.18,0.26-0.44,0.46-0.78,0.62c0.86,1.28,1.42,2.11,1.68,2.49h-1.34
		l-1.36-2.19H13.57z M13.57,37.87h0.39c0.38,0,0.66-0.06,0.85-0.19c0.18-0.13,0.27-0.33,0.27-0.6c0-0.27-0.1-0.46-0.28-0.58
		c-0.18-0.11-0.47-0.17-0.86-0.17h-0.37V37.87z M8.17,37.2c0.06-0.24,0.15-0.54,0.29-0.9c0.13-0.35,0.26-0.68,0.4-0.98h0.86
		c-0.17,0.7-0.3,1.35-0.39,1.96h-1.1L8.17,37.2z M10,37.2c0.06-0.24,0.15-0.54,0.29-0.9c0.13-0.35,0.26-0.68,0.4-0.98h0.86
		c-0.17,0.7-0.3,1.35-0.39,1.96h-1.1L10,37.2z"/>
	<path class="st25" d="M51.61,35.42c-0.13,0.51-0.36,1.14-0.69,1.87h-0.86c0.18-0.78,0.31-1.42,0.39-1.96h1.1L51.61,35.42z
		 M49.79,35.42c-0.13,0.51-0.36,1.14-0.69,1.87h-0.86c0.18-0.78,0.31-1.42,0.39-1.96h1.1L49.79,35.42z M47.43,41.04h-1.21v-2.46
		h-2.26v2.46h-1.21v-5.71h1.21v2.24h2.26v-2.24h1.21V41.04z M40.32,41.04h-1.21v-4.7h-1.55v-1.01h4.31v1.01h-1.55V41.04z"/>
	<path class="st25" d="M44.62,51.94h-1.21v-3.3l0.02-0.54l0.02-0.59c-0.2,0.2-0.34,0.33-0.42,0.39l-0.66,0.53l-0.58-0.73l1.84-1.46
		h0.99V51.94z M39.03,47.03c-0.2,0-0.37,0.06-0.5,0.16c-0.13,0.1-0.19,0.25-0.19,0.42c0,0.15,0.06,0.3,0.15,0.42
		c0.1,0.13,0.28,0.26,0.54,0.38c0.26-0.12,0.44-0.24,0.54-0.37c0.1-0.13,0.15-0.27,0.15-0.43c0-0.18-0.06-0.32-0.19-0.43
		C39.41,47.08,39.24,47.03,39.03,47.03 M38.15,50.42c0,0.22,0.08,0.4,0.23,0.52c0.16,0.13,0.37,0.19,0.64,0.19
		c0.3,0,0.53-0.06,0.67-0.19c0.15-0.13,0.22-0.3,0.22-0.51c0-0.18-0.07-0.34-0.22-0.49c-0.15-0.15-0.39-0.31-0.72-0.49
		C38.43,49.71,38.15,50.03,38.15,50.42z M39.04,46.15c0.55,0,0.99,0.12,1.33,0.38c0.33,0.25,0.5,0.58,0.5,1
		c0,0.3-0.08,0.55-0.24,0.78c-0.16,0.22-0.42,0.43-0.78,0.61c0.43,0.23,0.74,0.47,0.92,0.72c0.19,0.25,0.28,0.52,0.28,0.82
		c0,0.47-0.18,0.85-0.54,1.13c-0.37,0.29-0.86,0.43-1.46,0.43c-0.62,0-1.11-0.14-1.47-0.4c-0.35-0.26-0.54-0.64-0.54-1.13
		c0-0.33,0.09-0.62,0.26-0.86c0.17-0.26,0.45-0.48,0.83-0.67c-0.33-0.21-0.56-0.42-0.7-0.66c-0.14-0.24-0.22-0.5-0.22-0.78
		c0-0.41,0.17-0.74,0.51-0.99C38.06,46.28,38.5,46.15,39.04,46.15z M35.49,51.94h-1.21v-3.3l0.02-0.54l0.02-0.59
		c-0.2,0.2-0.34,0.33-0.42,0.39l-0.66,0.53l-0.58-0.73l1.84-1.46h0.99V51.94z M29.96,51.05c0.26,0,0.46-0.09,0.59-0.26
		c0.14-0.17,0.21-0.42,0.21-0.74c0-0.28-0.06-0.5-0.19-0.66c-0.13-0.16-0.32-0.24-0.58-0.24c-0.25,0-0.46,0.08-0.62,0.24
		c-0.18,0.15-0.26,0.34-0.26,0.55c0,0.31,0.08,0.57,0.25,0.78C29.5,50.94,29.71,51.05,29.96,51.05 M27.9,49.51
		c0-1.13,0.24-1.98,0.72-2.53c0.48-0.55,1.19-0.82,2.14-0.82c0.33,0,0.58,0.02,0.77,0.06v0.97c-0.23-0.06-0.46-0.08-0.69-0.08
		c-0.42,0-0.75,0.06-1.02,0.18c-0.26,0.13-0.46,0.31-0.58,0.56c-0.14,0.24-0.21,0.59-0.23,1.04h0.05c0.26-0.44,0.67-0.66,1.24-0.66
		c0.51,0,0.91,0.16,1.2,0.48c0.29,0.32,0.43,0.76,0.43,1.33c0,0.61-0.17,1.1-0.51,1.45c-0.34,0.36-0.82,0.54-1.43,0.54
		c-0.42,0-0.79-0.1-1.1-0.3c-0.31-0.19-0.55-0.48-0.73-0.86C27.98,50.49,27.9,50.04,27.9,49.51z M26.35,51.94h-1.21v-3.3l0.02-0.54
		l0.02-0.59c-0.2,0.2-0.34,0.33-0.42,0.39l-0.66,0.53l-0.58-0.73l1.84-1.46h0.99V51.94z M20.82,51.05c0.26,0,0.46-0.09,0.59-0.26
		c0.14-0.17,0.21-0.42,0.21-0.74c0-0.28-0.06-0.5-0.19-0.66c-0.13-0.16-0.32-0.24-0.58-0.24c-0.25,0-0.46,0.08-0.62,0.24
		c-0.18,0.15-0.26,0.34-0.26,0.55c0,0.31,0.08,0.57,0.25,0.78C20.37,50.94,20.58,51.05,20.82,51.05 M18.76,49.51
		c0-1.13,0.24-1.98,0.72-2.53c0.48-0.55,1.19-0.82,2.14-0.82c0.33,0,0.58,0.02,0.77,0.06v0.97c-0.23-0.06-0.46-0.08-0.69-0.08
		c-0.42,0-0.75,0.06-1.02,0.18c-0.26,0.13-0.46,0.31-0.58,0.56c-0.14,0.24-0.21,0.59-0.23,1.04h0.05c0.26-0.44,0.67-0.66,1.24-0.66
		c0.51,0,0.91,0.16,1.2,0.48s0.43,0.76,0.43,1.33c0,0.61-0.17,1.1-0.51,1.45c-0.34,0.36-0.82,0.54-1.43,0.54
		c-0.42,0-0.79-0.1-1.1-0.3c-0.31-0.19-0.55-0.48-0.73-0.86C18.85,50.49,18.76,50.04,18.76,49.51z M16.31,48.29
		c0.55,0,0.99,0.15,1.32,0.46c0.33,0.31,0.49,0.74,0.49,1.27c0,0.64-0.19,1.13-0.59,1.47c-0.39,0.34-0.95,0.52-1.69,0.52
		c-0.63,0-1.14-0.1-1.54-0.31v-1.04c0.21,0.1,0.45,0.19,0.72,0.26c0.27,0.07,0.53,0.1,0.78,0.1c0.74,0,1.1-0.3,1.1-0.9
		c0-0.58-0.38-0.86-1.14-0.86c-0.14,0-0.29,0.02-0.46,0.04c-0.17,0.02-0.3,0.06-0.41,0.09l-0.48-0.26l0.22-2.91h3.1v1.02h-2.04
		l-0.1,1.12l0.14-0.02C15.88,48.31,16.08,48.29,16.31,48.29"/>
</g>
</svg>
