<?xml version="1.0" encoding="utf-8"?>
<!-- Generator: Adobe Illustrator 24.2.3, SVG Export Plug-In . SVG Version: 6.00 Build 0)  -->
<svg version="1.1" id="Layer_1" xmlns="http://www.w3.org/2000/svg" xmlns:xlink="http://www.w3.org/1999/xlink" x="0px" y="0px"
	 viewBox="0 0 60.58 57.16" style="enable-background:new 0 0 60.58 57.16;" xml:space="preserve">
<style type="text/css">
	.st0{fill:#FFFFFF;}
	.st1{fill:none;stroke:#000000;stroke-width:0.67;stroke-linecap:square;stroke-miterlimit:10;}
	.st2{fill:none;stroke:#000000;stroke-width:0;stroke-miterlimit:10;}
	.st3{fill-rule:evenodd;clip-rule:evenodd;fill:#FFFFFF;}
	.st4{fill:none;stroke:#000000;stroke-width:0.67;stroke-miterlimit:10;}
	.st5{fill:#E6E7E7;}
	.st6{fill-rule:evenodd;clip-rule:evenodd;fill:#373435;}
	.st7{fill:#065CA8;}
	.st8{fill:#E73A3A;}
	.st9{fill:#E8282B;}
	.st10{fill-rule:evenodd;clip-rule:evenodd;fill:#E8282B;}
	.st11{fill-rule:evenodd;clip-rule:evenodd;fill:#F5F5F5;}
	.st12{fill:#D3D3D4;}
	.st13{fill:#2B2A29;}
	.st14{clip-path:url(#SVGID_19_);fill:url(#SVGID_20_);}
	.st15{clip-path:url(#SVGID_21_);fill:url(#SVGID_22_);}
	.st16{fill-rule:evenodd;clip-rule:evenodd;fill:#D5292D;}
	.st17{fill:none;stroke:#D9DADA;stroke-width:1.0001;stroke-miterlimit:2.613;}
	.st18{fill-rule:evenodd;clip-rule:evenodd;fill:#727271;}
	.st19{fill-rule:evenodd;clip-rule:evenodd;fill:#FEFEFE;}
	.st20{clip-path:url(#SVGID_24_);fill:url(#SVGID_25_);}
	.st21{fill:#727271;}
	.st22{clip-path:url(#SVGID_27_);fill:url(#SVGID_28_);}
	.st23{fill:#FEFEFE;}
	.st24{fill:#D5292D;}
	.st25{fill:#0D78B6;}
	.st26{fill:none;stroke:#0D78B6;stroke-width:0.5669;stroke-miterlimit:22.9256;}
	.st27{fill:#0077B6;}
	.st28{fill-rule:evenodd;clip-rule:evenodd;fill:#0C54A0;}
	.st29{fill-rule:evenodd;clip-rule:evenodd;fill:#007FC4;}
	.st30{fill:none;stroke:#D9DADA;stroke-width:0.5;stroke-miterlimit:2.613;}
	.st31{fill-rule:evenodd;clip-rule:evenodd;fill:#2B2A29;}
	.st32{fill:none;stroke:#2B2A29;stroke-width:0.216;stroke-miterlimit:2.6131;}
</style>
<g>
	<g>
		<path class="st31" d="M57.43,40.29l0-3.16v-0.14c0-14.62-11.89-26.52-26.52-26.52C16.97,10.47,5.54,21.3,4.51,35
			c-0.81,0.49-1.38,1.34-1.38,2.35c0,1.54,1.25,2.79,2.79,2.79c1.54,0,2.79-1.25,2.79-2.79c0-0.85-0.4-1.59-1-2.1
			c0.12-1.6,0.4-3.16,0.82-4.66l3.61,1.79l1.43-2.87l-3.94-1.95c1.41-3.19,3.52-5.99,6.13-8.24l2.48,3.36l2.58-1.9l-2.49-3.37
			c3.22-2.08,6.98-3.38,11.02-3.65l-0.04,4.13l3.2,0.03l0.04-4.17c3.95,0.27,7.7,1.52,10.99,3.64l-2.5,3.39l2.58,1.9l2.48-3.36
			c0.45,0.39,0.9,0.77,1.32,1.2c2.06,2.07,3.67,4.46,4.82,7.05l-3.93,1.95l1.43,2.87l3.61-1.79c0.59,2.08,0.91,4.24,0.91,6.46
			l0,3.32l0.01,0.19c0.06,0.55,0.02,1.75-0.55,2.39c-0.2,0.23-0.57,0.53-1.51,0.53H33.01l9.09-13.27c1.52-0.02,2.75-1.26,2.75-2.78
			c0-1.54-1.25-2.79-2.79-2.79c-1.54,0-2.79,1.25-2.79,2.79c0,0.34,0.08,0.66,0.19,0.96L26.93,46.69h25.26
			c1.65,0,2.97-0.55,3.92-1.62C57.62,43.35,57.49,40.86,57.43,40.29z"/>
	</g>
	<g>
		<path class="st13" d="M52.18,47.11H26.13L39,28.33c-0.08-0.24-0.15-0.55-0.15-0.89c0-1.77,1.44-3.21,3.21-3.21
			c1.77,0,3.21,1.44,3.21,3.21c0,1.66-1.3,3.05-2.94,3.19L33.8,43.07h18.38c0.85,0,1.1-0.27,1.2-0.39c0.42-0.49,0.5-1.53,0.44-2.07
			l-0.02-0.2v-3.36c0-1.95-0.25-3.92-0.76-5.85l-3.53,1.75l-1.8-3.62l3.94-1.95c-1.14-2.45-2.67-4.66-4.57-6.56
			c-0.31-0.31-0.63-0.6-0.96-0.88l-2.46,3.33l-3.25-2.4l2.48-3.36c-3-1.86-6.43-2.99-9.97-3.3l-0.04,4.14l-4.04-0.04l0.04-4.1
			c-3.54,0.31-6.97,1.45-9.99,3.31l2.47,3.35l-3.25,2.4l-2.46-3.32c-2.32,2.08-4.21,4.63-5.52,7.43l3.95,1.96l-1.8,3.62L8.79,31.2
			c-0.33,1.26-0.55,2.56-0.66,3.88c0.64,0.61,0.99,1.41,0.99,2.27c0,1.77-1.44,3.21-3.21,3.21c-1.77,0-3.21-1.44-3.21-3.21
			c0-1.03,0.52-1.98,1.4-2.59C5.26,20.89,17,10.05,30.92,10.05c14.85,0,26.94,12.08,26.94,26.94l0,3.28
			c0.06,0.76,0.15,3.28-1.43,5.08C55.39,46.52,53.97,47.11,52.18,47.11z M27.72,46.27h24.46c1.53,0,2.74-0.5,3.61-1.48
			c1.41-1.61,1.27-4.01,1.22-4.47l0-0.04l0-3.3c0-14.39-11.7-26.1-26.1-26.1c-13.56,0-24.98,10.6-26,24.14l-0.02,0.21l-0.19,0.11
			c-0.74,0.45-1.18,1.19-1.18,1.99c0,1.31,1.06,2.37,2.37,2.37c1.3,0,2.37-1.07,2.37-2.37c0-0.68-0.3-1.31-0.85-1.78l-0.17-0.14
			l0.02-0.21C7.4,33.6,7.68,32,8.12,30.48L8.26,30l3.68,1.83L13,29.7l-3.92-1.94l0.16-0.37c1.41-3.19,3.57-6.09,6.24-8.39l0.34-0.29
			l2.5,3.38l1.91-1.41l-2.51-3.39l0.37-0.24c3.35-2.16,7.23-3.45,11.21-3.72l0.45-0.03l-0.04,4.17l2.37,0.02l0.04-4.19l0.44,0.03
			c3.99,0.27,7.86,1.55,11.19,3.71l0.37,0.24l-2.51,3.41l1.9,1.41l2.5-3.39L46.35,19c0.46,0.4,0.91,0.79,1.34,1.22
			c2.06,2.07,3.71,4.48,4.91,7.17l0.16,0.37l-3.91,1.94l1.05,2.12L53.58,30l0.14,0.48c0.62,2.16,0.93,4.37,0.93,6.57l0,3.32
			l0.01,0.16c0.07,0.64,0.01,1.95-0.65,2.7c-0.26,0.29-0.73,0.67-1.83,0.67H32.22l9.66-14.1l0.22,0c1.29-0.02,2.34-1.08,2.34-2.36
			c0-1.31-1.06-2.37-2.37-2.37c-1.3,0-2.37,1.06-2.37,2.37c0,0.24,0.05,0.5,0.16,0.82l0.07,0.2L27.72,46.27z"/>
	</g>
</g>
</svg>
