<?xml version="1.0" encoding="utf-8"?>
<!-- Generator: Adobe Illustrator 24.2.3, SVG Export Plug-In . SVG Version: 6.00 Build 0)  -->
<svg version="1.1" id="Layer_1" xmlns="http://www.w3.org/2000/svg" xmlns:xlink="http://www.w3.org/1999/xlink" x="0px" y="0px"
	 viewBox="0 0 133.4 67.21" style="enable-background:new 0 0 133.4 67.21;" xml:space="preserve">
<style type="text/css">
	.st0{fill:#FFFFFF;}
	.st1{fill:none;stroke:#000000;stroke-width:0.67;stroke-linecap:square;stroke-miterlimit:10;}
	.st2{fill:none;stroke:#000000;stroke-width:0;stroke-miterlimit:10;}
	.st3{fill-rule:evenodd;clip-rule:evenodd;fill:#FFFFFF;}
	.st4{fill:none;stroke:#000000;stroke-width:0.67;stroke-miterlimit:10;}
	.st5{fill:#E6E7E7;}
	.st6{fill-rule:evenodd;clip-rule:evenodd;fill:#373435;}
	.st7{fill:#065CA8;}
	.st8{fill:#E73A3A;}
	.st9{fill:#E8282B;}
	.st10{fill-rule:evenodd;clip-rule:evenodd;fill:#E8282B;}
	.st11{fill-rule:evenodd;clip-rule:evenodd;fill:#F5F5F5;}
	.st12{fill:#D3D3D4;}
	.st13{fill:#2B2A29;}
	.st14{clip-path:url(#SVGID_19_);fill:url(#SVGID_20_);}
	.st15{clip-path:url(#SVGID_21_);fill:url(#SVGID_22_);}
	.st16{fill-rule:evenodd;clip-rule:evenodd;fill:#D5292D;}
	.st17{fill:none;stroke:#D9DADA;stroke-width:1.0001;stroke-miterlimit:2.613;}
	.st18{fill-rule:evenodd;clip-rule:evenodd;fill:#727271;}
	.st19{fill-rule:evenodd;clip-rule:evenodd;fill:#FEFEFE;}
	.st20{clip-path:url(#SVGID_24_);fill:url(#SVGID_25_);}
	.st21{fill:#727271;}
	.st22{clip-path:url(#SVGID_27_);fill:url(#SVGID_28_);}
	.st23{fill:#FEFEFE;}
	.st24{fill:#D5292D;}
	.st25{fill:#0D78B6;}
	.st26{fill:none;stroke:#0D78B6;stroke-width:0.5669;stroke-miterlimit:22.9256;}
	.st27{fill:#0077B6;}
	.st28{clip-path:url(#SVGID_30_);fill:url(#SVGID_31_);}
	.st29{clip-path:url(#SVGID_33_);fill:url(#SVGID_34_);}
	.st30{font-family:'OpenSans';}
	.st31{font-size:8px;}
	.st32{fill-rule:evenodd;clip-rule:evenodd;fill:#0C54A0;}
	.st33{fill-rule:evenodd;clip-rule:evenodd;fill:#007FC4;}
	.st34{fill:none;stroke:#D9DADA;stroke-width:0.5;stroke-miterlimit:2.613;}
	.st35{fill-rule:evenodd;clip-rule:evenodd;fill:#2B2A29;}
	.st36{fill:none;stroke:#2B2A29;stroke-width:0.216;stroke-miterlimit:2.6131;}
</style>
<g>
	<path class="st16" d="M0.62,27.86h130.01V4.69c-0.57-1.38-1.69-2.34-2.98-2.34H3.99c-1.86,0-3.38,1.96-3.38,4.36V27.86z"/>
	<path class="st3" d="M0.62,27.86h130.01V64.3c-0.57,1.38-1.69,2.34-2.98,2.34H3.99c-1.86,0-3.38-1.96-3.38-4.36V27.86z"/>
	<path class="st17" d="M3.99,2.35h123.76c1.86,0,3.38,1.89,3.38,4.12v56.05c0,2.23-1.55,4.12-3.38,4.12H3.99
		c-1.83,0-3.38-1.85-3.38-4.12V6.47C0.62,4.2,2.14,2.35,3.99,2.35z"/>
	<rect x="131.34" y="14.6" class="st18" width="2.07" height="12.13"/>
	<rect x="106.75" y="0.08" class="st18" width="12.13" height="2.07"/>
	<polygon class="st19" points="118.89,0.08 133.4,14.6 133.4,26.62 106.86,0.08 	"/>
	<g>
		<defs>
			<polygon id="SVGID_29_" points="118.89,0.08 106.86,0.08 109.13,2.35 121.16,2.35 			"/>
		</defs>
		<clipPath id="SVGID_4_">
			<use xlink:href="#SVGID_29_"  style="overflow:visible;"/>
		</clipPath>
		<linearGradient id="SVGID_6_" gradientUnits="userSpaceOnUse" x1="114.0092" y1="0.0852" x2="114.0092" y2="2.3532">
			<stop  offset="0" style="stop-color:#D9DADA"/>
			<stop  offset="1" style="stop-color:#FEFEFE"/>
		</linearGradient>
		<rect x="106.86" y="0.08" style="clip-path:url(#SVGID_4_);fill:url(#SVGID_6_);" width="14.29" height="2.27"/>
	</g>
	<polygon class="st21" points="106.78,0 133.4,26.62 133.1,26.62 106.78,0.3 	"/>
	<g>
		<defs>
			<polygon id="SVGID_32_" points="131.14,12.33 131.14,24.36 133.4,26.62 133.4,14.6 			"/>
		</defs>
		<clipPath id="SVGID_8_">
			<use xlink:href="#SVGID_32_"  style="overflow:visible;"/>
		</clipPath>
		<linearGradient id="SVGID_10_" gradientUnits="userSpaceOnUse" x1="131.1364" y1="19.4772" x2="133.4064" y2="19.4772">
			<stop  offset="0" style="stop-color:#FEFEFE"/>
			<stop  offset="1" style="stop-color:#D9DADA"/>
		</linearGradient>
		<rect x="131.14" y="12.33" style="clip-path:url(#SVGID_8_);fill:url(#SVGID_10_);" width="2.27" height="14.29"/>
	</g>
	<path class="st23" d="M98.19,19.76c-1.23,0-2.18-0.34-2.88-1.02c-0.69-0.67-1.04-1.64-1.04-2.88c0-1.27,0.32-2.27,0.97-2.97
		c0.63-0.7,1.53-1.05,2.65-1.05c1.09,0,1.93,0.31,2.53,0.92c0.6,0.62,0.9,1.46,0.9,2.55v1.01h-4.93c0.03,0.59,0.2,1.05,0.52,1.39
		c0.34,0.34,0.8,0.5,1.39,0.5c0.46,0,0.9-0.06,1.32-0.14c0.41-0.1,0.83-0.25,1.27-0.46v1.61c-0.36,0.18-0.76,0.32-1.16,0.42
		C99.29,19.72,98.79,19.76,98.19,19.76 M97.89,13.32c-0.43,0-0.78,0.14-1.04,0.42c-0.25,0.28-0.39,0.67-0.43,1.19h2.93
		c0-0.52-0.14-0.91-0.39-1.19C98.69,13.46,98.34,13.32,97.89,13.32z M92.59,19.62H90.5v-4.47c0-0.55-0.1-0.97-0.29-1.25
		c-0.2-0.27-0.5-0.41-0.94-0.41c-0.57,0-1.01,0.2-1.26,0.59c-0.27,0.38-0.39,1.04-0.39,1.93v3.6h-2.09v-7.64h1.6l0.28,0.98h0.11
		c0.24-0.36,0.56-0.64,0.97-0.84c0.41-0.18,0.87-0.28,1.39-0.28c0.9,0,1.57,0.24,2.03,0.71c0.45,0.49,0.69,1.18,0.69,2.09V19.62z
		 M83.35,19.62h-2.09v-7.64h2.09V19.62z M81.18,10c0-0.69,0.38-1.02,1.13-1.02c0.76,0,1.13,0.34,1.13,1.02
		c0,0.32-0.1,0.57-0.28,0.76c-0.2,0.17-0.48,0.27-0.85,0.27C81.55,11.02,81.18,10.67,81.18,10z M79.08,19.62h-2.09V8.98h2.09V19.62z
		 M74.85,19.62h-2.09v-4.47c0-0.55-0.1-0.97-0.29-1.25c-0.2-0.27-0.5-0.41-0.94-0.41c-0.57,0-1.01,0.2-1.26,0.59
		c-0.27,0.38-0.39,1.04-0.39,1.93v3.6h-2.09v-7.64h1.6l0.28,0.98h0.11c0.24-0.36,0.56-0.64,0.97-0.84c0.41-0.18,0.87-0.28,1.39-0.28
		c0.9,0,1.57,0.24,2.03,0.71c0.45,0.49,0.69,1.18,0.69,2.09V19.62z M66.07,15.78c0,1.25-0.32,2.23-0.98,2.93
		c-0.66,0.7-1.57,1.05-2.74,1.05c-0.73,0-1.37-0.17-1.95-0.49c-0.56-0.31-0.98-0.77-1.29-1.37c-0.29-0.6-0.45-1.32-0.45-2.11
		c0-1.25,0.32-2.21,0.98-2.91c0.64-0.69,1.57-1.04,2.74-1.04c0.73,0,1.39,0.15,1.95,0.48c0.56,0.32,0.98,0.78,1.29,1.37
		C65.92,14.28,66.07,14.98,66.07,15.78 M60.79,15.78c0,0.76,0.13,1.33,0.36,1.71c0.25,0.39,0.66,0.59,1.22,0.59
		c0.56,0,0.95-0.2,1.2-0.57c0.24-0.39,0.36-0.97,0.36-1.72s-0.13-1.33-0.38-1.71c-0.24-0.38-0.64-0.56-1.2-0.56
		c-0.56,0-0.95,0.18-1.2,0.56C60.92,14.45,60.79,15.03,60.79,15.78z M46.43,11.97h2.28l1.44,4.3c0.13,0.38,0.21,0.81,0.25,1.33h0.04
		c0.06-0.48,0.15-0.91,0.29-1.33l1.41-4.3h2.24l-3.23,8.62c-0.29,0.8-0.71,1.39-1.27,1.79c-0.55,0.39-1.19,0.59-1.92,0.59
		c-0.36,0-0.71-0.04-1.06-0.11v-1.65c0.25,0.06,0.53,0.08,0.83,0.08c0.36,0,0.69-0.11,0.97-0.34c0.28-0.22,0.49-0.57,0.64-1.02
		l0.13-0.38L46.43,11.97z M43.31,16.08l-0.81,0.03c-0.6,0.01-1.05,0.13-1.34,0.32c-0.31,0.21-0.45,0.52-0.45,0.92
		c0,0.59,0.34,0.88,1.01,0.88c0.49,0,0.87-0.14,1.16-0.42c0.29-0.28,0.43-0.64,0.43-1.11V16.08z M43.92,19.62l-0.41-1.04h-0.06
		c-0.35,0.43-0.71,0.74-1.08,0.92c-0.38,0.17-0.85,0.25-1.46,0.25c-0.73,0-1.32-0.21-1.74-0.63c-0.42-0.42-0.63-1.02-0.63-1.79
		c0-0.81,0.28-1.41,0.85-1.79c0.56-0.39,1.43-0.6,2.56-0.64l1.33-0.04v-0.34c0-0.77-0.39-1.16-1.19-1.16
		c-0.62,0-1.33,0.18-2.16,0.55l-0.69-1.4c0.88-0.46,1.85-0.69,2.93-0.69c1.02,0,1.81,0.22,2.35,0.67c0.55,0.45,0.83,1.12,0.83,2.03
		v5.1H43.92z M37.34,12.74c0,1.06-0.34,1.89-1.01,2.46c-0.67,0.57-1.62,0.85-2.87,0.85h-0.91v3.56h-2.11v-10h3.19
		c1.22,0,2.13,0.27,2.77,0.78C37.03,10.92,37.34,11.71,37.34,12.74 M32.55,14.33h0.7c0.66,0,1.15-0.13,1.47-0.39
		c0.32-0.25,0.48-0.63,0.48-1.12c0-0.5-0.13-0.87-0.41-1.11c-0.27-0.24-0.69-0.35-1.27-0.35h-0.97V14.33z"/>
	<path class="st24" d="M44.77,38.03l-0.42-1.91l-0.57-2.41h-0.03l-1,4.32h-1.6l-1.55-5.46h1.48l0.63,2.42
		c0.1,0.43,0.21,1.03,0.31,1.79h0.03c0.01-0.25,0.07-0.64,0.17-1.18l0.08-0.41l0.67-2.62h1.64l0.64,2.62
		c0.02,0.07,0.04,0.17,0.06,0.31c0.03,0.14,0.06,0.29,0.08,0.45c0.03,0.16,0.05,0.31,0.08,0.47c0.02,0.15,0.03,0.27,0.03,0.36h0.03
		c0.03-0.24,0.08-0.56,0.16-0.97c0.07-0.4,0.13-0.68,0.16-0.82l0.65-2.42h1.46l-1.57,5.46H44.77z M36.21,38.03l-0.42-1.91
		l-0.57-2.41h-0.03l-1,4.32h-1.6l-1.55-5.46h1.48l0.63,2.42c0.1,0.43,0.21,1.03,0.31,1.79h0.03c0.01-0.25,0.07-0.64,0.17-1.18
		l0.08-0.41l0.67-2.62h1.64l0.64,2.62c0.02,0.07,0.04,0.17,0.06,0.31c0.03,0.14,0.06,0.29,0.08,0.45c0.03,0.16,0.05,0.31,0.08,0.47
		c0.02,0.15,0.03,0.27,0.03,0.36h0.03c0.03-0.24,0.08-0.56,0.16-0.97c0.07-0.4,0.13-0.68,0.16-0.82l0.65-2.42h1.46l-1.57,5.46H36.21
		z M27.65,38.03l-0.42-1.91l-0.57-2.41h-0.03l-1,4.32h-1.6l-1.55-5.46h1.48l0.63,2.42c0.1,0.43,0.21,1.03,0.31,1.79h0.03
		c0.01-0.25,0.07-0.64,0.17-1.18l0.08-0.41l0.67-2.62h1.64l0.64,2.62c0.02,0.07,0.04,0.17,0.06,0.31c0.03,0.14,0.06,0.29,0.08,0.45
		c0.03,0.16,0.05,0.31,0.08,0.47c0.02,0.15,0.03,0.27,0.03,0.36h0.03c0.03-0.24,0.08-0.56,0.16-0.97c0.07-0.4,0.13-0.68,0.16-0.82
		l0.65-2.42h1.46l-1.57,5.46H27.65z"/>
	<path class="st24" d="M105.86,38.03h-1.49v-3.19c0-0.39-0.07-0.69-0.2-0.89c-0.13-0.19-0.34-0.29-0.62-0.29
		c-0.38,0-0.66,0.14-0.83,0.42c-0.17,0.28-0.26,0.74-0.26,1.38v2.57h-1.49v-5.46h1.14l0.2,0.7h0.08c0.15-0.25,0.36-0.45,0.64-0.59
		c0.27-0.14,0.59-0.21,0.95-0.21c0.82,0,1.37,0.27,1.66,0.8h0.13c0.15-0.25,0.36-0.45,0.65-0.59c0.28-0.14,0.61-0.21,0.96-0.21
		c0.62,0,1.09,0.16,1.41,0.48c0.32,0.31,0.47,0.82,0.47,1.52v3.56h-1.49v-3.19c0-0.39-0.07-0.69-0.2-0.89
		c-0.13-0.19-0.34-0.29-0.62-0.29c-0.37,0-0.64,0.13-0.82,0.39c-0.18,0.26-0.27,0.67-0.27,1.24V38.03z M99.74,35.29
		c0,0.89-0.23,1.59-0.7,2.09c-0.47,0.5-1.12,0.75-1.96,0.75c-0.52,0-0.98-0.12-1.39-0.35c-0.4-0.22-0.7-0.55-0.92-0.98
		c-0.21-0.43-0.32-0.94-0.32-1.51c0-0.89,0.23-1.58,0.7-2.08c0.46-0.49,1.12-0.74,1.96-0.74c0.52,0,0.99,0.11,1.39,0.34
		c0.4,0.23,0.7,0.56,0.92,0.98C99.63,34.22,99.74,34.72,99.74,35.29 M95.97,35.29c0,0.54,0.09,0.95,0.26,1.22
		c0.18,0.28,0.47,0.42,0.87,0.42c0.4,0,0.68-0.14,0.86-0.41c0.17-0.28,0.26-0.69,0.26-1.23c0-0.54-0.09-0.95-0.27-1.22
		c-0.17-0.27-0.46-0.4-0.86-0.4s-0.68,0.13-0.86,0.4C96.06,34.34,95.97,34.75,95.97,35.29z M91.86,38.13c-1.7,0-2.55-0.93-2.55-2.8
		c0-0.93,0.23-1.64,0.69-2.13c0.47-0.49,1.13-0.73,1.99-0.73c0.63,0,1.2,0.12,1.7,0.37l-0.44,1.15c-0.24-0.09-0.45-0.17-0.65-0.23
		c-0.21-0.06-0.41-0.09-0.61-0.09c-0.77,0-1.16,0.55-1.16,1.65c0,1.07,0.39,1.6,1.16,1.6c0.29,0,0.55-0.04,0.8-0.12
		c0.24-0.07,0.48-0.19,0.73-0.35v1.27c-0.24,0.16-0.49,0.26-0.73,0.32C92.54,38.1,92.23,38.13,91.86,38.13 M86.58,37.33
		c0-0.27,0.08-0.48,0.22-0.62c0.15-0.14,0.36-0.21,0.64-0.21c0.27,0,0.48,0.07,0.63,0.21c0.15,0.15,0.22,0.35,0.22,0.62
		c0,0.26-0.07,0.46-0.22,0.61c-0.15,0.15-0.36,0.22-0.63,0.22c-0.27,0-0.48-0.07-0.63-0.22C86.66,37.8,86.58,37.59,86.58,37.33
		 M82.22,34.36c0,0.29,0.07,0.53,0.2,0.7c0.14,0.17,0.35,0.26,0.62,0.26c0.28,0,0.49-0.09,0.62-0.26c0.13-0.17,0.19-0.41,0.19-0.7
		c0-0.66-0.27-0.99-0.81-0.99C82.49,33.37,82.22,33.7,82.22,34.36 M81.68,38.8c0,0.21,0.1,0.37,0.29,0.49
		c0.2,0.11,0.48,0.17,0.83,0.17c0.54,0,0.95-0.07,1.26-0.22c0.3-0.14,0.45-0.34,0.45-0.6c0-0.2-0.09-0.34-0.27-0.42
		c-0.18-0.08-0.45-0.12-0.83-0.12h-0.77c-0.27,0-0.5,0.07-0.68,0.19C81.77,38.42,81.68,38.59,81.68,38.8z M85.89,32.57v0.76
		l-0.85,0.22c0.16,0.24,0.23,0.52,0.23,0.82c0,0.58-0.2,1.04-0.61,1.37c-0.41,0.33-0.98,0.49-1.7,0.49l-0.27-0.02l-0.22-0.02
		c-0.15,0.12-0.23,0.25-0.23,0.39c0,0.22,0.27,0.32,0.82,0.32h0.93c0.6,0,1.05,0.13,1.37,0.39c0.31,0.26,0.47,0.63,0.47,1.13
		c0,0.64-0.27,1.13-0.8,1.48c-0.53,0.36-1.29,0.53-2.29,0.53c-0.76,0-1.34-0.13-1.75-0.4c-0.4-0.26-0.6-0.63-0.6-1.11
		c0-0.33,0.1-0.6,0.31-0.82c0.2-0.23,0.5-0.39,0.9-0.48c-0.15-0.06-0.29-0.17-0.4-0.32c-0.11-0.15-0.17-0.3-0.17-0.47
		c0-0.21,0.06-0.38,0.18-0.52c0.12-0.14,0.3-0.27,0.52-0.41c-0.28-0.12-0.51-0.32-0.68-0.59c-0.17-0.28-0.25-0.6-0.25-0.97
		c0-0.6,0.19-1.06,0.58-1.38c0.39-0.33,0.94-0.49,1.66-0.49c0.15,0,0.34,0.01,0.55,0.04c0.21,0.03,0.34,0.05,0.4,0.06H85.89z
		 M79.58,38.03h-1.49v-5.46h1.49V38.03z M78.03,31.16c0-0.49,0.27-0.73,0.81-0.73c0.54,0,0.81,0.24,0.81,0.73
		c0,0.23-0.07,0.41-0.2,0.54c-0.14,0.12-0.34,0.19-0.61,0.19C78.3,31.89,78.03,31.64,78.03,31.16z M75.08,35.5l-0.58,0.02
		c-0.43,0.01-0.75,0.09-0.96,0.23c-0.22,0.15-0.32,0.37-0.32,0.66c0,0.42,0.24,0.63,0.72,0.63c0.35,0,0.62-0.1,0.83-0.3
		c0.21-0.2,0.31-0.46,0.31-0.79V35.5z M75.52,38.03l-0.29-0.74h-0.04c-0.25,0.31-0.51,0.53-0.77,0.66
		c-0.27,0.12-0.61,0.18-1.04,0.18c-0.52,0-0.94-0.15-1.24-0.45c-0.3-0.3-0.45-0.73-0.45-1.28c0-0.58,0.2-1.01,0.61-1.28
		c0.4-0.28,1.02-0.43,1.83-0.46l0.95-0.03v-0.24c0-0.55-0.28-0.83-0.85-0.83c-0.44,0-0.95,0.13-1.54,0.39l-0.49-1
		c0.63-0.33,1.32-0.49,2.09-0.49c0.73,0,1.29,0.16,1.68,0.48c0.39,0.32,0.59,0.8,0.59,1.45v3.64H75.52z M69.04,35.5l-0.58,0.02
		c-0.43,0.01-0.75,0.09-0.96,0.23c-0.22,0.15-0.32,0.37-0.32,0.66c0,0.42,0.24,0.63,0.72,0.63c0.35,0,0.62-0.1,0.83-0.3
		c0.21-0.2,0.31-0.46,0.31-0.79V35.5z M69.48,38.03l-0.29-0.74h-0.04c-0.25,0.31-0.51,0.53-0.77,0.66
		c-0.27,0.12-0.61,0.18-1.04,0.18c-0.52,0-0.94-0.15-1.24-0.45c-0.3-0.3-0.45-0.73-0.45-1.28c0-0.58,0.2-1.01,0.61-1.28
		c0.4-0.28,1.02-0.43,1.83-0.46l0.95-0.03v-0.24c0-0.55-0.28-0.83-0.85-0.83c-0.44,0-0.95,0.13-1.54,0.39l-0.49-1
		c0.63-0.33,1.32-0.49,2.09-0.49c0.73,0,1.29,0.16,1.68,0.48c0.39,0.32,0.59,0.8,0.59,1.45v3.64H69.48z M63.97,36.94
		c0.26,0,0.57-0.06,0.94-0.17v1.11c-0.37,0.17-0.83,0.25-1.37,0.25c-0.59,0-1.03-0.15-1.3-0.45c-0.27-0.3-0.41-0.76-0.41-1.36v-2.63
		h-0.71v-0.63l0.82-0.5l0.43-1.15h0.95v1.16h1.53v1.12h-1.53v2.63c0,0.21,0.06,0.37,0.18,0.47C63.62,36.89,63.78,36.94,63.97,36.94
		 M58.66,35.5l-0.58,0.02c-0.43,0.01-0.75,0.09-0.96,0.23c-0.22,0.15-0.32,0.37-0.32,0.66c0,0.42,0.24,0.63,0.72,0.63
		c0.35,0,0.62-0.1,0.83-0.3c0.21-0.2,0.31-0.46,0.31-0.79V35.5z M59.1,38.03l-0.29-0.74h-0.04c-0.25,0.31-0.51,0.53-0.77,0.66
		c-0.27,0.12-0.61,0.18-1.04,0.18c-0.52,0-0.94-0.15-1.24-0.45c-0.3-0.3-0.45-0.73-0.45-1.28c0-0.58,0.2-1.01,0.61-1.28
		c0.4-0.28,1.02-0.43,1.83-0.46l0.95-0.03v-0.24c0-0.55-0.28-0.83-0.85-0.83c-0.44,0-0.95,0.13-1.54,0.39l-0.49-1
		c0.63-0.33,1.32-0.49,2.09-0.49c0.73,0,1.29,0.16,1.68,0.48c0.39,0.32,0.59,0.8,0.59,1.45v3.64H59.1z M53.59,36.94
		c0.26,0,0.57-0.06,0.94-0.17v1.11c-0.37,0.17-0.83,0.25-1.37,0.25c-0.59,0-1.03-0.15-1.3-0.45c-0.27-0.3-0.41-0.76-0.41-1.36v-2.63
		h-0.71v-0.63l0.82-0.5l0.43-1.15h0.95v1.16h1.53v1.12h-1.53v2.63c0,0.21,0.06,0.37,0.18,0.47C53.24,36.89,53.4,36.94,53.59,36.94
		 M48.23,37.33c0-0.27,0.08-0.48,0.22-0.62c0.15-0.14,0.36-0.21,0.64-0.21c0.27,0,0.48,0.07,0.63,0.21
		c0.15,0.15,0.22,0.35,0.22,0.62c0,0.26-0.07,0.46-0.22,0.61c-0.15,0.15-0.36,0.22-0.63,0.22c-0.27,0-0.48-0.07-0.63-0.22
		C48.31,37.8,48.23,37.59,48.23,37.33"/>
	<path class="st25" d="M37.11,49.84c0.37,0,0.67-0.11,0.89-0.34c0.22-0.22,0.32-0.53,0.32-0.93v-0.38l-0.6,0.02
		c-0.48,0.02-0.83,0.1-1.04,0.24c-0.22,0.14-0.32,0.37-0.32,0.66c0,0.23,0.07,0.42,0.2,0.54C36.69,49.78,36.88,49.84,37.11,49.84
		 M38.48,50.3l-0.12-0.61h-0.03c-0.2,0.26-0.39,0.45-0.6,0.54c-0.19,0.1-0.44,0.14-0.74,0.14c-0.39,0-0.71-0.11-0.93-0.33
		c-0.22-0.22-0.34-0.53-0.34-0.94c0-0.86,0.64-1.32,1.93-1.36l0.68-0.02v-0.26c0-0.34-0.07-0.58-0.2-0.74
		c-0.13-0.16-0.35-0.24-0.65-0.24c-0.33,0-0.71,0.11-1.12,0.33l-0.19-0.5c0.19-0.11,0.41-0.21,0.65-0.27c0.23-0.06,0.47-0.1,0.7-0.1
		c0.48,0,0.83,0.11,1.06,0.34c0.23,0.23,0.34,0.59,0.34,1.1v2.92H38.48z M34.09,44.86c0-0.15,0.04-0.26,0.1-0.33
		c0.07-0.07,0.15-0.1,0.25-0.1c0.1,0,0.18,0.03,0.25,0.1c0.07,0.07,0.1,0.18,0.1,0.33c0,0.14-0.04,0.26-0.1,0.32
		c-0.07,0.07-0.16,0.11-0.25,0.11c-0.1,0-0.19-0.04-0.25-0.11C34.13,45.11,34.09,45,34.09,44.86 M34.75,50.3h-0.6v-4.28h0.6V50.3z
		 M31.28,50.3l-1.51-4.28h0.65l0.86,2.54c0.19,0.59,0.31,0.98,0.34,1.16h0.03c0.03-0.14,0.11-0.42,0.25-0.86
		c0.14-0.44,0.46-1.38,0.95-2.84h0.65l-1.51,4.28H31.28z M24.09,46.02h0.65l0.87,2.44c0.19,0.56,0.31,0.96,0.36,1.21h0.03
		c0.03-0.14,0.1-0.36,0.2-0.68c0.1-0.33,0.42-1.31,0.98-2.97h0.65l-1.71,4.87c-0.17,0.48-0.36,0.82-0.6,1.02
		c-0.22,0.2-0.51,0.3-0.83,0.3c-0.19,0-0.36-0.02-0.54-0.06v-0.52c0.13,0.03,0.28,0.05,0.45,0.05c0.42,0,0.71-0.25,0.89-0.75
		l0.22-0.61L24.09,46.02z M21.67,49.84c0.37,0,0.67-0.11,0.89-0.34c0.22-0.22,0.32-0.53,0.32-0.93v-0.38l-0.6,0.02
		c-0.48,0.02-0.83,0.1-1.04,0.24c-0.22,0.14-0.32,0.37-0.32,0.66c0,0.23,0.07,0.42,0.2,0.54C21.24,49.78,21.43,49.84,21.67,49.84
		 M23.03,50.3l-0.12-0.61h-0.03c-0.2,0.26-0.39,0.45-0.6,0.54c-0.19,0.1-0.44,0.14-0.74,0.14c-0.39,0-0.71-0.11-0.93-0.33
		c-0.22-0.22-0.33-0.53-0.33-0.94c0-0.86,0.64-1.32,1.93-1.36l0.68-0.02v-0.26c0-0.34-0.07-0.58-0.2-0.74
		c-0.13-0.16-0.35-0.24-0.65-0.24c-0.33,0-0.71,0.11-1.12,0.33l-0.19-0.5c0.19-0.11,0.41-0.21,0.65-0.27c0.23-0.06,0.47-0.1,0.7-0.1
		c0.48,0,0.83,0.11,1.06,0.34c0.23,0.23,0.34,0.59,0.34,1.1v2.92H23.03z M16.8,47.48h0.56c0.54,0,0.95-0.1,1.19-0.29
		c0.24-0.18,0.36-0.5,0.36-0.91c0-0.38-0.12-0.66-0.34-0.84c-0.23-0.19-0.6-0.28-1.08-0.28H16.8V47.48z M19.56,46.25
		c0,0.58-0.19,1.02-0.55,1.34c-0.37,0.3-0.89,0.46-1.58,0.46H16.8v2.25h-0.62v-5.71h1.38C18.9,44.59,19.56,45.14,19.56,46.25z"/>
	<path class="st25" d="M89.34,46.23c0.18,0,0.34,0.02,0.48,0.05l-0.08,0.6c-0.17-0.04-0.32-0.06-0.45-0.06
		c-0.33,0-0.61,0.14-0.84,0.42c-0.23,0.28-0.35,0.63-0.35,1.05v2.3h-0.61v-4.28H88l0.07,0.79h0.03c0.15-0.28,0.33-0.5,0.54-0.65
		C88.86,46.3,89.08,46.23,89.34,46.23 M85.13,45.39c-0.59,0-1.06,0.21-1.41,0.62c-0.34,0.42-0.51,0.99-0.51,1.72
		c0,0.74,0.17,1.33,0.5,1.73c0.33,0.41,0.8,0.62,1.42,0.62c0.38,0,0.81-0.07,1.29-0.22v0.58c-0.37,0.15-0.83,0.22-1.38,0.22
		c-0.79,0-1.41-0.26-1.84-0.77c-0.43-0.51-0.65-1.23-0.65-2.18c0-0.58,0.11-1.1,0.31-1.54c0.21-0.45,0.51-0.78,0.91-1.02
		c0.39-0.24,0.86-0.36,1.39-0.36c0.57,0,1.06,0.11,1.48,0.33l-0.27,0.57C85.94,45.49,85.53,45.39,85.13,45.39"/>
	<path class="st25" d="M116.7,46.23c0.18,0,0.34,0.02,0.48,0.05l-0.08,0.6c-0.17-0.04-0.32-0.06-0.45-0.06
		c-0.33,0-0.61,0.14-0.84,0.42c-0.23,0.28-0.35,0.63-0.35,1.05v2.3h-0.61v-4.28h0.51l0.07,0.79h0.03c0.15-0.28,0.33-0.5,0.54-0.65
		C116.21,46.3,116.44,46.23,116.7,46.23 M111.75,50.13c0.38,0,0.68-0.11,0.9-0.34c0.22-0.22,0.33-0.53,0.33-0.93v-0.38l-0.61,0.02
		c-0.48,0.02-0.84,0.1-1.05,0.24c-0.22,0.14-0.33,0.37-0.33,0.66c0,0.23,0.07,0.42,0.2,0.54C111.32,50.07,111.5,50.13,111.75,50.13
		 M113.13,50.59l-0.12-0.61h-0.03c-0.2,0.26-0.4,0.45-0.61,0.54c-0.2,0.1-0.45,0.14-0.75,0.14c-0.4,0-0.72-0.11-0.95-0.33
		c-0.23-0.22-0.34-0.53-0.34-0.94c0-0.86,0.65-1.32,1.96-1.36l0.69-0.02v-0.26c0-0.34-0.07-0.58-0.2-0.74
		c-0.14-0.16-0.36-0.24-0.66-0.24c-0.33,0-0.72,0.11-1.14,0.33l-0.19-0.5c0.2-0.11,0.42-0.21,0.66-0.27c0.23-0.06,0.48-0.1,0.71-0.1
		c0.48,0,0.84,0.11,1.07,0.34c0.23,0.23,0.35,0.59,0.35,1.1v2.92H113.13z M108.27,45.39c-0.59,0-1.06,0.21-1.41,0.62
		c-0.34,0.42-0.51,0.99-0.51,1.72c0,0.74,0.17,1.33,0.5,1.73c0.33,0.41,0.8,0.62,1.42,0.62c0.38,0,0.81-0.07,1.29-0.22v0.58
		c-0.37,0.15-0.83,0.22-1.38,0.22c-0.79,0-1.41-0.26-1.84-0.77c-0.43-0.51-0.65-1.23-0.65-2.18c0-0.58,0.11-1.1,0.31-1.54
		c0.21-0.45,0.51-0.78,0.91-1.02c0.39-0.24,0.85-0.36,1.38-0.36c0.57,0,1.06,0.11,1.48,0.33l-0.26,0.57
		C109.09,45.49,108.68,45.39,108.27,45.39 M102.54,50.13c0.11,0,0.21-0.01,0.31-0.02c0.11-0.02,0.18-0.04,0.24-0.06v0.5
		c-0.07,0.03-0.17,0.06-0.3,0.09c-0.13,0.02-0.24,0.03-0.35,0.03c-0.78,0-1.17-0.44-1.17-1.31v-2.54h-0.58V46.5l0.58-0.27l0.26-0.91
		h0.36v0.99h1.17v0.5h-1.17v2.52c0,0.26,0.06,0.46,0.17,0.59C102.17,50.06,102.33,50.13,102.54,50.13 M99.26,45.15
		c0-0.15,0.04-0.26,0.11-0.33s0.15-0.1,0.26-0.1c0.1,0,0.18,0.03,0.26,0.1c0.07,0.07,0.11,0.18,0.11,0.33
		c0,0.14-0.04,0.26-0.11,0.32c-0.08,0.07-0.16,0.11-0.26,0.11c-0.11,0-0.19-0.04-0.26-0.11C99.3,45.41,99.26,45.29,99.26,45.15
		 M99.93,50.59h-0.61v-4.28h0.61V50.59z M96.2,50.13c0.42,0,0.73-0.12,0.92-0.36c0.19-0.24,0.28-0.63,0.28-1.17v-0.14
		c0-0.61-0.1-1.04-0.29-1.3c-0.19-0.26-0.49-0.39-0.92-0.39c-0.36,0-0.64,0.14-0.82,0.44c-0.19,0.3-0.29,0.71-0.29,1.26
		s0.1,0.96,0.29,1.24C95.56,49.98,95.84,50.13,96.2,50.13 M97.43,50.01H97.4c-0.28,0.44-0.7,0.66-1.27,0.66
		c-0.53,0-0.94-0.19-1.23-0.58c-0.3-0.38-0.45-0.93-0.45-1.63c0-0.7,0.15-1.26,0.45-1.65c0.3-0.39,0.7-0.58,1.23-0.58
		c0.55,0,0.97,0.21,1.26,0.63h0.05l-0.02-0.31l-0.02-0.3v-1.74h0.61v6.08h-0.5L97.43,50.01z M91.97,46.77
		c-0.33,0-0.58,0.11-0.78,0.34c-0.19,0.22-0.3,0.53-0.34,0.93h2.12c0-0.41-0.08-0.72-0.26-0.94C92.54,46.88,92.29,46.77,91.97,46.77
		 M92.14,50.67c-0.6,0-1.07-0.19-1.41-0.58c-0.35-0.39-0.52-0.93-0.52-1.61c0-0.7,0.16-1.24,0.48-1.65
		c0.32-0.41,0.75-0.61,1.29-0.61c0.51,0,0.91,0.18,1.2,0.53c0.3,0.35,0.45,0.82,0.45,1.4v0.41h-2.79c0.02,0.5,0.14,0.88,0.36,1.14
		c0.23,0.26,0.54,0.39,0.96,0.39c0.44,0,0.87-0.1,1.29-0.29v0.58c-0.22,0.1-0.42,0.17-0.61,0.22
		C92.65,50.65,92.41,50.67,92.14,50.67z"/>
	<path class="st25" d="M119.31,50.13c0.42,0,0.73-0.12,0.92-0.36c0.19-0.24,0.28-0.63,0.28-1.17v-0.14c0-0.61-0.1-1.04-0.29-1.3
		c-0.19-0.26-0.49-0.39-0.92-0.39c-0.36,0-0.64,0.14-0.82,0.44c-0.19,0.3-0.29,0.71-0.29,1.26s0.1,0.96,0.29,1.24
		C118.67,49.98,118.95,50.13,119.31,50.13 M120.54,50.01h-0.03c-0.28,0.44-0.7,0.66-1.27,0.66c-0.53,0-0.94-0.19-1.23-0.58
		c-0.3-0.38-0.45-0.93-0.45-1.63c0-0.7,0.15-1.26,0.45-1.65c0.29-0.39,0.7-0.58,1.23-0.58c0.55,0,0.97,0.21,1.26,0.63h0.05
		l-0.02-0.31l-0.02-0.3v-1.74h0.61v6.08h-0.5L120.54,50.01z"/>
	<path class="st25" d="M118.93,58.68c0,0.3,0.08,0.53,0.24,0.68c0.16,0.15,0.39,0.23,0.67,0.23c0.61,0,0.9-0.31,0.9-0.92
		c0-0.65-0.3-0.97-0.91-0.97c-0.29,0-0.51,0.08-0.67,0.25C119,58.11,118.93,58.36,118.93,58.68 M118.59,62.31
		c0,0.23,0.09,0.41,0.28,0.53c0.18,0.12,0.45,0.18,0.79,0.18c0.51,0,0.89-0.08,1.14-0.24c0.25-0.17,0.37-0.38,0.37-0.66
		c0-0.23-0.07-0.39-0.2-0.48c-0.14-0.09-0.39-0.14-0.76-0.14h-0.73c-0.28,0-0.49,0.07-0.65,0.21
		C118.68,61.84,118.59,62.04,118.59,62.31z M121.82,57.31v0.41l-0.75,0.1c0.07,0.09,0.13,0.21,0.18,0.36
		c0.06,0.14,0.08,0.31,0.08,0.5c0,0.42-0.14,0.75-0.41,1c-0.26,0.25-0.64,0.38-1.11,0.38c-0.12,0-0.23-0.01-0.34-0.03
		c-0.26,0.14-0.39,0.33-0.39,0.55c0,0.12,0.05,0.2,0.14,0.26c0.09,0.06,0.25,0.09,0.47,0.09h0.72c0.44,0,0.78,0.1,1.01,0.3
		c0.23,0.19,0.35,0.48,0.35,0.85c0,0.47-0.17,0.83-0.54,1.08c-0.36,0.26-0.89,0.38-1.57,0.38c-0.53,0-0.94-0.1-1.23-0.31
		c-0.29-0.21-0.43-0.5-0.43-0.88c0-0.26,0.08-0.49,0.23-0.68c0.16-0.18,0.39-0.32,0.67-0.38c-0.1-0.05-0.19-0.13-0.26-0.23
		c-0.07-0.1-0.11-0.22-0.11-0.36c0-0.16,0.04-0.3,0.12-0.42c0.08-0.11,0.2-0.22,0.37-0.34c-0.21-0.1-0.38-0.25-0.51-0.46
		c-0.13-0.22-0.2-0.47-0.2-0.75c0-0.47,0.14-0.83,0.4-1.08c0.27-0.26,0.64-0.38,1.13-0.38c0.21,0,0.41,0.02,0.58,0.08H121.82z
		 M116.63,61.59v-2.77c0-0.35-0.07-0.61-0.22-0.78c-0.15-0.17-0.39-0.26-0.71-0.26c-0.42,0-0.73,0.12-0.93,0.36
		c-0.2,0.25-0.3,0.65-0.3,1.2v2.25h-0.61v-4.28h0.5l0.1,0.58h0.03c0.13-0.21,0.3-0.38,0.53-0.49c0.23-0.12,0.48-0.18,0.76-0.18
		c0.49,0,0.86,0.12,1.1,0.38c0.24,0.25,0.36,0.64,0.36,1.19v2.79H116.63z M111.9,56.15c0-0.15,0.04-0.26,0.11-0.33
		c0.07-0.07,0.15-0.1,0.26-0.1c0.1,0,0.18,0.03,0.26,0.1c0.07,0.07,0.11,0.18,0.11,0.33c0,0.14-0.04,0.26-0.11,0.32
		c-0.08,0.07-0.16,0.11-0.26,0.11c-0.11,0-0.19-0.04-0.26-0.11C111.93,56.4,111.9,56.29,111.9,56.15 M112.56,61.59h-0.61v-4.28h0.61
		V61.59z M108.58,59.4c0.11-0.16,0.27-0.37,0.48-0.62l1.31-1.46h0.73l-1.64,1.82l1.76,2.46h-0.74l-1.43-2.02l-0.46,0.42v1.6h-0.61
		v-6.08h0.61v3.22c0,0.14-0.01,0.36-0.03,0.66H108.58z M106.1,61.59v-2.77c0-0.35-0.07-0.61-0.22-0.78
		c-0.15-0.17-0.39-0.26-0.71-0.26c-0.42,0-0.73,0.12-0.93,0.36c-0.2,0.25-0.3,0.65-0.3,1.2v2.25h-0.61v-4.28h0.5l0.1,0.58h0.03
		c0.13-0.21,0.3-0.38,0.53-0.49c0.23-0.12,0.48-0.18,0.76-0.18c0.49,0,0.86,0.12,1.11,0.38c0.24,0.25,0.36,0.64,0.36,1.19v2.79
		H106.1z M100.23,61.13c0.38,0,0.68-0.11,0.9-0.34c0.22-0.22,0.33-0.53,0.33-0.93v-0.38l-0.61,0.02c-0.48,0.02-0.84,0.1-1.05,0.24
		c-0.22,0.14-0.33,0.37-0.33,0.66c0,0.23,0.07,0.42,0.2,0.54C99.8,61.07,99.99,61.13,100.23,61.13 M101.61,61.59l-0.12-0.61h-0.03
		c-0.2,0.26-0.4,0.45-0.61,0.54c-0.2,0.1-0.45,0.14-0.75,0.14c-0.4,0-0.72-0.11-0.95-0.33c-0.23-0.22-0.34-0.53-0.34-0.94
		c0-0.86,0.65-1.32,1.96-1.36l0.69-0.02v-0.26c0-0.34-0.07-0.58-0.2-0.74c-0.14-0.16-0.36-0.24-0.66-0.24
		c-0.33,0-0.72,0.11-1.14,0.33l-0.19-0.5c0.2-0.11,0.42-0.21,0.66-0.27c0.23-0.06,0.48-0.1,0.71-0.1c0.48,0,0.84,0.11,1.07,0.34
		c0.23,0.23,0.35,0.59,0.35,1.1v2.92H101.61z M94.94,58.88v2.14h1.13c0.44,0,0.76-0.09,0.98-0.27c0.22-0.18,0.33-0.46,0.33-0.83
		c0-0.35-0.11-0.62-0.34-0.78c-0.22-0.17-0.57-0.25-1.03-0.25H94.94z M94.94,58.32h1.04c0.45,0,0.76-0.07,0.95-0.22
		c0.2-0.14,0.3-0.39,0.3-0.74c0-0.32-0.11-0.55-0.33-0.69c-0.22-0.14-0.56-0.22-1.04-0.22h-0.92V58.32z M94.31,55.88h1.53
		c0.72,0,1.23,0.11,1.55,0.34c0.33,0.23,0.48,0.59,0.48,1.08c0,0.34-0.09,0.62-0.26,0.84c-0.18,0.22-0.44,0.36-0.79,0.42v0.04
		c0.82,0.14,1.23,0.6,1.23,1.37c0,0.51-0.17,0.9-0.49,1.19c-0.33,0.29-0.78,0.43-1.37,0.43h-1.88V55.88z M90.89,61.13
		c0.11,0,0.21-0.01,0.31-0.02c0.11-0.02,0.18-0.04,0.24-0.06v0.5c-0.07,0.03-0.17,0.06-0.3,0.09c-0.13,0.02-0.24,0.03-0.35,0.03
		c-0.78,0-1.17-0.44-1.17-1.31v-2.54h-0.58V57.5l0.58-0.27l0.26-0.91h0.36v0.99h1.17v0.5h-1.17v2.52c0,0.26,0.06,0.46,0.17,0.59
		C90.53,61.06,90.69,61.13,90.89,61.13 M86.88,57.77c-0.33,0-0.58,0.11-0.78,0.34c-0.19,0.22-0.3,0.53-0.34,0.93h2.12
		c0-0.41-0.08-0.72-0.26-0.94C87.45,57.88,87.2,57.77,86.88,57.77 M87.05,61.67c-0.6,0-1.07-0.19-1.41-0.58
		c-0.35-0.39-0.52-0.93-0.52-1.61c0-0.7,0.16-1.24,0.48-1.65c0.32-0.41,0.75-0.61,1.29-0.61c0.51,0,0.91,0.18,1.2,0.53
		c0.3,0.35,0.45,0.82,0.45,1.4v0.41h-2.79c0.02,0.5,0.14,0.88,0.36,1.14c0.23,0.26,0.54,0.39,0.96,0.39c0.44,0,0.87-0.1,1.29-0.29
		v0.58c-0.22,0.1-0.42,0.17-0.61,0.22C87.55,61.64,87.32,61.67,87.05,61.67z M83.94,61.59h-0.72l-2.95-4.79h-0.03
		c0.04,0.56,0.06,1.07,0.06,1.54v3.25h-0.58v-5.71h0.71l2.94,4.78h0.03c-0.01-0.07-0.02-0.3-0.03-0.68
		c-0.02-0.38-0.02-0.66-0.02-0.82v-3.28h0.59V61.59z"/>
	<path class="st25" d="M59.34,56.75c0.18,0,0.34,0.02,0.48,0.05l-0.08,0.6c-0.16-0.04-0.31-0.06-0.44-0.06
		c-0.32,0-0.6,0.14-0.83,0.42c-0.23,0.28-0.34,0.63-0.34,1.05v2.3h-0.6v-4.28h0.5l0.07,0.79h0.03c0.15-0.28,0.33-0.5,0.54-0.65
		C58.86,56.82,59.09,56.75,59.34,56.75 M54.47,60.65c0.37,0,0.67-0.11,0.89-0.34c0.22-0.22,0.32-0.53,0.32-0.93V59l-0.6,0.02
		c-0.48,0.02-0.83,0.1-1.04,0.24c-0.22,0.14-0.32,0.37-0.32,0.66c0,0.23,0.07,0.42,0.2,0.54C54.04,60.59,54.23,60.65,54.47,60.65
		 M55.83,61.11l-0.12-0.61h-0.03c-0.2,0.26-0.39,0.45-0.6,0.54c-0.19,0.1-0.44,0.14-0.74,0.14c-0.39,0-0.71-0.11-0.93-0.33
		c-0.22-0.22-0.34-0.53-0.34-0.94c0-0.86,0.64-1.32,1.93-1.36l0.68-0.02v-0.26c0-0.34-0.07-0.58-0.2-0.74
		c-0.13-0.16-0.35-0.24-0.65-0.24c-0.33,0-0.71,0.11-1.12,0.33l-0.19-0.5c0.19-0.11,0.41-0.21,0.65-0.27c0.23-0.06,0.47-0.1,0.7-0.1
		c0.48,0,0.83,0.11,1.06,0.34c0.23,0.23,0.34,0.59,0.34,1.1v2.92H55.83z M51.05,55.91c-0.58,0-1.04,0.21-1.39,0.62
		c-0.34,0.42-0.51,0.99-0.51,1.72c0,0.74,0.16,1.33,0.49,1.73c0.32,0.41,0.79,0.62,1.39,0.62c0.37,0,0.8-0.07,1.27-0.22v0.58
		c-0.37,0.15-0.82,0.22-1.36,0.22c-0.78,0-1.39-0.26-1.81-0.77c-0.42-0.51-0.64-1.23-0.64-2.18c0-0.58,0.1-1.1,0.31-1.54
		c0.21-0.45,0.51-0.78,0.89-1.02c0.38-0.24,0.84-0.36,1.36-0.36c0.56,0,1.04,0.11,1.46,0.33l-0.26,0.57
		C51.85,56.01,51.45,55.91,51.05,55.91 M45.4,60.65c0.1,0,0.21-0.01,0.31-0.02c0.1-0.02,0.18-0.04,0.24-0.06v0.5
		c-0.07,0.03-0.16,0.06-0.29,0.09c-0.13,0.02-0.24,0.03-0.34,0.03c-0.77,0-1.15-0.44-1.15-1.31v-2.54h-0.57v-0.31l0.57-0.27
		l0.25-0.91h0.35v0.99h1.15v0.5h-1.15v2.52c0,0.26,0.06,0.46,0.17,0.59C45.05,60.58,45.2,60.65,45.4,60.65 M42.18,55.67
		c0-0.15,0.04-0.26,0.1-0.33c0.07-0.07,0.15-0.1,0.25-0.1c0.1,0,0.18,0.03,0.25,0.1c0.07,0.07,0.1,0.18,0.1,0.33
		c0,0.14-0.04,0.26-0.1,0.32c-0.07,0.07-0.16,0.11-0.25,0.11c-0.1,0-0.19-0.04-0.25-0.11C42.22,55.92,42.18,55.81,42.18,55.67
		 M42.84,61.11h-0.6v-4.28h0.6V61.11z M39.43,57.3c-0.41,0-0.71,0.13-0.89,0.38c-0.19,0.25-0.28,0.68-0.28,1.28
		c0,0.6,0.1,1.03,0.28,1.29c0.19,0.26,0.48,0.39,0.89,0.39c0.37,0,0.65-0.14,0.83-0.44c0.18-0.29,0.27-0.7,0.27-1.25
		c0-0.56-0.09-0.98-0.27-1.25C40.09,57.44,39.82,57.3,39.43,57.3 M39.52,56.76c0.52,0,0.93,0.19,1.22,0.58
		c0.29,0.38,0.43,0.93,0.43,1.63c0,0.7-0.14,1.25-0.43,1.64c-0.3,0.39-0.7,0.58-1.22,0.58c-0.26,0-0.5-0.05-0.71-0.15
		c-0.22-0.1-0.39-0.26-0.54-0.48h-0.04l-0.13,0.55h-0.43v-6.08h0.6v1.48c0,0.33-0.01,0.62-0.03,0.89h0.03
		C38.55,56.97,38.97,56.76,39.52,56.76z M35.01,57.29c-0.32,0-0.57,0.11-0.77,0.34c-0.19,0.22-0.3,0.53-0.33,0.93h2.09
		c0-0.41-0.08-0.72-0.25-0.94C35.57,57.4,35.32,57.29,35.01,57.29 M35.17,61.19c-0.59,0-1.05-0.19-1.39-0.58
		c-0.34-0.39-0.51-0.93-0.51-1.61c0-0.7,0.16-1.24,0.48-1.65c0.31-0.41,0.74-0.61,1.27-0.61c0.5,0,0.89,0.18,1.18,0.53
		c0.29,0.35,0.44,0.82,0.44,1.4v0.41h-2.75c0.01,0.5,0.13,0.88,0.36,1.14c0.22,0.26,0.54,0.39,0.95,0.39c0.43,0,0.86-0.1,1.27-0.29
		v0.58c-0.22,0.1-0.42,0.17-0.6,0.22C35.67,61.16,35.44,61.19,35.17,61.19z M31.74,58.22c0-0.74-0.17-1.3-0.52-1.68
		c-0.35-0.38-0.86-0.57-1.55-0.57h-0.9v4.56h0.75c0.74,0,1.3-0.19,1.66-0.58C31.55,59.56,31.74,58.98,31.74,58.22 M32.39,58.2
		c0,0.94-0.24,1.66-0.71,2.16c-0.48,0.5-1.16,0.75-2.06,0.75h-1.47V55.4h1.63c0.83,0,1.47,0.25,1.93,0.74
		C32.16,56.63,32.39,57.32,32.39,58.2z"/>
	<path class="st25" d="M61.92,60.64c0.42,0,0.71-0.12,0.9-0.36c0.19-0.24,0.28-0.63,0.28-1.17v-0.14c0-0.61-0.1-1.04-0.28-1.3
		c-0.19-0.26-0.48-0.39-0.9-0.39c-0.35,0-0.63,0.14-0.81,0.44c-0.19,0.3-0.28,0.71-0.28,1.26s0.1,0.96,0.28,1.24
		C61.28,60.5,61.56,60.64,61.92,60.64 M63.12,60.53h-0.03c-0.28,0.44-0.69,0.66-1.25,0.66c-0.52,0-0.92-0.19-1.21-0.58
		c-0.29-0.38-0.44-0.93-0.44-1.63c0-0.7,0.15-1.26,0.44-1.65c0.29-0.39,0.69-0.58,1.21-0.58c0.54,0,0.95,0.21,1.24,0.63h0.04
		l-0.02-0.31l-0.01-0.3v-1.74h0.6v6.08H63.2L63.12,60.53z"/>
	<path class="st25" d="M22.62,55.36c-0.72,0.79-1.38,1.6-1.98,2.4c-0.6,0.8-1.12,1.58-1.56,2.34c-0.04,0.06-0.08,0.14-0.13,0.24
		c-0.15,0.28-0.39,0.42-0.73,0.42c-0.16,0-0.26-0.02-0.31-0.04c-0.05-0.02-0.1-0.09-0.16-0.2c-0.13-0.26-0.24-0.55-0.33-0.88
		c-0.1-0.33-0.14-0.56-0.14-0.69c0-0.07,0.02-0.13,0.04-0.17c0.02-0.04,0.07-0.09,0.15-0.14c0.1-0.07,0.2-0.12,0.32-0.16
		c0.12-0.04,0.22-0.06,0.3-0.06c0.07,0,0.15,0.13,0.24,0.39c0.02,0.02,0.02,0.04,0.02,0.05c0.01,0.01,0.01,0.03,0.02,0.05
		c0.09,0.25,0.16,0.38,0.22,0.38c0.05,0,0.25-0.28,0.61-0.85c0.35-0.57,0.71-1.11,1.08-1.6c0.25-0.35,0.48-0.64,0.68-0.88
		c0.2-0.24,0.35-0.39,0.44-0.44c0.13-0.07,0.3-0.14,0.5-0.19c0.21-0.05,0.44-0.09,0.69-0.11L22.62,55.36z"/>
	<rect x="16.19" y="54.69" class="st26" width="7.01" height="7.01"/>
	<path class="st25" d="M74.21,55.36c-0.72,0.79-1.38,1.6-1.98,2.4c-0.6,0.8-1.12,1.58-1.56,2.34c-0.04,0.06-0.08,0.14-0.13,0.24
		c-0.15,0.28-0.39,0.42-0.73,0.42c-0.16,0-0.26-0.02-0.31-0.04c-0.05-0.02-0.1-0.09-0.16-0.2c-0.13-0.26-0.24-0.55-0.33-0.88
		c-0.1-0.33-0.14-0.56-0.14-0.69c0-0.07,0.01-0.13,0.04-0.17c0.02-0.04,0.07-0.09,0.15-0.14c0.1-0.07,0.2-0.12,0.32-0.16
		c0.12-0.04,0.22-0.06,0.3-0.06c0.07,0,0.15,0.13,0.24,0.39c0.02,0.02,0.02,0.04,0.02,0.05c0.01,0.01,0.01,0.03,0.02,0.05
		c0.09,0.25,0.16,0.38,0.22,0.38c0.05,0,0.25-0.28,0.61-0.85c0.35-0.57,0.71-1.11,1.08-1.6c0.25-0.35,0.48-0.64,0.68-0.88
		c0.2-0.24,0.35-0.39,0.44-0.44c0.13-0.07,0.3-0.14,0.5-0.19c0.21-0.05,0.44-0.09,0.69-0.11L74.21,55.36z"/>
	<rect x="67.78" y="54.69" class="st26" width="7.01" height="7.01"/>
	<path class="st25" d="M74.21,44.89c-0.72,0.79-1.38,1.6-1.98,2.4c-0.6,0.8-1.12,1.58-1.56,2.34c-0.04,0.06-0.08,0.14-0.13,0.24
		c-0.15,0.28-0.39,0.42-0.73,0.42c-0.16,0-0.26-0.02-0.31-0.04c-0.05-0.02-0.1-0.09-0.16-0.2c-0.13-0.26-0.24-0.55-0.33-0.88
		c-0.1-0.33-0.14-0.56-0.14-0.69c0-0.07,0.01-0.13,0.04-0.17c0.02-0.04,0.07-0.09,0.15-0.14c0.1-0.07,0.2-0.12,0.32-0.16
		c0.12-0.04,0.22-0.06,0.3-0.06c0.07,0,0.15,0.13,0.24,0.39c0.02,0.02,0.02,0.04,0.02,0.05c0.01,0.01,0.01,0.03,0.02,0.05
		c0.09,0.25,0.16,0.38,0.22,0.38c0.05,0,0.25-0.28,0.61-0.85c0.35-0.57,0.71-1.11,1.08-1.6c0.25-0.35,0.48-0.64,0.68-0.88
		c0.2-0.24,0.35-0.39,0.44-0.44c0.13-0.07,0.3-0.14,0.5-0.19c0.21-0.05,0.44-0.09,0.69-0.11L74.21,44.89z"/>
	<rect x="67.78" y="44.22" class="st26" width="7.01" height="7.01"/>
	<path class="st27" d="M125.73,11.43l-1.93,3.76l0.91,0.91l2.69-1.48l-1.51,2.67l0.9,0.91l3.81-1.86l-0.81-0.81L127.14,17l1.5-2.65
		l-0.9-0.91l-2.7,1.47l1.58-2.6L125.73,11.43z M122.6,10.41c0.42-0.37,0.83-0.4,1.11-0.12c0.32,0.32,0.26,0.69-0.14,1.1L122.6,10.41
		z M123.43,13.02l-0.73-0.73c-0.33,0.21-0.62,0.18-0.89-0.09c-0.34-0.35-0.27-0.77,0.24-1.28l1.83,1.84
		c0.07-0.06,0.13-0.12,0.19-0.18c0.95-0.95,1.02-1.94,0.22-2.74c-0.86-0.86-1.9-0.83-2.88,0.14c-0.93,0.92-0.97,1.94-0.14,2.78
		C121.99,13.48,122.79,13.57,123.43,13.02z M115.82,7.15l0.78,0.78l3.38-3.36l-1.8,4.95l1.2,1.21l4.09-4.06l-0.78-0.78l-3.29,3.26
		l1.76-4.8l-1.25-1.26L115.82,7.15z"/>
	<path class="st25" d="M49.32,44.89c-0.72,0.79-1.38,1.6-1.98,2.4c-0.6,0.8-1.12,1.58-1.56,2.34c-0.04,0.06-0.08,0.14-0.13,0.24
		c-0.15,0.28-0.39,0.42-0.73,0.42c-0.16,0-0.26-0.02-0.31-0.04c-0.05-0.02-0.1-0.09-0.16-0.2c-0.13-0.26-0.24-0.55-0.33-0.88
		c-0.1-0.33-0.14-0.56-0.14-0.69c0-0.07,0.02-0.13,0.04-0.17c0.02-0.04,0.07-0.09,0.15-0.14c0.1-0.07,0.2-0.12,0.32-0.16
		c0.12-0.04,0.22-0.06,0.3-0.06c0.07,0,0.15,0.13,0.24,0.39c0.02,0.02,0.02,0.04,0.02,0.05c0.01,0.01,0.01,0.03,0.02,0.05
		c0.09,0.25,0.16,0.38,0.22,0.38c0.05,0,0.25-0.28,0.61-0.85c0.35-0.57,0.71-1.11,1.08-1.6c0.25-0.35,0.48-0.64,0.68-0.88
		c0.2-0.24,0.35-0.39,0.44-0.44c0.13-0.07,0.3-0.14,0.5-0.19c0.21-0.05,0.44-0.09,0.69-0.11L49.32,44.89z"/>
	<rect x="42.89" y="44.22" class="st26" width="7.01" height="7.01"/>
	<text transform="matrix(1 0 0 1 51.6058 50.5902)" class="st25 st30 st31">UPI</text>
</g>
</svg>
