<?xml version="1.0" encoding="utf-8"?>
<!-- Generator: Adobe Illustrator 24.2.3, SVG Export Plug-In . SVG Version: 6.00 Build 0)  -->
<svg version="1.1" id="Layer_1" xmlns="http://www.w3.org/2000/svg" xmlns:xlink="http://www.w3.org/1999/xlink" x="0px" y="0px"
	 viewBox="0 0 60.58 57.16" style="enable-background:new 0 0 60.58 57.16;" xml:space="preserve">
<style type="text/css">
	.st0{fill:#FFFFFF;}
	.st1{fill:none;stroke:#000000;stroke-width:0.67;stroke-linecap:square;stroke-miterlimit:10;}
	.st2{fill:none;stroke:#000000;stroke-width:0;stroke-miterlimit:10;}
	.st3{fill-rule:evenodd;clip-rule:evenodd;fill:#FFFFFF;}
	.st4{fill:none;stroke:#000000;stroke-width:0.67;stroke-miterlimit:10;}
	.st5{fill:#E6E7E7;}
	.st6{fill-rule:evenodd;clip-rule:evenodd;fill:#373435;}
	.st7{fill:#065CA8;}
	.st8{fill:#E73A3A;}
	.st9{fill:#E8282B;}
	.st10{fill-rule:evenodd;clip-rule:evenodd;fill:#E8282B;}
	.st11{fill-rule:evenodd;clip-rule:evenodd;fill:#F5F5F5;}
	.st12{fill:#D3D3D4;}
	.st13{fill:#2B2A29;}
	.st14{clip-path:url(#SVGID_19_);fill:url(#SVGID_20_);}
	.st15{clip-path:url(#SVGID_21_);fill:url(#SVGID_22_);}
	.st16{fill-rule:evenodd;clip-rule:evenodd;fill:#D5292D;}
	.st17{fill:none;stroke:#D9DADA;stroke-width:1.0001;stroke-miterlimit:2.613;}
	.st18{fill-rule:evenodd;clip-rule:evenodd;fill:#727271;}
	.st19{fill-rule:evenodd;clip-rule:evenodd;fill:#FEFEFE;}
	.st20{clip-path:url(#SVGID_24_);fill:url(#SVGID_25_);}
	.st21{fill:#727271;}
	.st22{clip-path:url(#SVGID_27_);fill:url(#SVGID_28_);}
	.st23{fill:#FEFEFE;}
	.st24{fill:#D5292D;}
	.st25{fill:#0D78B6;}
	.st26{fill:none;stroke:#0D78B6;stroke-width:0.5669;stroke-miterlimit:22.9256;}
	.st27{fill:#0077B6;}
	.st28{fill-rule:evenodd;clip-rule:evenodd;fill:#0C54A0;}
	.st29{fill-rule:evenodd;clip-rule:evenodd;fill:#007FC4;}
	.st30{fill:none;stroke:#D9DADA;stroke-width:0.5;stroke-miterlimit:2.613;}
	.st31{fill-rule:evenodd;clip-rule:evenodd;fill:#2B2A29;}
	.st32{fill:none;stroke:#2B2A29;stroke-width:0.216;stroke-miterlimit:2.6131;}
</style>
<g>
	<g>
		<path class="st31" d="M55.93,36.74c0-1.59-1.29-2.88-2.88-2.88c-1.59,0-2.88,1.29-2.88,2.88c0,1.07,0.61,1.98,1.49,2.47v3.34
			c0,4.06-3.31,7.37-7.37,7.37H15c-4.06,0-7.37-3.31-7.37-7.37v-16c0-4.06,3.31-7.37,7.37-7.37h3.09l2.42,9.03l0.1,0.27
			c0.82,1.65,2.47,2.7,4.31,2.72l29.64,0.36l0.09-5.02c0-5.71-4.64-10.36-10.35-10.36h-7.49v-4.79c0-2.08-0.92-4.07-2.51-5.43
			c-1.59-1.36-3.69-1.95-5.77-1.63c-3.43,0.54-6.02,3.65-6.02,7.24v0.82c-0.85,0.5-1.45,1.39-1.45,2.44c0,1.59,1.29,2.88,2.88,2.88
			c1.59,0,2.88-1.29,2.88-2.88c0-1-0.54-1.84-1.33-2.36v-0.91c0-2.13,1.51-3.98,3.51-4.29c1.21-0.19,2.44,0.15,3.37,0.95
			c0.93,0.8,1.47,1.95,1.47,3.17v7.77H44.3c4.06,0,7.37,3.3,7.37,7.34l-0.04,2.02l-26.67-0.33c-0.67-0.01-1.28-0.36-1.61-0.94
			l-2.97-11.08H15c-5.71,0-10.35,4.65-10.35,10.36v16c0,5.71,4.64,10.36,10.35,10.36H44.3c5.71,0,10.35-4.65,10.35-10.36v-3.49
			C55.41,38.54,55.93,37.72,55.93,36.74z"/>
	</g>
	<g>
		<path class="st13" d="M44.3,53.36H15c-5.96,0-10.81-4.85-10.81-10.81v-16c0-5.96,4.85-10.81,10.81-10.81h5.71
			c-0.08-0.29-0.12-0.58-0.12-0.89c0-1.07,0.54-2.06,1.45-2.69v-0.57c0-3.81,2.76-7.12,6.41-7.69c2.23-0.34,4.46,0.3,6.14,1.74
			c1.7,1.45,2.67,3.56,2.67,5.78v4.33h7.03c5.96,0,10.81,4.85,10.81,10.81l-0.1,5.48l-30.09-0.37c-2.02-0.02-3.83-1.16-4.72-2.97
			l-0.12-0.31l-2.35-8.74H15c-3.81,0-6.91,3.1-6.91,6.91v16c0,3.81,3.1,6.91,6.91,6.91H44.3c3.81,0,6.91-3.1,6.91-6.91v-3.09
			c-0.94-0.63-1.49-1.63-1.49-2.73c0-1.84,1.5-3.33,3.34-3.33s3.34,1.49,3.34,3.33c0,0.99-0.47,1.91-1.28,2.56v3.26
			C55.11,48.51,50.26,53.36,44.3,53.36z M15,16.65c-5.46,0-9.89,4.44-9.89,9.9v16c0,5.46,4.44,9.9,9.89,9.9H44.3
			c5.46,0,9.89-4.44,9.89-9.9v-3.73l0.2-0.14c0.69-0.48,1.08-1.19,1.08-1.95c0-1.34-1.08-2.42-2.42-2.42s-2.42,1.09-2.42,2.42
			c0,0.85,0.47,1.63,1.26,2.07l0.24,0.13v3.61c0,4.31-3.51,7.82-7.83,7.82H15c-4.32,0-7.83-3.51-7.83-7.82v-16
			c0-4.31,3.51-7.82,7.83-7.82h3.44l2.6,9.6c0.72,1.46,2.22,2.4,3.89,2.42l29.18,0.36l0.08-4.56c0-5.45-4.44-9.89-9.89-9.89h-7.95
			v-5.24c0-1.95-0.86-3.81-2.35-5.09c-1.48-1.27-3.46-1.83-5.4-1.53c-3.21,0.5-5.64,3.42-5.64,6.79v1.08l-0.23,0.13
			c-0.76,0.45-1.22,1.22-1.22,2.05c0,1.34,1.08,2.42,2.41,2.42c1.34,0,2.42-1.09,2.42-2.42c0-0.79-0.41-1.51-1.12-1.97l-0.21-0.14
			v-1.15c0-2.36,1.67-4.4,3.89-4.74c1.36-0.2,2.7,0.17,3.73,1.06c1.03,0.89,1.63,2.17,1.63,3.51v7.32H44.3c4.32,0,7.83,3.5,7.83,7.8
			l-0.05,2.48l-27.12-0.33c-0.83-0.01-1.6-0.46-2.01-1.17l-0.05-0.11l-2.88-10.74H15z M23.78,27.1c0.25,0.41,0.71,0.66,1.19,0.66
			l26.21,0.32l0.03-1.57c0-3.79-3.1-6.88-6.91-6.88H33.36v-8.23c0-1.08-0.48-2.1-1.31-2.82c-0.82-0.71-1.91-1.02-3-0.85
			c-1.78,0.28-3.12,1.93-3.12,3.84v0.67c0.84,0.64,1.32,1.57,1.32,2.59c0,1.84-1.5,3.33-3.34,3.33c-1.42,0-2.64-0.9-3.12-2.15
			l0.02,0.05L23.78,27.1z"/>
	</g>
</g>
</svg>
