<?xml version="1.0" encoding="utf-8"?>
<!-- Generator: Adobe Illustrator 24.2.3, SVG Export Plug-In . SVG Version: 6.00 Build 0)  -->
<svg version="1.1" id="Layer_1" xmlns="http://www.w3.org/2000/svg" xmlns:xlink="http://www.w3.org/1999/xlink" x="0px" y="0px"
	 viewBox="0 0 97.47 63" style="enable-background:new 0 0 97.47 63;" xml:space="preserve">
<style type="text/css">
	.st0{fill:#FFFFFF;}
	.st1{fill:none;stroke:#000000;stroke-width:0.67;stroke-linecap:square;stroke-miterlimit:10;}
	.st2{fill:none;stroke:#000000;stroke-width:0;stroke-miterlimit:10;}
	.st3{fill-rule:evenodd;clip-rule:evenodd;fill:#FFFFFF;}
	.st4{fill:none;stroke:#000000;stroke-width:0.67;stroke-miterlimit:10;}
	.st5{fill:#E6E7E7;}
	.st6{fill-rule:evenodd;clip-rule:evenodd;fill:#373435;}
	.st7{fill:#065CA8;}
	.st8{fill:#E73A3A;}
	.st9{fill:#E8282B;}
	.st10{fill-rule:evenodd;clip-rule:evenodd;fill:#E8282B;}
	.st11{fill-rule:evenodd;clip-rule:evenodd;fill:#F5F5F5;}
	.st12{fill:#D3D3D4;}
	.st13{fill:#2B2A29;}
	.st14{clip-path:url(#SVGID_19_);fill:url(#SVGID_20_);}
	.st15{clip-path:url(#SVGID_21_);fill:url(#SVGID_22_);}
	.st16{fill-rule:evenodd;clip-rule:evenodd;fill:#D5292D;}
	.st17{fill:none;stroke:#D9DADA;stroke-width:1.0001;stroke-miterlimit:2.613;}
	.st18{fill-rule:evenodd;clip-rule:evenodd;fill:#727271;}
	.st19{fill-rule:evenodd;clip-rule:evenodd;fill:#FEFEFE;}
	.st20{clip-path:url(#SVGID_24_);fill:url(#SVGID_25_);}
	.st21{fill:#727271;}
	.st22{clip-path:url(#SVGID_27_);fill:url(#SVGID_28_);}
	.st23{fill:#FEFEFE;}
	.st24{fill:#D5292D;}
	.st25{fill:#0D78B6;}
	.st26{fill:none;stroke:#0D78B6;stroke-width:0.5669;stroke-miterlimit:22.9256;}
	.st27{fill:#0077B6;}
	.st28{fill-rule:evenodd;clip-rule:evenodd;fill:#0C54A0;}
	.st29{fill-rule:evenodd;clip-rule:evenodd;fill:#007FC4;}
	.st30{fill:none;stroke:#D9DADA;stroke-width:0.5;stroke-miterlimit:2.613;}
	.st31{font-family:'OpenSans';}
	.st32{font-size:6px;}
	.st33{font-family:'OpenSans-Bold';}
	.st34{font-size:8px;}
	.st35{fill-rule:evenodd;clip-rule:evenodd;fill:#2B2A29;}
	.st36{fill:none;stroke:#2B2A29;stroke-width:0.216;stroke-miterlimit:2.6131;}
</style>
<g>
	<path class="st28" d="M5.7,1.32h85.44c2.23,0,4.05,1.97,4.05,4.27v50.92c0,2.31-1.87,4.27-4.05,4.27H5.7
		c-2.19,0-4.05-1.92-4.05-4.27V5.59C1.65,3.24,3.47,1.32,5.7,1.32z"/>
	<path class="st17" d="M5.7,1.32h85.44c2.23,0,4.05,1.97,4.05,4.27v50.92c0,2.31-1.87,4.27-4.05,4.27H5.7
		c-2.19,0-4.05-1.92-4.05-4.27V5.59C1.65,3.24,3.47,1.32,5.7,1.32z"/>
	<text transform="matrix(1 0 0 1 4.898 10.1645)" class="st23 st31 st32">Call Our 24x7 T</text>
	<text transform="matrix(1 0 0 1 46.8765 10.1645)" class="st23 st31 st32">oll Fr</text>
	<text transform="matrix(1 0 0 1 60.522 10.1645)" class="st23 st31 st32">ee Helpline</text>
	<path class="st29" d="M21.54,14.31H75.3c2.23,0,4.05,1.97,4.05,4.27v1.72c0,2.31-1.87,4.27-4.05,4.27H21.54
		c-2.19,0-4.05-1.92-4.05-4.27v-1.72C17.49,16.23,19.31,14.31,21.54,14.31z"/>
	<path class="st30" d="M21.54,14.31H75.3c2.23,0,4.05,1.97,4.05,4.27v1.72c0,2.31-1.87,4.27-4.05,4.27H21.54
		c-2.19,0-4.05-1.92-4.05-4.27v-1.72C17.49,16.23,19.31,14.31,21.54,14.31z"/>
	<text transform="matrix(1 0 0 1 21.1294 22.3002)" class="st23 st33 st34">1800 266 7780</text>
	<path class="st29" d="M8.58,32.37h79.68c2.23,0,4.05,1.97,4.05,4.27v12.52c0,2.31-1.87,4.27-4.05,4.27H8.58
		c-2.19,0-4.05-1.92-4.05-4.27V36.64C4.53,34.29,6.35,32.37,8.58,32.37z"/>
	<path class="st30" d="M8.58,32.37h79.68c2.23,0,4.05,1.97,4.05,4.27v12.52c0,2.31-1.87,4.27-4.05,4.27H8.58
		c-2.19,0-4.05-1.92-4.05-4.27V36.64C4.53,34.29,6.35,32.37,8.58,32.37z"/>
	<text transform="matrix(1 0 0 1 23.396 50.3085)" class="st23 st33 st34">1800 22 9966</text>
	<text transform="matrix(1 0 0 1 5.9898 39.9731)" class="st23 st31 st32">F</text>
	<text transform="matrix(1 0 0 1 8.8843 39.9731)" class="st23 st31 st32">o</text>
	<text transform="matrix(1 0 0 1 12.3062 39.9731)" class="st23 st31 st32">r </text>
	<text transform="matrix(1 0 0 1 16.1118 39.9731)" class="st23 st31 st32">S</text>
	<text transform="matrix(1 0 0 1 19.2017 39.9731)" class="st23 st31 st32">e</text>
	<text transform="matrix(1 0 0 1 22.3657 39.9731)" class="st23 st31 st32">n</text>
	<text transform="matrix(1 0 0 1 25.8462 39.9731)" class="st23 st31 st32">i</text>
	<text transform="matrix(1 0 0 1 27.1616 39.9731)" class="st23 st31 st32">o</text>
	<text transform="matrix(1 0 0 1 30.5825 39.9731)" class="st23 st31 st32">r </text>
	<text transform="matrix(1 0 0 1 34.3882 39.9731)" class="st23 st31 st32">C</text>
	<text transform="matrix(1 0 0 1 37.9712 39.9731)" class="st23 st31 st32">i</text>
	<text transform="matrix(1 0 0 1 39.2857 39.9731)" class="st23 st31 st32">t</text>
	<text transform="matrix(1 0 0 1 41.2017 39.9731)" class="st23 st31 st32">i</text>
	<text transform="matrix(1 0 0 1 42.5171 39.9731)" class="st23 st31 st32">z</text>
	<text transform="matrix(1 0 0 1 45.1216 39.9731)" class="st23 st31 st32">e</text>
	<text transform="matrix(1 0 0 1 48.2857 39.9731)" class="st23 st31 st32">n </text>
	<text transform="matrix(1 0 0 1 53.3247 39.9731)" class="st23 st31 st32">P</text>
	<text transform="matrix(1 0 0 1 56.7339 39.9731)" class="st23 st31 st32">o</text>
	<text transform="matrix(1 0 0 1 60.1558 39.9731)" class="st23 st31 st32">l</text>
	<text transform="matrix(1 0 0 1 61.4712 39.9731)" class="st23 st31 st32">i</text>
	<text transform="matrix(1 0 0 1 62.7866 39.9731)" class="st23 st31 st32">c</text>
	<text transform="matrix(1 0 0 1 65.4399 39.9731)" class="st23 st31 st32">y </text>
	<text transform="matrix(1 0 0 1 69.8189 39.9731)" class="st23 st31 st32">H</text>
	<text transform="matrix(1 0 0 1 74.0444 39.9731)" class="st23 st31 st32">o</text>
	<text transform="matrix(1 0 0 1 77.4653 39.9731)" class="st23 st31 st32">l</text>
	<text transform="matrix(1 0 0 1 78.7808 39.9731)" class="st23 st31 st32">d</text>
	<text transform="matrix(1 0 0 1 82.2554 39.9731)" class="st23 st31 st32">e</text>
	<text transform="matrix(1 0 0 1 85.4194 39.9731)" class="st23 st31 st32">r</text>
	<text transform="matrix(1 0 0 1 87.6655 39.9731)" class="st23 st31 st32">s</text>
</g>
</svg>
