<?xml version="1.0" encoding="utf-8"?>
<!-- Generator: Adobe Illustrator 24.2.3, SVG Export Plug-In . SVG Version: 6.00 Build 0)  -->
<svg version="1.1" id="Layer_1" xmlns="http://www.w3.org/2000/svg" xmlns:xlink="http://www.w3.org/1999/xlink" x="0px" y="0px"
	 viewBox="0 0 60.58 57.16" style="enable-background:new 0 0 60.58 57.16;" xml:space="preserve">
<style type="text/css">
	.st0{fill:#FFFFFF;}
	.st1{fill:none;stroke:#000000;stroke-width:0.67;stroke-linecap:square;stroke-miterlimit:10;}
	.st2{fill:none;stroke:#000000;stroke-width:0;stroke-miterlimit:10;}
	.st3{fill-rule:evenodd;clip-rule:evenodd;fill:#FFFFFF;}
	.st4{fill:none;stroke:#000000;stroke-width:0.67;stroke-miterlimit:10;}
	.st5{fill:#E6E7E7;}
	.st6{fill-rule:evenodd;clip-rule:evenodd;fill:#373435;}
	.st7{fill:#065CA8;}
	.st8{fill:#E73A3A;}
	.st9{fill:#E8282B;}
	.st10{fill-rule:evenodd;clip-rule:evenodd;fill:#E8282B;}
	.st11{fill-rule:evenodd;clip-rule:evenodd;fill:#F5F5F5;}
	.st12{fill:#D3D3D4;}
	.st13{fill:#2B2A29;}
	.st14{clip-path:url(#SVGID_19_);fill:url(#SVGID_20_);}
	.st15{clip-path:url(#SVGID_21_);fill:url(#SVGID_22_);}
	.st16{fill-rule:evenodd;clip-rule:evenodd;fill:#D5292D;}
	.st17{fill:none;stroke:#D9DADA;stroke-width:1.0001;stroke-miterlimit:2.613;}
	.st18{fill-rule:evenodd;clip-rule:evenodd;fill:#727271;}
	.st19{fill-rule:evenodd;clip-rule:evenodd;fill:#FEFEFE;}
	.st20{clip-path:url(#SVGID_24_);fill:url(#SVGID_25_);}
	.st21{fill:#727271;}
	.st22{clip-path:url(#SVGID_27_);fill:url(#SVGID_28_);}
	.st23{fill:#FEFEFE;}
	.st24{fill:#D5292D;}
	.st25{fill:#0D78B6;}
	.st26{fill:none;stroke:#0D78B6;stroke-width:0.5669;stroke-miterlimit:22.9256;}
	.st27{fill:#0077B6;}
	.st28{fill-rule:evenodd;clip-rule:evenodd;fill:#0C54A0;}
	.st29{fill-rule:evenodd;clip-rule:evenodd;fill:#007FC4;}
	.st30{fill:none;stroke:#D9DADA;stroke-width:0.5;stroke-miterlimit:2.613;}
	.st31{fill-rule:evenodd;clip-rule:evenodd;fill:#2B2A29;}
	.st32{fill:none;stroke:#2B2A29;stroke-width:0.216;stroke-miterlimit:2.6131;}
</style>
<g>
	<g>
		<path class="st31" d="M46.81,19.03h-6.97v-6.97c0-5.22-3.94-9.54-8.97-9.85c-2.66-0.16-5.2,0.76-7.14,2.58
			c-1.84,1.74-2.91,4.17-2.98,6.7c-0.97,0.53-1.66,1.53-1.66,2.72c0,1.73,1.41,3.14,3.14,3.14c1.73,0,3.14-1.41,3.14-3.14
			c0-1.06-0.57-1.96-1.38-2.53c0.02-1.72,0.71-3.32,1.97-4.51c1.27-1.2,2.95-1.8,4.71-1.7c3.31,0.2,5.91,3.1,5.91,6.59v8.59
			l0.08,1.63h10.14c3.5,0,6.39,2.59,6.6,5.91c0.1,1.76-0.5,3.43-1.7,4.71c-1.2,1.28-2.83,1.98-4.59,1.98h-7.85L23.04,19.53L23,19.49
			c-0.59-0.59-0.62-0.61-9.49-0.46l-0.82,0.01v0.09c-4.72,0.51-8.48,4.19-8.76,8.87c-0.16,2.67,0.76,5.2,2.58,7.14
			c1.8,1.91,4.33,3,6.96,3h7.27v6.97c0,5.22,3.94,9.54,8.97,9.85c0.2,0.01,0.39,0.02,0.59,0.02c2.44,0,4.77-0.92,6.54-2.6
			c1.82-1.72,2.88-4.11,2.97-6.6c0.85-0.56,1.45-1.48,1.45-2.58c0-1.73-1.41-3.14-3.15-3.14c-1.73,0-3.14,1.41-3.14,3.14
			c0,1.15,0.65,2.11,1.57,2.66c-0.11,1.59-0.77,3.05-1.94,4.15c-1.27,1.2-2.94,1.8-4.71,1.7c-3.31-0.2-5.91-3.1-5.91-6.59v-8.59
			l-0.08-1.63H13.47c-1.76,0-3.39-0.7-4.59-1.98c-1.2-1.28-1.81-2.95-1.7-4.71c0.2-3.31,3.1-5.91,6.6-5.91h0.82v-0.01
			c2.66-0.04,5.43-0.06,6.56-0.03l16.28,15.91l0,0h9.68c2.63,0,5.16-1.09,6.95-3.01c1.83-1.94,2.74-4.47,2.58-7.14
			C56.35,22.97,52.03,19.03,46.81,19.03z"/>
	</g>
	<g>
		<path class="st13" d="M30.3,55.46c-0.21,0-0.41-0.01-0.61-0.02c-5.3-0.32-9.45-4.86-9.45-10.35v-6.47h-6.77
			c-2.76,0-5.43-1.15-7.32-3.16c-1.92-2.04-2.88-4.71-2.71-7.51c0.28-4.72,3.93-8.56,8.75-9.28v-0.05l0.49-0.09l0.82-0.01
			c9-0.15,9.09-0.14,9.85,0.61l16.12,15.24h7.65c1.62,0,3.12-0.65,4.22-1.82c1.11-1.17,1.67-2.71,1.57-4.34
			c-0.19-3.05-2.87-5.44-6.1-5.44H36.2l-0.1-2.1l0-8.62c0-3.24-2.39-5.91-5.44-6.09c-1.6-0.1-3.16,0.46-4.34,1.57
			c-1.09,1.02-1.73,2.4-1.81,3.9c0.88,0.7,1.38,1.7,1.38,2.78c0,2.01-1.63,3.64-3.64,3.64s-3.64-1.63-3.64-3.64
			c0-1.2,0.64-2.33,1.67-3c0.14-2.57,1.27-5.02,3.12-6.77c2.04-1.92,4.69-2.88,7.51-2.72c5.29,0.32,9.44,4.86,9.44,10.35v6.47h6.46
			c5.48,0,10.03,4.15,10.34,9.44c0.17,2.8-0.79,5.47-2.72,7.51c-1.89,2.01-4.55,3.16-7.32,3.16h-9.56l-0.21,0.11l-0.26-0.25
			L20.95,22.73c-1.09-0.03-3.37-0.01-5.85,0.03v0.01l-1.32,0.01c-3.24,0-5.92,2.39-6.1,5.44c-0.1,1.62,0.46,3.16,1.57,4.34
			s2.6,1.82,4.22,1.82h10.92l0.1,2.11l0,8.62c0,3.24,2.39,5.91,5.44,6.09c1.64,0.1,3.17-0.46,4.33-1.57
			c0.99-0.93,1.6-2.15,1.76-3.53c-0.98-0.69-1.55-1.76-1.55-2.91c0-2.01,1.63-3.64,3.64-3.64c2.01,0,3.65,1.63,3.65,3.64
			c0,1.12-0.53,2.14-1.46,2.84c-0.16,2.55-1.28,4.98-3.11,6.7C35.31,54.49,32.86,55.46,30.3,55.46z M13.03,19.53l-0.3,0.09
			c-4.55,0.49-8.05,4.02-8.31,8.4c-0.15,2.53,0.71,4.93,2.45,6.77c1.71,1.81,4.11,2.85,6.59,2.85h7.77v7.46
			c0,4.96,3.73,9.06,8.5,9.35c0.18,0.01,0.37,0.02,0.56,0.02c2.32,0,4.52-0.88,6.2-2.46c1.7-1.6,2.73-3.88,2.81-6.26l0.01-0.26
			l0.21-0.14c0.78-0.52,1.22-1.3,1.22-2.16c0-1.46-1.19-2.64-2.64-2.64c-1.46,0-2.64,1.18-2.64,2.64c0,0.9,0.5,1.74,1.33,2.23
			l0.27,0.16l-0.02,0.31c-0.12,1.76-0.85,3.31-2.09,4.48c-1.38,1.3-3.22,1.93-5.08,1.84c-3.58-0.21-6.38-3.33-6.38-7.09l-0.05-9.73
			h-9.97c-1.9,0-3.66-0.76-4.95-2.14c-1.3-1.38-1.95-3.18-1.83-5.08c0.21-3.57,3.33-6.37,7.09-6.37l0.81-0.01
			c2.86-0.04,5.52-0.06,6.58-0.03l0.2,0l0.14,0.14l16.14,15.76h9.48c2.49,0,4.89-1.04,6.59-2.85c1.73-1.84,2.6-4.24,2.45-6.77
			c-0.29-4.77-4.4-8.5-9.35-8.5h-7.46v-7.46c0-4.96-3.73-9.06-8.5-9.35c-2.5-0.14-4.92,0.72-6.76,2.45
			c-1.73,1.63-2.75,3.94-2.82,6.35l-0.01,0.29L21,11.93c-0.88,0.48-1.4,1.34-1.4,2.28c0,1.46,1.18,2.64,2.64,2.64
			c1.46,0,2.64-1.18,2.64-2.64c0-0.83-0.42-1.6-1.17-2.12l-0.22-0.15v-0.26c0.03-1.87,0.78-3.6,2.13-4.86
			c1.38-1.29,3.21-1.9,5.08-1.84c3.58,0.21,6.38,3.33,6.38,7.09l0.05,9.72h9.66c3.76,0,6.88,2.8,7.09,6.37
			c0.11,1.9-0.54,3.71-1.84,5.08c-1.29,1.38-3.05,2.13-4.95,2.13h-8.05l-0.14-0.14L22.7,19.9c-0.49-0.48-0.73-0.51-9.19-0.37
			L13.03,19.53z"/>
	</g>
</g>
</svg>
