<?xml version="1.0" encoding="utf-8"?>
<!-- Generator: Adobe Illustrator 24.2.3, SVG Export Plug-In . SVG Version: 6.00 Build 0)  -->
<svg version="1.1" id="Layer_1" xmlns="http://www.w3.org/2000/svg" xmlns:xlink="http://www.w3.org/1999/xlink" x="0px" y="0px"
	 viewBox="0 0 153.36 71" style="enable-background:new 0 0 153.36 71;" xml:space="preserve">
<style type="text/css">
	.st0{fill:#FFFFFF;}
	.st1{fill:none;stroke:#000000;stroke-width:0.67;stroke-linecap:square;stroke-miterlimit:10;}
	.st2{fill:none;stroke:#000000;stroke-width:0;stroke-miterlimit:10;}
	.st3{fill-rule:evenodd;clip-rule:evenodd;fill:#FFFFFF;}
	.st4{fill:none;stroke:#000000;stroke-width:0.67;stroke-miterlimit:10;}
	.st5{fill:#E6E7E7;}
	.st6{fill-rule:evenodd;clip-rule:evenodd;fill:#373435;}
	.st7{fill:#065CA8;}
	.st8{fill:#E73A3A;}
	.st9{fill:#E8282B;}
	.st10{fill-rule:evenodd;clip-rule:evenodd;fill:#E8282B;}
	.st11{fill-rule:evenodd;clip-rule:evenodd;fill:#F5F5F5;}
	.st12{fill:#D3D3D4;}
	.st13{fill:#2B2A29;}
	.st14{clip-path:url(#SVGID_21_);fill:url(#SVGID_22_);}
	.st15{clip-path:url(#SVGID_23_);fill:url(#SVGID_24_);}
	.st16{clip-path:url(#SVGID_25_);fill:url(#SVGID_26_);}
	.st17{clip-path:url(#SVGID_27_);fill:url(#SVGID_28_);}
	.st18{fill-rule:evenodd;clip-rule:evenodd;fill:#D5292D;}
	.st19{fill:none;stroke:#D9DADA;stroke-width:1.0001;stroke-miterlimit:2.613;}
	.st20{fill-rule:evenodd;clip-rule:evenodd;fill:#727271;}
	.st21{fill-rule:evenodd;clip-rule:evenodd;fill:#FEFEFE;}
	.st22{clip-path:url(#SVGID_30_);fill:url(#SVGID_31_);}
	.st23{fill:#727271;}
	.st24{clip-path:url(#SVGID_33_);fill:url(#SVGID_34_);}
	.st25{fill:#FEFEFE;}
	.st26{fill:#D5292D;}
	.st27{fill:#0D78B6;}
	.st28{fill:none;stroke:#0D78B6;stroke-width:0.5669;stroke-miterlimit:22.9256;}
	.st29{fill:#0077B6;}
	.st30{fill-rule:evenodd;clip-rule:evenodd;fill:#0C54A0;}
	.st31{fill-rule:evenodd;clip-rule:evenodd;fill:#007FC4;}
	.st32{fill:none;stroke:#D9DADA;stroke-width:0.5;stroke-miterlimit:2.613;}
	.st33{fill-rule:evenodd;clip-rule:evenodd;fill:#2B2A29;}
	.st34{fill:none;stroke:#2B2A29;stroke-width:0.216;stroke-miterlimit:2.6131;}
</style>
<g>
	<path class="st11" d="M7.15,69.74c0,0-2.92,0.26-4.57-1.05C0.92,67.37,1.3,59.8,1.3,59.8L1.33,5.72c0,0,0.32-3.86,3.32-4.22
		c3-0.36,60.02,0,60.02,0v68.06L7.15,69.74z"/>
	<path class="st3" d="M145.85,69.74c0,0,2.92,0.26,4.57-1.05c1.65-1.31,1.28-8.89,1.28-8.89l-0.04-54.07c0,0-0.32-3.86-3.32-4.22
		c-3-0.36-83.67,0-83.67,0v68.06L145.85,69.74z"/>
	<path class="st12" d="M4.75,1.5V1h143.55c2.13,0.01,3.84,2.24,3.85,4.86v59.31c-0.01,2.63-1.77,4.85-3.85,4.86H4.75
		c-2.08-0.01-3.84-2.17-3.85-4.86V5.86C0.91,3.18,2.63,1,4.75,1V1.5V2C3.91,2,3.15,2.43,2.6,3.13C2.04,3.84,1.7,4.8,1.7,5.86v59.31
		c0,1.06,0.35,2.02,0.91,2.72c0.56,0.7,1.33,1.14,2.14,1.13h143.55c0.81,0,1.58-0.44,2.14-1.15c0.56-0.71,0.92-1.68,0.92-2.7V5.86
		c0-1.03-0.34-2-0.9-2.71C149.91,2.44,149.15,2,148.31,2H4.75V1.5z"/>
	<path class="st12" d="M4.11,69.96c-1.58-0.35-2.87-1.95-3.15-3.98V5.04C1.2,3.27,2.2,1.83,3.52,1.26h1.24V1.5V2
		C3.91,2,3.15,2.43,2.6,3.13C2.04,3.84,1.7,4.8,1.7,5.86v59.31c0,1.06,0.35,2.02,0.91,2.72c0.56,0.7,1.33,1.14,2.14,1.13h64.46v0.93
		H4.11z M4.75,1.5V1.26h64.46V2H4.75V1.5z"/>
	<path class="st13" d="M124.75,18.8v-1.14h1.15v1.14H124.75z M124.8,17.13c0-0.03,0-0.06,0-0.11c-0.01-0.06-0.01-0.09-0.01-0.11
		c0-0.23,0.02-0.42,0.07-0.57c0.06-0.15,0.13-0.3,0.24-0.43c0.08-0.1,0.21-0.21,0.38-0.34c0.16-0.13,0.27-0.22,0.32-0.28
		c0.1-0.12,0.18-0.22,0.22-0.31c0.04-0.1,0.06-0.2,0.06-0.31c0-0.25-0.07-0.44-0.21-0.58c-0.14-0.14-0.33-0.21-0.58-0.21
		s-0.44,0.08-0.58,0.25c-0.14,0.17-0.22,0.4-0.23,0.7h-1.1v-0.12c0-0.55,0.18-0.99,0.52-1.32c0.35-0.33,0.82-0.49,1.41-0.49
		c0.6,0,1.08,0.15,1.43,0.46c0.36,0.3,0.54,0.72,0.54,1.24c0,0.18-0.02,0.34-0.06,0.49c-0.05,0.14-0.1,0.28-0.19,0.4
		c-0.1,0.15-0.27,0.31-0.5,0.49c-0.22,0.18-0.35,0.29-0.4,0.33c-0.1,0.1-0.17,0.2-0.22,0.3c-0.04,0.1-0.06,0.23-0.06,0.38
		c0,0.01,0,0.03,0.01,0.06c0,0.03,0,0.06,0,0.07H124.8z M118.23,18.8l-1.2-4.25h1.15l0.7,2.94l0.58-2.94h1.16l0.62,2.94l0.7-2.94
		h1.1l-1.19,4.25h-1.14l-0.68-3.04l-0.66,3.04H118.23z M112.39,16.67c0-0.71,0.19-1.26,0.58-1.66c0.38-0.41,0.9-0.61,1.58-0.61
		c0.66,0,1.19,0.2,1.58,0.61c0.38,0.4,0.58,0.95,0.58,1.66c0,0.7-0.19,1.26-0.58,1.66c-0.38,0.41-0.91,0.61-1.58,0.61
		c-0.67,0-1.19-0.2-1.58-0.61C112.58,17.94,112.39,17.38,112.39,16.67 M113.54,16.67c0,0.42,0.09,0.74,0.26,0.98
		c0.17,0.23,0.42,0.34,0.74,0.34c0.31,0,0.56-0.11,0.74-0.34c0.17-0.23,0.26-0.55,0.26-0.98c0-0.42-0.09-0.74-0.26-0.97
		c-0.18-0.23-0.42-0.34-0.74-0.34c-0.32,0-0.57,0.11-0.74,0.34C113.63,15.93,113.54,16.26,113.54,16.67z M107.83,18.8v-4.25h1.11
		v0.5c0.16-0.21,0.34-0.36,0.56-0.46c0.22-0.1,0.46-0.15,0.73-0.15c0.46,0,0.82,0.12,1.05,0.37c0.24,0.24,0.35,0.61,0.35,1.1v2.9
		h-1.14v-2.57c0-0.3-0.05-0.52-0.15-0.66c-0.1-0.13-0.27-0.19-0.5-0.19c-0.27,0-0.48,0.08-0.64,0.24c-0.15,0.16-0.23,0.38-0.23,0.66
		v2.52H107.83z M103.42,18.8v-5.75h1.1v3.02l1.35-1.51h1.37l-1.48,1.58l1.57,2.67h-1.36l-1.02-1.81l-0.43,0.46v1.34H103.42z
		 M100.13,14.55v4.25h-1.11v-0.5c-0.16,0.21-0.35,0.36-0.57,0.46c-0.21,0.1-0.46,0.15-0.72,0.15c-0.46,0-0.82-0.12-1.05-0.37
		c-0.23-0.25-0.35-0.61-0.35-1.1v-2.9h1.14v2.57c0,0.3,0.05,0.52,0.15,0.65c0.1,0.13,0.27,0.19,0.5,0.19c0.26,0,0.48-0.08,0.64-0.24
		c0.15-0.16,0.23-0.38,0.23-0.66v-2.51H100.13z M91.27,16.67c0-0.71,0.19-1.26,0.58-1.66c0.38-0.41,0.9-0.61,1.58-0.61
		c0.66,0,1.19,0.2,1.58,0.61c0.38,0.4,0.58,0.95,0.58,1.66c0,0.7-0.19,1.26-0.58,1.66c-0.38,0.41-0.91,0.61-1.58,0.61
		c-0.67,0-1.19-0.2-1.58-0.61C91.46,17.94,91.27,17.38,91.27,16.67 M92.42,16.67c0,0.42,0.09,0.74,0.26,0.98
		c0.17,0.23,0.42,0.34,0.74,0.34c0.31,0,0.56-0.11,0.74-0.34c0.17-0.23,0.26-0.55,0.26-0.98c0-0.42-0.09-0.74-0.26-0.97
		c-0.18-0.23-0.42-0.34-0.74-0.34c-0.32,0-0.57,0.11-0.74,0.34C92.51,15.93,92.42,16.26,92.42,16.67z M87.36,20.51v-0.92
		c0.04,0.01,0.07,0.01,0.11,0.02c0.04,0,0.1,0,0.15,0c0.22,0,0.39-0.06,0.5-0.16c0.11-0.1,0.17-0.26,0.17-0.47
		c0-0.02,0-0.03-0.01-0.06c0-0.02-0.01-0.05-0.02-0.06l-1.53-4.3h1.25l0.9,3.06l0.87-3.06h1.19l-1.74,5.01
		c-0.13,0.38-0.3,0.63-0.49,0.77c-0.19,0.14-0.49,0.21-0.88,0.21c-0.07,0-0.14,0-0.22-0.01C87.53,20.52,87.44,20.51,87.36,20.51
		 M80.92,16.65c0,0.43,0.08,0.75,0.24,0.98c0.17,0.22,0.4,0.34,0.7,0.34c0.3,0,0.53-0.11,0.69-0.34c0.16-0.22,0.24-0.55,0.24-0.98
		c0-0.4-0.08-0.71-0.25-0.93c-0.17-0.22-0.4-0.33-0.7-0.33c-0.29,0-0.51,0.11-0.67,0.34C81,15.95,80.92,16.26,80.92,16.65
		 M83.9,13.05v5.75h-1.08v-0.58c-0.16,0.25-0.35,0.43-0.55,0.54c-0.21,0.12-0.45,0.18-0.72,0.18c-0.53,0-0.95-0.21-1.27-0.62
		c-0.33-0.41-0.49-0.95-0.49-1.62c0-0.68,0.16-1.23,0.49-1.66c0.32-0.42,0.74-0.63,1.26-0.63c0.27,0,0.52,0.06,0.73,0.17
		c0.22,0.12,0.4,0.29,0.54,0.5v-2.03H83.9z M77.84,18.8v-4.25h1.14v4.25H77.84z M77.84,14.08v-1.03h1.14v1.03H77.84z M72.1,18.8
		v-5.75h2.26c0.88,0,1.54,0.24,1.98,0.71c0.43,0.48,0.65,1.2,0.65,2.17c0,0.53-0.08,0.99-0.24,1.39c-0.16,0.4-0.39,0.72-0.7,0.97
		c-0.23,0.18-0.49,0.31-0.78,0.39c-0.29,0.08-0.7,0.12-1.22,0.12H72.1z M73.26,17.76h0.95c0.54,0,0.94-0.14,1.19-0.43
		c0.25-0.29,0.37-0.75,0.37-1.4c0-0.65-0.11-1.12-0.34-1.42c-0.23-0.3-0.58-0.46-1.07-0.46h-1.1V17.76z"/>
	<polygon class="st13" points="73.4,28.39 73.4,23.34 71.58,23.34 71.58,22.64 76,22.64 76,23.34 74.18,23.34 74.18,28.39 	"/>
	<path class="st13" d="M147.28,28.39v-2.58c0-0.41-0.06-0.7-0.19-0.86c-0.12-0.15-0.34-0.23-0.65-0.23c-0.39,0-0.7,0.11-0.91,0.34
		c-0.22,0.22-0.33,0.54-0.33,0.94v2.38h-0.7v-4.18h0.67v0.61c0.16-0.24,0.35-0.42,0.58-0.54c0.22-0.12,0.48-0.18,0.77-0.18
		c0.31,0,0.58,0.05,0.8,0.14c0.22,0.1,0.38,0.23,0.5,0.42c0.06,0.1,0.11,0.22,0.14,0.36c0.02,0.14,0.04,0.35,0.04,0.65v0.2v2.51
		H147.28z M139.64,26.29c0-0.7,0.18-1.25,0.53-1.64c0.35-0.39,0.84-0.58,1.47-0.58c0.64,0,1.13,0.19,1.48,0.58
		c0.35,0.39,0.53,0.94,0.53,1.64c0,0.7-0.18,1.25-0.53,1.64c-0.34,0.39-0.84,0.58-1.47,0.58c-0.63,0-1.13-0.19-1.48-0.58
		C139.81,27.54,139.64,27,139.64,26.29 M140.36,26.29c0,0.51,0.11,0.91,0.34,1.18c0.22,0.28,0.54,0.42,0.95,0.42
		c0.41,0,0.73-0.14,0.94-0.42c0.22-0.27,0.33-0.67,0.33-1.18c0-0.52-0.11-0.91-0.33-1.19c-0.22-0.27-0.54-0.41-0.94-0.41
		c-0.42,0-0.74,0.14-0.95,0.41C140.47,25.37,140.36,25.77,140.36,26.29z M135.04,30.05h-0.5c0.37-0.63,0.64-1.25,0.82-1.86
		c0.18-0.62,0.27-1.24,0.27-1.86c0-0.62-0.09-1.25-0.27-1.86c-0.18-0.62-0.46-1.23-0.82-1.86h0.5c0.45,0.59,0.78,1.19,0.98,1.8
		c0.22,0.61,0.32,1.26,0.32,1.93c0,0.67-0.1,1.32-0.32,1.93C135.81,28.85,135.48,29.46,135.04,30.05 M133.55,27.34
		c0,0.19,0.02,0.31,0.08,0.38c0.06,0.06,0.15,0.1,0.3,0.1c0.04,0,0.09,0,0.15-0.01c0.06,0,0.13-0.01,0.22-0.02v0.6
		c-0.12,0.02-0.22,0.04-0.31,0.05c-0.1,0.01-0.18,0.02-0.25,0.02c-0.33,0-0.56-0.06-0.7-0.19c-0.14-0.13-0.2-0.35-0.2-0.68v-2.81
		h-0.62v-0.56h0.62v-1.17h0.7v1.17h0.75v0.56h-0.75V27.34z M127.86,26.29c0-0.7,0.18-1.25,0.53-1.64c0.35-0.39,0.84-0.58,1.47-0.58
		c0.64,0,1.13,0.19,1.48,0.58c0.35,0.39,0.53,0.94,0.53,1.64c0,0.7-0.18,1.25-0.53,1.64c-0.34,0.39-0.84,0.58-1.47,0.58
		c-0.63,0-1.13-0.19-1.48-0.58C128.04,27.54,127.86,27,127.86,26.29 M128.58,26.29c0,0.51,0.11,0.91,0.34,1.18
		c0.22,0.28,0.54,0.42,0.95,0.42c0.41,0,0.73-0.14,0.94-0.42c0.22-0.27,0.33-0.67,0.33-1.18c0-0.52-0.11-0.91-0.33-1.19
		c-0.22-0.27-0.54-0.41-0.94-0.41c-0.42,0-0.74,0.14-0.95,0.41C128.69,25.37,128.58,25.77,128.58,26.29z M123.64,27.7h1.58
		c0.4,0,0.7-0.09,0.9-0.26c0.21-0.18,0.31-0.43,0.31-0.77c0-0.34-0.1-0.58-0.31-0.74c-0.21-0.15-0.54-0.23-0.99-0.23h-1.5V27.7z
		 M123.64,25.05h1.37c0.41,0,0.7-0.07,0.89-0.22c0.19-0.15,0.29-0.38,0.29-0.69c0-0.29-0.09-0.5-0.27-0.65
		c-0.18-0.14-0.46-0.21-0.84-0.21h-1.43V25.05z M122.86,28.39v-5.75h2.32c0.6,0,1.05,0.12,1.34,0.35c0.3,0.23,0.45,0.58,0.45,1.05
		c0,0.3-0.07,0.55-0.21,0.76c-0.14,0.22-0.34,0.38-0.62,0.49c0.34,0.06,0.62,0.22,0.81,0.46c0.19,0.24,0.29,0.55,0.29,0.92
		c0,0.53-0.18,0.94-0.52,1.26c-0.35,0.31-0.82,0.46-1.42,0.46H122.86z M121.36,27.34c0,0.19,0.02,0.31,0.08,0.38
		c0.06,0.06,0.15,0.1,0.3,0.1c0.04,0,0.09,0,0.15-0.01c0.06,0,0.13-0.01,0.22-0.02v0.6c-0.12,0.02-0.22,0.04-0.31,0.05
		c-0.1,0.01-0.18,0.02-0.25,0.02c-0.33,0-0.56-0.06-0.7-0.19c-0.14-0.13-0.2-0.35-0.2-0.68v-2.81h-0.62v-0.56h0.62v-1.17h0.7v1.17
		h0.75v0.56h-0.75V27.34z M118.71,26.26c-0.18,0.1-0.51,0.18-0.97,0.24c-0.16,0.02-0.28,0.03-0.36,0.05
		c-0.26,0.04-0.44,0.12-0.55,0.22c-0.11,0.11-0.17,0.27-0.17,0.48c0,0.21,0.06,0.37,0.2,0.48c0.13,0.11,0.31,0.17,0.55,0.17
		c0.38,0,0.69-0.1,0.94-0.29c0.24-0.19,0.36-0.43,0.36-0.73V26.26z M118.77,27.83c-0.22,0.23-0.45,0.4-0.7,0.51
		c-0.25,0.12-0.5,0.18-0.78,0.18c-0.42,0-0.76-0.11-1-0.34c-0.24-0.22-0.36-0.53-0.36-0.92c0-0.38,0.12-0.68,0.35-0.9
		c0.24-0.22,0.6-0.35,1.08-0.42c0.12-0.02,0.29-0.03,0.5-0.06c0.36-0.03,0.58-0.07,0.66-0.1c0.08-0.03,0.14-0.07,0.16-0.13
		c0.02-0.05,0.04-0.16,0.04-0.33c0-0.22-0.08-0.38-0.23-0.48c-0.16-0.1-0.39-0.16-0.71-0.16s-0.57,0.06-0.74,0.19
		c-0.17,0.14-0.25,0.33-0.25,0.58h-0.66v-0.03c0-0.42,0.15-0.76,0.45-1c0.3-0.25,0.7-0.37,1.22-0.37c0.56,0,0.98,0.1,1.24,0.31
		c0.26,0.21,0.39,0.54,0.39,0.98v2.1c0,0.18,0.02,0.3,0.06,0.34c0.04,0.06,0.11,0.08,0.22,0.08c0.02,0,0.05,0,0.08-0.01
		c0.02,0,0.06-0.01,0.1-0.02v0.54c-0.09,0.02-0.16,0.04-0.22,0.05c-0.06,0.01-0.13,0.02-0.18,0.02c-0.23,0-0.41-0.05-0.53-0.15
		c-0.11-0.1-0.18-0.26-0.18-0.46V27.83z M114.42,28.39v-2.58c0-0.42-0.06-0.7-0.19-0.86c-0.12-0.15-0.34-0.23-0.65-0.23
		c-0.38,0-0.68,0.1-0.9,0.32c-0.22,0.22-0.34,0.5-0.34,0.87v2.47h-0.7v-5.75h0.7v2.16c0.13-0.23,0.3-0.4,0.53-0.52
		c0.22-0.12,0.49-0.18,0.78-0.18c0.31,0,0.58,0.05,0.8,0.14c0.22,0.1,0.38,0.23,0.5,0.42c0.06,0.1,0.11,0.22,0.14,0.36
		c0.02,0.14,0.04,0.35,0.04,0.65v0.2v2.51H114.42z M110.04,26.26h0.76c-0.03,0.7-0.27,1.26-0.72,1.67
		c-0.44,0.42-1.02,0.62-1.72,0.62c-0.81,0-1.44-0.28-1.9-0.83c-0.46-0.55-0.69-1.31-0.69-2.29c0-0.9,0.24-1.62,0.72-2.15
		c0.49-0.53,1.14-0.79,1.95-0.79c0.65,0,1.18,0.17,1.6,0.5c0.42,0.34,0.66,0.79,0.72,1.38h-0.77c-0.07-0.38-0.25-0.67-0.52-0.88
		c-0.27-0.2-0.62-0.3-1.06-0.3c-0.58,0-1.03,0.2-1.36,0.62c-0.32,0.41-0.48,0.98-0.48,1.73c0,0.7,0.17,1.26,0.5,1.69
		c0.34,0.42,0.78,0.64,1.33,0.64c0.47,0,0.86-0.14,1.16-0.44C109.85,27.12,110.01,26.73,110.04,26.26 M101.08,28.39v-4.18h0.68v0.75
		c0.11-0.28,0.26-0.5,0.46-0.63c0.19-0.14,0.42-0.21,0.7-0.21c0.06,0,0.09,0,0.11,0s0.05,0.01,0.07,0.01v0.74
		c-0.02,0-0.04-0.01-0.06-0.01c-0.02,0-0.06,0-0.1,0c-0.38,0-0.66,0.1-0.86,0.3c-0.2,0.21-0.3,0.5-0.3,0.9v2.33H101.08z
		 M97.23,24.21v2.57c0,0.41,0.06,0.7,0.19,0.86c0.13,0.16,0.35,0.24,0.66,0.24c0.41,0,0.71-0.12,0.92-0.36
		c0.21-0.24,0.31-0.58,0.31-1.05v-2.26h0.7v4.18h-0.67v-0.62c-0.14,0.24-0.34,0.42-0.57,0.54c-0.23,0.12-0.5,0.18-0.82,0.18
		c-0.29,0-0.54-0.05-0.76-0.15c-0.22-0.1-0.38-0.24-0.5-0.42c-0.06-0.1-0.11-0.22-0.14-0.36c-0.02-0.14-0.04-0.35-0.04-0.65v-0.2
		v-2.51H97.23z M91.67,26.29c0-0.7,0.18-1.25,0.53-1.64c0.35-0.39,0.84-0.58,1.47-0.58c0.64,0,1.13,0.19,1.48,0.58
		c0.35,0.39,0.53,0.94,0.53,1.64c0,0.7-0.18,1.25-0.53,1.64c-0.34,0.39-0.84,0.58-1.47,0.58c-0.63,0-1.13-0.19-1.48-0.58
		C91.84,27.54,91.67,27,91.67,26.29 M92.39,26.29c0,0.51,0.11,0.91,0.34,1.18c0.22,0.28,0.54,0.42,0.95,0.42
		c0.41,0,0.73-0.14,0.94-0.42c0.22-0.27,0.33-0.67,0.33-1.18c0-0.52-0.11-0.91-0.33-1.19c-0.22-0.27-0.54-0.41-0.94-0.41
		c-0.42,0-0.74,0.14-0.95,0.41C92.5,25.37,92.39,25.77,92.39,26.29z M90.75,30.05c-0.44-0.59-0.78-1.2-0.98-1.81
		c-0.22-0.61-0.32-1.25-0.32-1.92c0-0.67,0.1-1.31,0.32-1.92c0.21-0.61,0.54-1.22,0.98-1.81h0.5c-0.37,0.63-0.64,1.25-0.82,1.86
		c-0.18,0.62-0.27,1.24-0.27,1.86c0,0.62,0.09,1.25,0.27,1.86c0.18,0.62,0.46,1.23,0.82,1.86H90.75z M85.18,26.26
		c-0.18,0.1-0.51,0.18-0.97,0.24c-0.16,0.02-0.28,0.03-0.36,0.05c-0.26,0.04-0.44,0.12-0.55,0.22c-0.11,0.11-0.17,0.27-0.17,0.48
		c0,0.21,0.06,0.37,0.2,0.48c0.13,0.11,0.31,0.17,0.55,0.17c0.38,0,0.69-0.1,0.94-0.29c0.24-0.19,0.36-0.43,0.36-0.73V26.26z
		 M85.24,27.83c-0.22,0.23-0.45,0.4-0.7,0.51c-0.25,0.12-0.5,0.18-0.78,0.18c-0.42,0-0.76-0.11-1-0.34
		c-0.24-0.22-0.36-0.53-0.36-0.92c0-0.38,0.12-0.68,0.35-0.9c0.24-0.22,0.6-0.35,1.08-0.42c0.12-0.02,0.29-0.03,0.5-0.06
		c0.36-0.03,0.58-0.07,0.66-0.1c0.08-0.03,0.14-0.07,0.16-0.13c0.02-0.05,0.04-0.16,0.04-0.33c0-0.22-0.08-0.38-0.23-0.48
		c-0.16-0.1-0.39-0.16-0.71-0.16s-0.57,0.06-0.74,0.19c-0.17,0.14-0.25,0.33-0.25,0.58H82.6v-0.03c0-0.42,0.15-0.76,0.45-1
		c0.3-0.25,0.7-0.37,1.22-0.37c0.56,0,0.98,0.1,1.24,0.31c0.26,0.21,0.39,0.54,0.39,0.98v2.1c0,0.18,0.02,0.3,0.06,0.34
		c0.04,0.06,0.11,0.08,0.22,0.08c0.02,0,0.05,0,0.08-0.01c0.02,0,0.06-0.01,0.1-0.02v0.54c-0.09,0.02-0.16,0.04-0.22,0.05
		c-0.06,0.01-0.13,0.02-0.18,0.02c-0.23,0-0.41-0.05-0.53-0.15c-0.11-0.1-0.18-0.26-0.18-0.46V27.83z M80,28.39v-4.18h0.68v0.75
		c0.11-0.28,0.26-0.5,0.46-0.63c0.19-0.14,0.42-0.21,0.7-0.21c0.06,0,0.09,0,0.11,0c0.02,0,0.05,0.01,0.07,0.01v0.74
		c-0.02,0-0.04-0.01-0.06-0.01c-0.02,0-0.06,0-0.1,0c-0.38,0-0.66,0.1-0.86,0.3c-0.2,0.21-0.3,0.5-0.3,0.9v2.33H80z M78.18,26.26
		c-0.18,0.1-0.51,0.18-0.97,0.24c-0.16,0.02-0.28,0.03-0.36,0.05c-0.26,0.04-0.44,0.12-0.55,0.22c-0.11,0.11-0.17,0.27-0.17,0.48
		c0,0.21,0.06,0.37,0.2,0.48c0.13,0.11,0.31,0.17,0.55,0.17c0.38,0,0.69-0.1,0.94-0.29c0.24-0.19,0.36-0.43,0.36-0.73V26.26z
		 M78.24,27.83c-0.22,0.23-0.45,0.4-0.7,0.51c-0.25,0.12-0.5,0.18-0.78,0.18c-0.42,0-0.76-0.11-1-0.34
		c-0.24-0.22-0.36-0.53-0.36-0.92c0-0.38,0.12-0.68,0.35-0.9c0.24-0.22,0.6-0.35,1.08-0.42c0.12-0.02,0.29-0.03,0.5-0.06
		c0.36-0.03,0.58-0.07,0.66-0.1c0.08-0.03,0.14-0.07,0.16-0.13c0.02-0.05,0.04-0.16,0.04-0.33c0-0.22-0.08-0.38-0.23-0.48
		c-0.16-0.1-0.39-0.16-0.71-0.16c-0.32,0-0.57,0.06-0.74,0.19c-0.17,0.14-0.25,0.33-0.25,0.58H75.6v-0.03c0-0.42,0.15-0.76,0.45-1
		c0.3-0.25,0.7-0.37,1.22-0.37c0.56,0,0.98,0.1,1.24,0.31c0.26,0.21,0.39,0.54,0.39,0.98v2.1c0,0.18,0.02,0.3,0.06,0.34
		c0.04,0.06,0.11,0.08,0.22,0.08c0.02,0,0.05,0,0.08-0.01c0.02,0,0.06-0.01,0.1-0.02v0.54c-0.09,0.02-0.16,0.04-0.22,0.05
		c-0.06,0.01-0.13,0.02-0.18,0.02c-0.23,0-0.41-0.05-0.53-0.15c-0.11-0.1-0.18-0.26-0.18-0.46V27.83z"/>
	<path class="st13" d="M141.46,37.98l-1.25-4.18h0.73l0.89,3.2l0.82-3.2h0.82l0.82,3.2l0.92-3.2h0.72l-1.27,4.18h-0.71l-0.88-3.22
		l-0.89,3.22H141.46z M135.83,35.88c0-0.7,0.18-1.25,0.53-1.64c0.35-0.39,0.84-0.58,1.47-0.58c0.64,0,1.13,0.19,1.48,0.58
		c0.35,0.39,0.53,0.94,0.53,1.64c0,0.7-0.18,1.25-0.53,1.64c-0.34,0.39-0.84,0.58-1.47,0.58c-0.63,0-1.13-0.19-1.48-0.58
		C136,37.13,135.83,36.59,135.83,35.88 M136.55,35.88c0,0.51,0.11,0.91,0.34,1.18c0.22,0.28,0.54,0.42,0.95,0.42
		c0.41,0,0.73-0.14,0.94-0.42c0.22-0.27,0.33-0.67,0.33-1.18c0-0.52-0.11-0.91-0.33-1.19c-0.22-0.27-0.54-0.41-0.94-0.41
		c-0.42,0-0.74,0.14-0.95,0.41C136.66,34.96,136.55,35.36,136.55,35.88z M134.28,37.98V35.4c0-0.41-0.06-0.7-0.19-0.86
		c-0.12-0.15-0.34-0.23-0.65-0.23c-0.39,0-0.7,0.11-0.91,0.34c-0.22,0.22-0.33,0.54-0.33,0.94v2.38h-0.7V33.8h0.67v0.61
		c0.16-0.24,0.35-0.42,0.58-0.54c0.22-0.12,0.48-0.18,0.77-0.18c0.31,0,0.58,0.05,0.8,0.14c0.22,0.1,0.38,0.23,0.5,0.42
		c0.06,0.1,0.11,0.22,0.14,0.36c0.02,0.14,0.04,0.35,0.04,0.65v0.2v2.51H134.28z M127.53,37.98V35.4c0-0.41-0.06-0.7-0.19-0.86
		c-0.12-0.15-0.34-0.23-0.65-0.23c-0.39,0-0.7,0.11-0.91,0.34c-0.22,0.22-0.33,0.54-0.33,0.94v2.38h-0.7V33.8h0.67v0.61
		c0.16-0.24,0.35-0.42,0.58-0.54c0.22-0.12,0.48-0.18,0.77-0.18c0.31,0,0.58,0.05,0.8,0.14c0.22,0.1,0.38,0.23,0.5,0.42
		c0.06,0.1,0.11,0.22,0.14,0.36c0.02,0.14,0.04,0.35,0.04,0.65v0.2v2.51H127.53z M122.92,35.85c-0.18,0.1-0.51,0.18-0.97,0.24
		c-0.16,0.02-0.28,0.03-0.36,0.05c-0.26,0.04-0.44,0.12-0.55,0.22c-0.11,0.11-0.17,0.27-0.17,0.48c0,0.21,0.06,0.37,0.2,0.48
		c0.13,0.11,0.31,0.17,0.55,0.17c0.38,0,0.69-0.1,0.94-0.29c0.24-0.19,0.36-0.43,0.36-0.73V35.85z M122.99,37.42
		c-0.22,0.23-0.45,0.4-0.7,0.51c-0.25,0.12-0.5,0.18-0.78,0.18c-0.42,0-0.76-0.11-1-0.34c-0.24-0.22-0.36-0.53-0.36-0.92
		c0-0.38,0.12-0.68,0.35-0.9c0.24-0.22,0.6-0.35,1.08-0.42c0.12-0.02,0.29-0.03,0.5-0.06c0.36-0.03,0.58-0.07,0.66-0.1
		c0.08-0.03,0.14-0.07,0.16-0.13c0.02-0.05,0.04-0.16,0.04-0.33c0-0.22-0.08-0.38-0.23-0.48c-0.16-0.1-0.39-0.16-0.71-0.16
		c-0.32,0-0.57,0.06-0.74,0.19c-0.17,0.14-0.25,0.33-0.25,0.58h-0.66v-0.03c0-0.42,0.15-0.76,0.45-1c0.3-0.25,0.7-0.37,1.22-0.37
		c0.56,0,0.98,0.1,1.24,0.31c0.26,0.21,0.39,0.54,0.39,0.98v2.1c0,0.18,0.02,0.3,0.06,0.34c0.04,0.06,0.11,0.08,0.22,0.08
		c0.02,0,0.05,0,0.08-0.01c0.02,0,0.06-0.01,0.1-0.02V38c-0.09,0.02-0.16,0.04-0.22,0.05c-0.06,0.01-0.13,0.02-0.18,0.02
		c-0.23,0-0.41-0.05-0.53-0.15c-0.11-0.1-0.18-0.26-0.18-0.46V37.42z M118.98,35.19c-0.02-0.29-0.12-0.51-0.31-0.66
		c-0.18-0.15-0.44-0.23-0.76-0.23c-0.38,0-0.67,0.14-0.88,0.41c-0.21,0.27-0.31,0.66-0.31,1.18c0,0.5,0.1,0.9,0.3,1.18
		c0.2,0.28,0.49,0.42,0.85,0.42c0.33,0,0.59-0.09,0.78-0.26c0.2-0.17,0.32-0.42,0.37-0.74h0.67c-0.03,0.51-0.22,0.91-0.54,1.2
		c-0.33,0.29-0.76,0.43-1.31,0.43c-0.58,0-1.02-0.2-1.35-0.59c-0.32-0.39-0.49-0.93-0.49-1.62c0-0.7,0.17-1.25,0.51-1.65
		c0.34-0.39,0.81-0.59,1.41-0.59c0.53,0,0.94,0.14,1.26,0.41c0.31,0.28,0.48,0.65,0.5,1.12H118.98z M112.24,37.98V35.4
		c0-0.42-0.06-0.71-0.17-0.86c-0.12-0.15-0.32-0.23-0.6-0.23c-0.34,0-0.6,0.1-0.79,0.31c-0.18,0.21-0.28,0.5-0.28,0.89v2.47h-0.71
		V35.4c0-0.42-0.06-0.71-0.17-0.86c-0.12-0.15-0.31-0.23-0.6-0.23c-0.34,0-0.6,0.1-0.78,0.32c-0.19,0.21-0.29,0.5-0.29,0.88v2.47
		h-0.7V33.8h0.67v0.59c0.16-0.24,0.34-0.41,0.55-0.53c0.22-0.11,0.46-0.17,0.75-0.17c0.26,0,0.48,0.05,0.67,0.16
		c0.18,0.1,0.34,0.27,0.47,0.5c0.18-0.22,0.38-0.39,0.6-0.5c0.22-0.11,0.46-0.16,0.74-0.16c0.27,0,0.5,0.05,0.7,0.14
		c0.21,0.1,0.36,0.24,0.46,0.42c0.06,0.1,0.1,0.23,0.13,0.38c0.02,0.15,0.04,0.38,0.04,0.7v0.12v2.51H112.24z M102.28,35.88
		c0-0.7,0.18-1.25,0.53-1.64c0.35-0.39,0.84-0.58,1.47-0.58c0.64,0,1.13,0.19,1.48,0.58c0.35,0.39,0.53,0.94,0.53,1.64
		c0,0.7-0.18,1.25-0.53,1.64c-0.34,0.39-0.84,0.58-1.47,0.58c-0.63,0-1.13-0.19-1.48-0.58C102.46,37.13,102.28,36.59,102.28,35.88
		 M103,35.88c0,0.51,0.11,0.91,0.34,1.18c0.22,0.28,0.54,0.42,0.95,0.42c0.41,0,0.73-0.14,0.94-0.42c0.22-0.27,0.33-0.67,0.33-1.18
		c0-0.52-0.11-0.91-0.33-1.19c-0.22-0.27-0.54-0.41-0.94-0.41c-0.42,0-0.74,0.14-0.95,0.41C103.12,34.96,103,35.36,103,35.88z
		 M101.08,35.19c-0.02-0.29-0.12-0.51-0.31-0.66c-0.18-0.15-0.44-0.23-0.76-0.23c-0.38,0-0.67,0.14-0.88,0.41
		c-0.21,0.27-0.31,0.66-0.31,1.18c0,0.5,0.1,0.9,0.3,1.18c0.2,0.28,0.49,0.42,0.85,0.42c0.33,0,0.59-0.09,0.78-0.26
		c0.2-0.17,0.32-0.42,0.37-0.74h0.67c-0.03,0.51-0.22,0.91-0.54,1.2c-0.33,0.29-0.76,0.43-1.31,0.43c-0.58,0-1.02-0.2-1.35-0.59
		c-0.32-0.39-0.49-0.93-0.49-1.62c0-0.7,0.17-1.25,0.51-1.65c0.34-0.39,0.81-0.59,1.41-0.59c0.53,0,0.94,0.14,1.26,0.41
		c0.31,0.28,0.48,0.65,0.5,1.12H101.08z M96.27,37.98v-0.87h0.8v0.87H96.27z M94.36,37.47c-0.16,0.22-0.35,0.38-0.58,0.49
		c-0.22,0.1-0.47,0.16-0.75,0.16c-0.57,0-1.02-0.21-1.36-0.62c-0.34-0.41-0.52-0.95-0.52-1.62c0-0.67,0.18-1.21,0.52-1.61
		c0.34-0.41,0.8-0.61,1.37-0.61c0.28,0,0.52,0.05,0.73,0.16c0.21,0.1,0.41,0.27,0.58,0.5V33.8h0.69v4.1c0,0.65-0.15,1.11-0.46,1.4
		c-0.3,0.29-0.8,0.43-1.49,0.43c-0.55,0-0.98-0.1-1.3-0.33c-0.31-0.22-0.47-0.51-0.47-0.9v-0.03H92v0.02c0,0.22,0.1,0.38,0.28,0.49
		c0.18,0.1,0.46,0.16,0.82,0.16c0.45,0,0.76-0.09,0.96-0.26c0.19-0.17,0.29-0.45,0.29-0.83V37.47z M93.12,34.29
		c-0.39,0-0.7,0.14-0.91,0.42c-0.22,0.27-0.32,0.67-0.32,1.18c0,0.5,0.11,0.89,0.33,1.17c0.22,0.28,0.53,0.42,0.91,0.42
		c0.43,0,0.74-0.13,0.95-0.38c0.2-0.26,0.3-0.66,0.3-1.18c0-0.54-0.1-0.94-0.32-1.22C93.85,34.43,93.53,34.29,93.12,34.29z
		 M89.57,37.98V33.8h0.7v4.18H89.57z M89.57,33.03v-0.8h0.7v0.8H89.57z M87.75,35.85c-0.18,0.1-0.51,0.18-0.97,0.24
		c-0.16,0.02-0.28,0.03-0.36,0.05c-0.26,0.04-0.44,0.12-0.55,0.22c-0.11,0.11-0.17,0.27-0.17,0.48c0,0.21,0.06,0.37,0.2,0.48
		c0.13,0.11,0.31,0.17,0.55,0.17c0.38,0,0.69-0.1,0.94-0.29c0.24-0.19,0.36-0.43,0.36-0.73V35.85z M87.81,37.42
		c-0.22,0.23-0.45,0.4-0.7,0.51c-0.25,0.12-0.5,0.18-0.78,0.18c-0.42,0-0.76-0.11-1-0.34c-0.24-0.22-0.36-0.53-0.36-0.92
		c0-0.38,0.12-0.68,0.35-0.9c0.24-0.22,0.6-0.35,1.08-0.42c0.12-0.02,0.29-0.03,0.5-0.06c0.36-0.03,0.58-0.07,0.66-0.1
		c0.08-0.03,0.14-0.07,0.16-0.13c0.02-0.05,0.04-0.16,0.04-0.33c0-0.22-0.08-0.38-0.23-0.48c-0.16-0.1-0.39-0.16-0.71-0.16
		c-0.32,0-0.57,0.06-0.74,0.19c-0.17,0.14-0.25,0.33-0.25,0.58h-0.66v-0.03c0-0.42,0.15-0.76,0.45-1c0.3-0.25,0.7-0.37,1.22-0.37
		c0.56,0,0.98,0.1,1.24,0.31c0.26,0.21,0.39,0.54,0.39,0.98v2.1c0,0.18,0.02,0.3,0.06,0.34c0.04,0.06,0.11,0.08,0.22,0.08
		c0.02,0,0.05,0,0.08-0.01c0.02,0,0.06-0.01,0.1-0.02V38c-0.09,0.02-0.16,0.04-0.22,0.05c-0.06,0.01-0.13,0.02-0.18,0.02
		c-0.23,0-0.41-0.05-0.53-0.15c-0.11-0.1-0.18-0.26-0.18-0.46V37.42z M83.4,35.85c-0.18,0.1-0.51,0.18-0.97,0.24
		c-0.16,0.02-0.28,0.03-0.36,0.05c-0.26,0.04-0.44,0.12-0.55,0.22c-0.11,0.11-0.17,0.27-0.17,0.48c0,0.21,0.06,0.37,0.2,0.48
		c0.13,0.11,0.31,0.17,0.55,0.17c0.38,0,0.69-0.1,0.94-0.29c0.24-0.19,0.36-0.43,0.36-0.73V35.85z M83.47,37.42
		c-0.22,0.23-0.45,0.4-0.7,0.51c-0.25,0.12-0.5,0.18-0.78,0.18c-0.42,0-0.76-0.11-1-0.34c-0.24-0.22-0.36-0.53-0.36-0.92
		c0-0.38,0.12-0.68,0.35-0.9c0.24-0.22,0.6-0.35,1.08-0.42c0.12-0.02,0.29-0.03,0.5-0.06c0.36-0.03,0.58-0.07,0.66-0.1
		c0.08-0.03,0.14-0.07,0.16-0.13c0.02-0.05,0.04-0.16,0.04-0.33c0-0.22-0.08-0.38-0.23-0.48c-0.16-0.1-0.39-0.16-0.71-0.16
		c-0.32,0-0.57,0.06-0.74,0.19c-0.17,0.14-0.25,0.33-0.25,0.58h-0.66v-0.03c0-0.42,0.15-0.76,0.45-1c0.3-0.25,0.7-0.37,1.22-0.37
		c0.56,0,0.98,0.1,1.24,0.31c0.26,0.21,0.39,0.54,0.39,0.98v2.1c0,0.18,0.02,0.3,0.06,0.34c0.04,0.06,0.11,0.08,0.22,0.08
		c0.02,0,0.05,0,0.08-0.01c0.02,0,0.06-0.01,0.1-0.02V38c-0.09,0.02-0.16,0.04-0.22,0.05c-0.06,0.01-0.13,0.02-0.18,0.02
		c-0.23,0-0.41-0.05-0.53-0.15c-0.11-0.1-0.18-0.26-0.18-0.46V37.42z M79.46,36.92c0,0.19,0.02,0.31,0.08,0.38
		c0.06,0.06,0.15,0.1,0.3,0.1c0.04,0,0.09,0,0.15-0.01c0.06,0,0.13-0.01,0.22-0.02v0.6c-0.12,0.02-0.22,0.04-0.31,0.05
		c-0.1,0.01-0.18,0.02-0.25,0.02c-0.33,0-0.56-0.06-0.7-0.19c-0.14-0.13-0.2-0.35-0.2-0.68v-2.81h-0.62V33.8h0.62v-1.17h0.7v1.17
		h0.75v0.56h-0.75V36.92z M76.81,35.85c-0.18,0.1-0.51,0.18-0.97,0.24c-0.16,0.02-0.28,0.03-0.36,0.05
		c-0.26,0.04-0.44,0.12-0.55,0.22c-0.11,0.11-0.17,0.27-0.17,0.48c0,0.21,0.06,0.37,0.2,0.48c0.13,0.11,0.31,0.17,0.55,0.17
		c0.38,0,0.69-0.1,0.94-0.29c0.24-0.19,0.36-0.43,0.36-0.73V35.85z M76.88,37.42c-0.22,0.23-0.45,0.4-0.7,0.51
		c-0.25,0.12-0.5,0.18-0.78,0.18c-0.42,0-0.76-0.11-1-0.34c-0.24-0.22-0.36-0.53-0.36-0.92c0-0.38,0.12-0.68,0.35-0.9
		c0.24-0.22,0.6-0.35,1.08-0.42c0.12-0.02,0.29-0.03,0.5-0.06c0.36-0.03,0.58-0.07,0.66-0.1c0.08-0.03,0.14-0.07,0.16-0.13
		c0.02-0.05,0.04-0.16,0.04-0.33c0-0.22-0.08-0.38-0.23-0.48c-0.16-0.1-0.39-0.16-0.71-0.16c-0.32,0-0.57,0.06-0.74,0.19
		c-0.17,0.14-0.25,0.33-0.25,0.58h-0.66v-0.03c0-0.42,0.15-0.76,0.45-1c0.3-0.25,0.7-0.37,1.22-0.37c0.56,0,0.98,0.1,1.24,0.31
		c0.26,0.21,0.39,0.54,0.39,0.98v2.1c0,0.18,0.02,0.3,0.06,0.34c0.04,0.06,0.11,0.08,0.22,0.08c0.02,0,0.05,0,0.08-0.01
		c0.02,0,0.06-0.01,0.1-0.02V38c-0.09,0.02-0.16,0.04-0.22,0.05c-0.06,0.01-0.13,0.02-0.18,0.02c-0.23,0-0.41-0.05-0.53-0.15
		c-0.11-0.1-0.18-0.26-0.18-0.46V37.42z M72.87,36.92c0,0.19,0.02,0.31,0.08,0.38c0.06,0.06,0.15,0.1,0.3,0.1
		c0.04,0,0.09,0,0.15-0.01c0.06,0,0.13-0.01,0.22-0.02v0.6c-0.12,0.02-0.22,0.04-0.31,0.05c-0.1,0.01-0.18,0.02-0.25,0.02
		c-0.33,0-0.56-0.06-0.7-0.19c-0.14-0.13-0.2-0.35-0.2-0.68v-2.81h-0.62V33.8h0.62v-1.17h0.7v1.17h0.75v0.56h-0.75V36.92z"/>
	<path class="st13" d="M142.4,47.57v-4.18h0.68v0.75c0.11-0.28,0.26-0.5,0.46-0.63c0.19-0.14,0.42-0.21,0.7-0.21
		c0.06,0,0.09,0,0.11,0s0.05,0.01,0.07,0.01v0.74c-0.02,0-0.04-0.01-0.06-0.01c-0.02,0-0.06,0-0.1,0c-0.38,0-0.66,0.1-0.86,0.3
		c-0.2,0.21-0.3,0.5-0.3,0.9v2.33H142.4z M138.55,43.39v2.57c0,0.41,0.06,0.7,0.19,0.86c0.13,0.16,0.35,0.24,0.66,0.24
		c0.41,0,0.71-0.12,0.92-0.36c0.21-0.24,0.31-0.58,0.31-1.05v-2.26h0.7v4.18h-0.67v-0.62c-0.14,0.24-0.34,0.42-0.57,0.54
		c-0.23,0.12-0.5,0.18-0.82,0.18c-0.29,0-0.54-0.05-0.76-0.15c-0.22-0.1-0.38-0.24-0.5-0.42c-0.06-0.1-0.11-0.22-0.14-0.36
		c-0.02-0.14-0.04-0.35-0.04-0.65v-0.2v-2.51H138.55z M132.99,45.47c0-0.7,0.18-1.25,0.53-1.64c0.35-0.39,0.84-0.58,1.47-0.58
		c0.64,0,1.13,0.19,1.48,0.58c0.35,0.39,0.53,0.94,0.53,1.64c0,0.7-0.18,1.25-0.53,1.64c-0.34,0.39-0.84,0.58-1.47,0.58
		c-0.63,0-1.13-0.19-1.48-0.58C133.16,46.72,132.99,46.18,132.99,45.47 M133.71,45.47c0,0.51,0.11,0.91,0.34,1.18
		c0.22,0.28,0.54,0.42,0.95,0.42c0.41,0,0.73-0.14,0.94-0.42c0.22-0.27,0.33-0.67,0.33-1.18c0-0.52-0.11-0.91-0.33-1.19
		c-0.22-0.27-0.54-0.41-0.94-0.41c-0.42,0-0.74,0.14-0.95,0.41C133.82,44.55,133.71,44.95,133.71,45.47z M131.8,43.39h0.78
		l-1.76,4.83c-0.17,0.46-0.34,0.75-0.5,0.9c-0.17,0.14-0.42,0.21-0.74,0.21c-0.06,0-0.14-0.01-0.21-0.02
		c-0.06-0.02-0.14-0.03-0.21-0.05v-0.67c0.07,0.02,0.14,0.04,0.21,0.05c0.06,0.01,0.14,0.02,0.2,0.02c0.14,0,0.25-0.02,0.33-0.08
		c0.09-0.06,0.15-0.14,0.19-0.26l0.18-0.5l-1.58-4.42h0.78l1.16,3.38L131.8,43.39z M121.9,47.57l-1.25-4.18h0.73l0.89,3.2l0.82-3.2
		h0.82l0.82,3.2l0.92-3.2h0.72l-1.27,4.18h-0.71l-0.88-3.22l-0.89,3.22H121.9z M119.57,46.22h0.7c-0.07,0.46-0.27,0.82-0.6,1.09
		c-0.33,0.26-0.74,0.4-1.23,0.4c-0.58,0-1.04-0.19-1.38-0.58c-0.34-0.39-0.5-0.93-0.5-1.6c0-0.71,0.17-1.27,0.5-1.67
		c0.33-0.4,0.79-0.6,1.38-0.6c0.6,0,1.06,0.18,1.39,0.55c0.34,0.37,0.5,0.9,0.5,1.57c0,0.09,0,0.15,0,0.19
		c0,0.04-0.01,0.08-0.01,0.12h-3.02c0.01,0.44,0.11,0.78,0.33,1.02c0.21,0.24,0.5,0.36,0.87,0.36c0.29,0,0.53-0.07,0.71-0.22
		C119.4,46.7,119.52,46.49,119.57,46.22 M117.29,45.1h2.3c0-0.39-0.1-0.7-0.3-0.9c-0.19-0.22-0.47-0.32-0.83-0.32
		c-0.34,0-0.62,0.1-0.82,0.31C117.44,44.39,117.32,44.7,117.29,45.1z M114.99,47.57v-2.58c0-0.41-0.06-0.7-0.19-0.86
		c-0.12-0.15-0.34-0.23-0.65-0.23c-0.39,0-0.7,0.11-0.91,0.34c-0.22,0.22-0.33,0.54-0.33,0.94v2.38h-0.7v-4.18h0.67v0.61
		c0.16-0.24,0.35-0.42,0.58-0.54c0.22-0.12,0.48-0.18,0.77-0.18c0.31,0,0.58,0.05,0.8,0.14c0.22,0.1,0.38,0.23,0.5,0.42
		c0.06,0.1,0.11,0.22,0.14,0.36c0.02,0.14,0.04,0.35,0.04,0.65v0.2v2.51H114.99z M110.64,46.22h0.7c-0.07,0.46-0.27,0.82-0.6,1.09
		c-0.33,0.26-0.74,0.4-1.23,0.4c-0.58,0-1.04-0.19-1.38-0.58c-0.34-0.39-0.5-0.93-0.5-1.6c0-0.71,0.17-1.27,0.5-1.67
		c0.33-0.4,0.79-0.6,1.38-0.6c0.6,0,1.06,0.18,1.39,0.55c0.34,0.37,0.5,0.9,0.5,1.57c0,0.09,0,0.15,0,0.19
		c0,0.04-0.01,0.08-0.01,0.12h-3.02c0.01,0.44,0.11,0.78,0.33,1.02c0.21,0.24,0.5,0.36,0.87,0.36c0.29,0,0.53-0.07,0.71-0.22
		C110.47,46.7,110.59,46.49,110.64,46.22 M108.36,45.1h2.3c0-0.39-0.1-0.7-0.3-0.9c-0.19-0.22-0.47-0.32-0.83-0.32
		c-0.34,0-0.62,0.1-0.82,0.31C108.52,44.39,108.4,44.7,108.36,45.1z M105.17,47.57v-4.18h0.68v0.75c0.11-0.28,0.26-0.5,0.46-0.63
		c0.19-0.14,0.42-0.21,0.7-0.21c0.06,0,0.09,0,0.11,0s0.05,0.01,0.07,0.01v0.74c-0.02,0-0.04-0.01-0.06-0.01c-0.02,0-0.06,0-0.1,0
		c-0.38,0-0.66,0.1-0.86,0.3c-0.2,0.21-0.3,0.5-0.3,0.9v2.33H105.17z M99.12,43.39v2.57c0,0.41,0.06,0.7,0.19,0.86
		c0.13,0.16,0.35,0.24,0.66,0.24c0.41,0,0.71-0.12,0.92-0.36c0.21-0.24,0.31-0.58,0.31-1.05v-2.26h0.7v4.18h-0.67v-0.62
		c-0.14,0.24-0.34,0.42-0.57,0.54c-0.23,0.12-0.5,0.18-0.82,0.18c-0.29,0-0.54-0.05-0.76-0.15c-0.22-0.1-0.38-0.24-0.5-0.42
		c-0.06-0.1-0.11-0.22-0.14-0.36c-0.02-0.14-0.04-0.35-0.04-0.65v-0.2v-2.51H99.12z M93.56,45.47c0-0.7,0.18-1.25,0.53-1.64
		c0.35-0.39,0.84-0.58,1.47-0.58c0.64,0,1.13,0.19,1.48,0.58c0.35,0.39,0.53,0.94,0.53,1.64c0,0.7-0.18,1.25-0.53,1.64
		c-0.34,0.39-0.84,0.58-1.47,0.58c-0.63,0-1.13-0.19-1.48-0.58C93.74,46.72,93.56,46.18,93.56,45.47 M94.28,45.47
		c0,0.51,0.11,0.91,0.34,1.18c0.22,0.28,0.54,0.42,0.95,0.42c0.41,0,0.73-0.14,0.94-0.42c0.22-0.27,0.33-0.67,0.33-1.18
		c0-0.52-0.11-0.91-0.33-1.19c-0.22-0.27-0.54-0.41-0.94-0.41c-0.42,0-0.74,0.14-0.95,0.41C94.4,44.55,94.28,44.95,94.28,45.47z
		 M92.37,43.39h0.78l-1.76,4.83c-0.17,0.46-0.34,0.75-0.5,0.9c-0.17,0.14-0.42,0.21-0.74,0.21c-0.06,0-0.14-0.01-0.21-0.02
		c-0.06-0.02-0.14-0.03-0.21-0.05v-0.67c0.07,0.02,0.14,0.04,0.21,0.05c0.06,0.01,0.14,0.02,0.2,0.02c0.14,0,0.25-0.02,0.33-0.08
		c0.09-0.06,0.15-0.14,0.19-0.26l0.18-0.5l-1.58-4.42h0.78l1.16,3.38L92.37,43.39z M82.8,49.24v-5.86h0.69v0.59
		c0.18-0.26,0.37-0.44,0.58-0.55c0.22-0.12,0.48-0.18,0.78-0.18c0.56,0,1,0.2,1.34,0.6c0.33,0.4,0.5,0.94,0.5,1.62
		c0,0.68-0.17,1.22-0.5,1.62c-0.34,0.41-0.78,0.61-1.34,0.61c-0.29,0-0.55-0.05-0.78-0.16c-0.22-0.1-0.42-0.26-0.58-0.48v2.18H82.8z
		 M83.46,45.51c0,0.52,0.1,0.91,0.31,1.18c0.21,0.26,0.52,0.39,0.93,0.39c0.4,0,0.7-0.14,0.92-0.43c0.22-0.29,0.32-0.7,0.32-1.22
		c0-0.48-0.11-0.86-0.34-1.13c-0.22-0.27-0.52-0.41-0.91-0.41c-0.39,0-0.7,0.14-0.91,0.42C83.56,44.59,83.46,44.98,83.46,45.51z
		 M80.98,47.57v-5.75h0.71v5.75H80.98z M79.41,46.22h0.7c-0.07,0.46-0.27,0.82-0.6,1.09c-0.33,0.26-0.74,0.4-1.23,0.4
		c-0.58,0-1.04-0.19-1.38-0.58c-0.34-0.39-0.5-0.93-0.5-1.6c0-0.71,0.17-1.27,0.5-1.67c0.33-0.4,0.79-0.6,1.38-0.6
		c0.6,0,1.06,0.18,1.39,0.55c0.34,0.37,0.5,0.9,0.5,1.57c0,0.09,0,0.15,0,0.19c0,0.04-0.01,0.08-0.01,0.12h-3.02
		c0.01,0.44,0.11,0.78,0.33,1.02c0.21,0.24,0.5,0.36,0.87,0.36c0.29,0,0.53-0.07,0.71-0.22C79.24,46.7,79.36,46.49,79.41,46.22
		 M77.13,45.1h2.3c0-0.39-0.1-0.7-0.3-0.9c-0.19-0.22-0.47-0.32-0.83-0.32c-0.34,0-0.62,0.1-0.82,0.31
		C77.28,44.39,77.16,44.7,77.13,45.1z M74.83,47.57v-2.58c0-0.42-0.06-0.7-0.19-0.86c-0.12-0.15-0.34-0.23-0.65-0.23
		c-0.38,0-0.68,0.1-0.9,0.32c-0.22,0.22-0.34,0.5-0.34,0.87v2.47h-0.7v-5.75h0.7v2.16c0.13-0.23,0.3-0.4,0.53-0.52
		c0.22-0.12,0.49-0.18,0.78-0.18c0.31,0,0.58,0.05,0.8,0.14c0.22,0.1,0.38,0.23,0.5,0.42c0.06,0.1,0.11,0.22,0.14,0.36
		c0.02,0.14,0.04,0.35,0.04,0.65v0.2v2.51H74.83z"/>
	<path class="st13" d="M91.88,52.97h0.78l-1.76,4.83c-0.17,0.46-0.34,0.75-0.5,0.9c-0.17,0.14-0.42,0.21-0.74,0.21
		c-0.06,0-0.14-0.01-0.21-0.02c-0.06-0.02-0.14-0.03-0.21-0.05v-0.67c0.07,0.02,0.14,0.04,0.21,0.05c0.06,0.01,0.14,0.02,0.2,0.02
		c0.14,0,0.25-0.02,0.33-0.08c0.09-0.06,0.15-0.14,0.19-0.26l0.18-0.5l-1.58-4.42h0.78l1.16,3.38L91.88,52.97z M87.8,54.37
		c-0.02-0.29-0.12-0.51-0.31-0.66c-0.18-0.15-0.44-0.23-0.76-0.23c-0.38,0-0.67,0.14-0.88,0.41c-0.21,0.27-0.31,0.66-0.31,1.18
		c0,0.5,0.1,0.9,0.3,1.18c0.2,0.28,0.49,0.42,0.85,0.42c0.33,0,0.59-0.09,0.78-0.26c0.2-0.17,0.32-0.42,0.37-0.74h0.67
		c-0.03,0.51-0.22,0.91-0.54,1.2c-0.33,0.29-0.76,0.43-1.31,0.43c-0.58,0-1.02-0.2-1.35-0.59c-0.32-0.39-0.49-0.93-0.49-1.62
		c0-0.7,0.17-1.25,0.51-1.65c0.34-0.39,0.81-0.59,1.41-0.59c0.53,0,0.94,0.14,1.26,0.41c0.31,0.28,0.48,0.65,0.5,1.12H87.8z
		 M83.25,57.16v-4.18h0.7v4.18H83.25z M83.25,52.21v-0.8h0.7v0.8H83.25z M81.45,57.16v-5.75h0.71v5.75H81.45z M76.58,55.06
		c0-0.7,0.18-1.25,0.53-1.64c0.35-0.39,0.84-0.58,1.47-0.58c0.64,0,1.13,0.19,1.48,0.58c0.35,0.39,0.53,0.94,0.53,1.64
		c0,0.7-0.18,1.25-0.53,1.64c-0.34,0.39-0.84,0.58-1.47,0.58c-0.63,0-1.13-0.19-1.48-0.58C76.76,56.31,76.58,55.77,76.58,55.06
		 M77.3,55.06c0,0.51,0.11,0.91,0.34,1.18c0.22,0.28,0.54,0.42,0.95,0.42c0.41,0,0.73-0.14,0.94-0.42c0.22-0.27,0.33-0.67,0.33-1.18
		c0-0.52-0.11-0.91-0.33-1.19c-0.22-0.27-0.54-0.41-0.94-0.41c-0.42,0-0.74,0.14-0.95,0.41C77.41,54.14,77.3,54.54,77.3,55.06z
		 M72.06,58.83v-5.86h0.69v0.59c0.18-0.26,0.37-0.44,0.58-0.55c0.22-0.12,0.48-0.18,0.78-0.18c0.56,0,1,0.2,1.34,0.6
		c0.33,0.4,0.5,0.94,0.5,1.62c0,0.68-0.17,1.22-0.5,1.62c-0.34,0.41-0.78,0.61-1.34,0.61c-0.29,0-0.55-0.05-0.78-0.16
		c-0.22-0.1-0.42-0.26-0.58-0.48v2.18H72.06z M72.72,55.09c0,0.52,0.1,0.91,0.31,1.18c0.21,0.26,0.52,0.39,0.93,0.39
		c0.4,0,0.7-0.14,0.92-0.43c0.22-0.29,0.32-0.7,0.32-1.22c0-0.48-0.11-0.86-0.34-1.13c-0.22-0.27-0.52-0.41-0.91-0.41
		s-0.7,0.14-0.91,0.42C72.83,54.17,72.72,54.57,72.72,55.09z"/>
	<g>
		<defs>
			<path id="SVGID_4_" d="M32.34,13.67c-12.09,0-21.88,9.8-21.88,21.88c0,12.08,9.8,21.88,21.88,21.88h1.25
				c12.09,0,21.88-9.8,21.88-21.88c0-12.09-9.8-21.88-21.88-21.88H32.34z"/>
		</defs>
		<clipPath id="SVGID_6_">
			<use xlink:href="#SVGID_4_"  style="overflow:visible;"/>
		</clipPath>
		<linearGradient id="SVGID_8_" gradientUnits="userSpaceOnUse" x1="51.8083" y1="49.5304" x2="16.2883" y2="23.1804">
			<stop  offset="0" style="stop-color:#E5E6EB"/>
			<stop  offset="1" style="stop-color:#EFF0F3"/>
		</linearGradient>
		<rect x="10.46" y="13.67" style="clip-path:url(#SVGID_6_);fill:url(#SVGID_8_);" width="45.02" height="43.77"/>
	</g>
	<g>
		<defs>
			<path id="SVGID_3_" d="M31.6,20.82c-0.18,0.65,0.2,1.33,0.85,1.51v1.01h-2.32c-7.31,0.07-13.22,5.98-13.29,13.29
				c-0.07,7.41,5.88,13.48,13.29,13.55h5.37c7.31-0.07,13.22-5.98,13.29-13.29c0.07-7.41-5.88-13.48-13.29-13.55h-2.39v-1.01
				c0.42-0.11,0.74-0.44,0.86-0.86c0.18-0.65-0.2-1.33-0.86-1.51c-0.11-0.03-0.22-0.04-0.33-0.04
				C32.24,19.92,31.75,20.28,31.6,20.82z"/>
		</defs>
		<clipPath id="SVGID_10_">
			<use xlink:href="#SVGID_3_"  style="overflow:visible;"/>
		</clipPath>
		<linearGradient id="SVGID_12_" gradientUnits="userSpaceOnUse" x1="61.4495" y1="35.2" x2="2.6595" y2="34.9">
			<stop  offset="0" style="stop-color:#195DFF"/>
			<stop  offset="0.16" style="stop-color:#264A9F"/>
			<stop  offset="1" style="stop-color:#35D3E1"/>
		</linearGradient>
		<rect x="16.77" y="19.92" style="clip-path:url(#SVGID_10_);fill:url(#SVGID_12_);" width="32.1" height="30.27"/>
	</g>
	<path class="st0" d="M28.08,36.29c-0.35,0-0.63-0.28-0.63-0.63v-4.11c0-0.35,0.28-0.63,0.63-0.63c0.35,0,0.63,0.28,0.63,0.63v0
		v4.11C28.71,36.01,28.43,36.29,28.08,36.29"/>
	<path class="st0" d="M37.55,36.29c-0.35,0-0.63-0.28-0.63-0.63v-4.11c0-0.35,0.28-0.63,0.63-0.63c0.35,0,0.63,0.28,0.63,0.63v4.11
		C38.18,36.01,37.9,36.29,37.55,36.29"/>
</g>
</svg>
