<?xml version="1.0" encoding="utf-8"?>
<!-- Generator: Adobe Illustrator 24.2.3, SVG Export Plug-In . SVG Version: 6.00 Build 0)  -->
<svg version="1.1" id="Layer_1" xmlns="http://www.w3.org/2000/svg" xmlns:xlink="http://www.w3.org/1999/xlink" x="0px" y="0px"
	 viewBox="0 0 60.58 57.16" style="enable-background:new 0 0 60.58 57.16;" xml:space="preserve">
<style type="text/css">
	.st0{fill:#FFFFFF;}
	.st1{fill:none;stroke:#000000;stroke-width:0.67;stroke-linecap:square;stroke-miterlimit:10;}
	.st2{fill:none;stroke:#000000;stroke-width:0;stroke-miterlimit:10;}
	.st3{fill-rule:evenodd;clip-rule:evenodd;fill:#FFFFFF;}
	.st4{fill:none;stroke:#000000;stroke-width:0.67;stroke-miterlimit:10;}
	.st5{fill:#E6E7E7;}
	.st6{fill-rule:evenodd;clip-rule:evenodd;fill:#373435;}
	.st7{fill:#065CA8;}
	.st8{fill:#E73A3A;}
	.st9{fill:#E8282B;}
	.st10{fill-rule:evenodd;clip-rule:evenodd;fill:#E8282B;}
	.st11{fill-rule:evenodd;clip-rule:evenodd;fill:#F5F5F5;}
	.st12{fill:#D3D3D4;}
	.st13{fill:#2B2A29;}
	.st14{clip-path:url(#SVGID_19_);fill:url(#SVGID_20_);}
	.st15{clip-path:url(#SVGID_21_);fill:url(#SVGID_22_);}
	.st16{fill-rule:evenodd;clip-rule:evenodd;fill:#D5292D;}
	.st17{fill:none;stroke:#D9DADA;stroke-width:1.0001;stroke-miterlimit:2.613;}
	.st18{fill-rule:evenodd;clip-rule:evenodd;fill:#727271;}
	.st19{fill-rule:evenodd;clip-rule:evenodd;fill:#FEFEFE;}
	.st20{clip-path:url(#SVGID_24_);fill:url(#SVGID_25_);}
	.st21{fill:#727271;}
	.st22{clip-path:url(#SVGID_27_);fill:url(#SVGID_28_);}
	.st23{fill:#FEFEFE;}
	.st24{fill:#D5292D;}
	.st25{fill:#0D78B6;}
	.st26{fill:none;stroke:#0D78B6;stroke-width:0.5669;stroke-miterlimit:22.9256;}
	.st27{fill:#0077B6;}
	.st28{fill-rule:evenodd;clip-rule:evenodd;fill:#0C54A0;}
	.st29{fill-rule:evenodd;clip-rule:evenodd;fill:#007FC4;}
	.st30{fill:none;stroke:#D9DADA;stroke-width:0.5;stroke-miterlimit:2.613;}
	.st31{fill-rule:evenodd;clip-rule:evenodd;fill:#2B2A29;}
	.st32{fill:none;stroke:#2B2A29;stroke-width:0.216;stroke-miterlimit:2.6131;}
</style>
<g>
	<g>
		<path class="st31" d="M56.7,13.73c-2.44-2.29-6.74-2.11-12.79,0.52c-4.22,1.84-8.21,4.43-9.81,5.52
			c-2.3-1.69-8.26-6.01-11.53-7.91c-4.18-2.43-5.87-3.26-8.31-3.01c-2.89,0.29-3.76,2.69-3.8,2.79l-0.24,0.67l12.14,17.25
			l-0.78,0.62c-0.3-0.11-0.61-0.19-0.94-0.19c-1.45,0-2.63,1.18-2.63,2.63c0,1.45,1.18,2.63,2.63,2.63c1.45,0,2.63-1.18,2.63-2.63
			c0-0.09-0.04-0.16-0.05-0.25l2.85-2.28L13.39,12.06c0.25-0.24,0.61-0.45,1.15-0.5c1.58-0.16,2.77,0.39,6.67,2.65
			c3.86,2.25,11.98,8.26,12.06,8.32l0.8,0.59l0.81-0.58c2.35-1.69,6.49-4.25,10.43-5.93c4.73-2.01,8.04-2.31,9.59-0.85
			c0.14,0.13,1.35,1.28,0,3.54c-0.54,0.9-6.41,5.04-39.33,22.56l2.93-5.82l-9.73-3.05l-0.13-0.03c-4.01-0.7-5.6,1.39-5.77,1.63
			l-0.49,0.7l2.97,5.27c-0.2,0.37-0.35,0.78-0.35,1.24c0,1.45,1.18,2.63,2.63,2.63c1.45,0,2.63-1.18,2.63-2.63
			c0-1.42-1.13-2.56-2.54-2.61l-1.94-3.44c0.48-0.18,1.22-0.3,2.32-0.12l6.48,2.04L9.06,48.41l5.03-2.66
			c27.29-14.36,41.81-22.79,43.16-25.04C59.31,17.27,57.8,14.65,56.7,13.73z"/>
	</g>
	<g>
		<path class="st13" d="M9.25,48.78l-0.57-0.56l5.29-10.3l-6.01-1.89c-0.58-0.09-1.11-0.09-1.57-0.02l1.57,2.78
			c1.54,0.17,2.71,1.45,2.71,3.01c0,1.68-1.37,3.04-3.04,3.04c-1.68,0-3.05-1.36-3.05-3.04c0-0.41,0.1-0.81,0.3-1.23l-2.99-5.3
			l0.63-0.91c0.19-0.26,1.93-2.54,6.19-1.81l0.15,0.04L19.1,35.8l-2.56,5.08c33.06-17.62,37.6-21.11,38-21.79
			c1.17-1.95,0.19-2.91,0.08-3.01c-1.42-1.35-4.58-1.02-9.15,0.92c-3.94,1.68-8.04,4.22-10.35,5.89l-1.06,0.75l-1.04-0.77
			c-1.43-1.05-8.51-6.25-12.03-8.3c-3.8-2.21-4.95-2.75-6.42-2.6c-0.23,0.02-0.44,0.08-0.62,0.18l12.67,18l-2.95,2.36
			c0,0.03,0.01,0.06,0.01,0.09c0,1.68-1.37,3.04-3.05,3.04s-3.05-1.36-3.05-3.04c0-1.96,1.85-3.55,3.91-2.9l0.29-0.24L9.76,12.36
			l0.31-0.87c0.11-0.29,1.13-2.75,4.15-3.06c2.59-0.27,4.29,0.58,8.57,3.07c3.17,1.84,8.8,5.91,11.32,7.76
			c1.69-1.14,5.54-3.61,9.64-5.39c6.2-2.7,10.65-2.85,13.23-0.45c1.18,1,2.83,3.83,0.62,7.51c-1.4,2.35-15.57,10.59-43.32,25.19
			L9.25,48.78z M7.08,35.13c0.34,0,0.7,0.03,1.09,0.09l7.01,2.2l-5.14,10l3.85-2.04C47.8,27.53,55.98,22,56.88,20.49
			c1.92-3.2,0.55-5.62-0.45-6.45l-0.02-0.02c-2.31-2.16-6.46-1.96-12.33,0.6c-4.25,1.85-8.23,4.45-9.74,5.48l-0.24,0.17l-0.24-0.18
			c-2.38-1.74-8.26-6-11.49-7.89c-4.09-2.38-5.76-3.2-8.06-2.96c-2.52,0.25-3.36,2.28-3.45,2.51l-0.17,0.46l12.25,17.39l-1.28,1.02
			l-0.22-0.09c-0.28-0.11-0.54-0.16-0.79-0.16c-1.22,0-2.21,0.99-2.21,2.21c0,1.22,0.99,2.21,2.21,2.21s2.21-0.99,2.21-2.21
			c-0.03-0.08-0.04-0.14-0.05-0.2l-0.03-0.23l2.73-2.18L12.84,12l0.26-0.25c0.37-0.35,0.84-0.55,1.4-0.61
			c1.71-0.16,2.93,0.39,6.92,2.71c3.56,2.07,10.67,7.29,12.06,8.32l0.6,0.44l0.57-0.4c2.35-1.69,6.51-4.27,10.51-5.98
			c4.95-2.11,8.34-2.37,10.04-0.77c0.16,0.14,1.59,1.53,0.08,4.06c-1.23,2.05-22.16,13.48-39.49,22.71l-0.57-0.56l2.71-5.38
			l-9.36-2.93c-3.71-0.64-5.19,1.25-5.34,1.47l-0.33,0.48l2.95,5.25l-0.11,0.2c-0.2,0.38-0.3,0.71-0.3,1.04
			c0,1.22,0.99,2.21,2.21,2.21c1.22,0,2.2-0.99,2.2-2.21c0-1.19-0.94-2.15-2.14-2.19l-0.23-0.01l-2.3-4.07l0.46-0.17
			C6.05,35.21,6.54,35.13,7.08,35.13z"/>
	</g>
</g>
</svg>
