<?xml version="1.0" encoding="utf-8"?>
<!-- Generator: Adobe Illustrator 24.2.3, SVG Export Plug-In . SVG Version: 6.00 Build 0)  -->
<svg version="1.1" id="Layer_1" xmlns="http://www.w3.org/2000/svg" xmlns:xlink="http://www.w3.org/1999/xlink" x="0px" y="0px"
	 viewBox="0 0 115.38 29.34" style="enable-background:new 0 0 115.38 29.34;" xml:space="preserve">
<style type="text/css">
	.st0{fill:#FFFFFF;}
	.st1{fill:none;stroke:#000000;stroke-width:0.67;stroke-linecap:square;stroke-miterlimit:10;}
	.st2{fill:none;stroke:#000000;stroke-width:0;stroke-miterlimit:10;}
	.st3{fill-rule:evenodd;clip-rule:evenodd;fill:#FFFFFF;}
	.st4{fill:none;stroke:#000000;stroke-width:0.67;stroke-miterlimit:10;}
	.st5{fill:#E6E7E7;}
	.st6{fill-rule:evenodd;clip-rule:evenodd;fill:#373435;}
	.st7{fill:#065CA8;}
	.st8{fill:#E73A3A;}
	.st9{fill:#E8282B;}
	.st10{fill-rule:evenodd;clip-rule:evenodd;fill:#E8282B;}
	.st11{fill-rule:evenodd;clip-rule:evenodd;fill:#F5F5F5;}
	.st12{fill:#D3D3D4;}
	.st13{fill:#2B2A29;}
	.st14{clip-path:url(#SVGID_19_);fill:url(#SVGID_20_);}
	.st15{clip-path:url(#SVGID_21_);fill:url(#SVGID_22_);}
	.st16{fill-rule:evenodd;clip-rule:evenodd;fill:#D5292D;}
	.st17{fill:none;stroke:#D9DADA;stroke-width:1.0001;stroke-miterlimit:2.613;}
	.st18{fill-rule:evenodd;clip-rule:evenodd;fill:#727271;}
	.st19{fill-rule:evenodd;clip-rule:evenodd;fill:#FEFEFE;}
	.st20{clip-path:url(#SVGID_24_);fill:url(#SVGID_25_);}
	.st21{fill:#727271;}
	.st22{clip-path:url(#SVGID_27_);fill:url(#SVGID_28_);}
	.st23{fill:#FEFEFE;}
	.st24{fill:#D5292D;}
	.st25{fill:#0D78B6;}
	.st26{fill:none;stroke:#0D78B6;stroke-width:0.5669;stroke-miterlimit:22.9256;}
	.st27{fill:#0077B6;}
	.st28{fill-rule:evenodd;clip-rule:evenodd;fill:#0C54A0;}
	.st29{fill-rule:evenodd;clip-rule:evenodd;fill:#007FC4;}
	.st30{fill:none;stroke:#D9DADA;stroke-width:0.5;stroke-miterlimit:2.613;}
	.st31{fill-rule:evenodd;clip-rule:evenodd;fill:#2B2A29;}
	.st32{fill:none;stroke:#2B2A29;stroke-width:0.216;stroke-miterlimit:2.6131;}
</style>
<g>
	<path class="st31" d="M11.55,20.46c-0.47,0.06-0.91,0.1-1.3,0.13c-0.39,0.03-0.71,0.04-0.97,0.04c-0.98,0-1.69-0.24-2.15-0.71
		c-0.46-0.47-0.69-1.22-0.69-2.24v-6.49H4.97v-1.9h1.48v-1.9l3.09-1.37v3.27h2.01v1.9H9.54v6.09c0,0.57,0.08,0.95,0.23,1.11
		c0.15,0.17,0.46,0.25,0.93,0.25c0.12,0,0.36-0.01,0.7-0.03c0.07-0.01,0.12-0.01,0.15-0.01V20.46z"/>
	<path class="st31" d="M18.8,14.95L18.8,14.95c-1.13,0-1.91,0.15-2.34,0.45c-0.43,0.3-0.65,0.84-0.65,1.6
		c0,0.55,0.11,0.98,0.32,1.29c0.22,0.31,0.51,0.46,0.89,0.46c0.57,0,1.01-0.24,1.31-0.73c0.31-0.48,0.46-1.18,0.46-2.09V14.95z
		 M13.13,12.22V12c0-0.98,0.38-1.72,1.13-2.22C15,9.27,16.1,9.02,17.54,9.02c1.43,0,2.48,0.26,3.14,0.79c0.67,0.52,1,1.35,1,2.48
		v5.6c0,0.5,0.02,0.96,0.05,1.4c0.04,0.44,0.09,0.85,0.16,1.24h-2.8l-0.24-1.28c-0.28,0.41-0.71,0.74-1.26,0.99
		c-0.56,0.25-1.15,0.38-1.77,0.38c-0.93,0-1.66-0.32-2.2-0.95c-0.54-0.63-0.81-1.49-0.81-2.56c0-1.26,0.39-2.2,1.18-2.8
		c0.79-0.61,2.05-0.96,3.8-1.05h0.99v-0.52c0-0.77-0.1-1.31-0.29-1.63c-0.19-0.31-0.52-0.47-0.97-0.47c-0.5,0-0.87,0.13-1.12,0.4
		c-0.25,0.27-0.38,0.66-0.38,1.18H13.13z"/>
	<path class="st31" d="M29.66,20.46c-0.47,0.06-0.91,0.1-1.29,0.13c-0.39,0.03-0.71,0.04-0.97,0.04c-0.97,0-1.69-0.24-2.15-0.71
		c-0.46-0.47-0.69-1.22-0.69-2.24v-6.49h-1.48v-1.9h1.48v-1.9l3.09-1.37v3.27h2.01v1.9h-2.01v6.09c0,0.57,0.08,0.95,0.23,1.11
		c0.15,0.17,0.46,0.25,0.93,0.25c0.12,0,0.36-0.01,0.7-0.03c0.07-0.01,0.12-0.01,0.15-0.01V20.46z"/>
	<path class="st31" d="M36.9,14.95L36.9,14.95c-1.13,0-1.91,0.15-2.34,0.45c-0.43,0.3-0.65,0.84-0.65,1.6
		c0,0.55,0.11,0.98,0.32,1.29c0.22,0.31,0.51,0.46,0.89,0.46c0.57,0,1.01-0.24,1.31-0.73c0.31-0.48,0.46-1.18,0.46-2.09V14.95z
		 M31.23,12.22V12c0-0.98,0.38-1.72,1.13-2.22c0.75-0.51,1.85-0.76,3.29-0.76c1.43,0,2.48,0.26,3.14,0.79c0.67,0.52,1,1.35,1,2.48
		v5.6c0,0.5,0.02,0.96,0.05,1.4c0.04,0.44,0.09,0.85,0.16,1.24h-2.8l-0.24-1.28c-0.28,0.41-0.71,0.74-1.26,0.99
		c-0.56,0.25-1.15,0.38-1.77,0.38c-0.93,0-1.66-0.32-2.2-0.95c-0.54-0.63-0.82-1.49-0.82-2.56c0-1.26,0.39-2.2,1.18-2.8
		c0.79-0.61,2.06-0.96,3.8-1.05h0.99v-0.52c0-0.77-0.1-1.31-0.29-1.63c-0.19-0.31-0.52-0.47-0.97-0.47c-0.5,0-0.87,0.13-1.12,0.4
		c-0.25,0.27-0.38,0.66-0.38,1.18H31.23z"/>
	<path class="st31" d="M47.62,14.95L47.62,14.95c-1.13,0-1.91,0.15-2.34,0.45c-0.43,0.3-0.65,0.84-0.65,1.6
		c0,0.55,0.11,0.98,0.32,1.29c0.21,0.31,0.51,0.46,0.89,0.46c0.57,0,1.01-0.24,1.31-0.73c0.31-0.48,0.46-1.18,0.46-2.09V14.95z
		 M41.95,12.22V12c0-0.98,0.38-1.72,1.13-2.22c0.75-0.51,1.85-0.76,3.29-0.76c1.43,0,2.48,0.26,3.14,0.79c0.67,0.52,1,1.35,1,2.48
		v5.6c0,0.5,0.02,0.96,0.05,1.4c0.04,0.44,0.09,0.85,0.16,1.24h-2.8l-0.24-1.28c-0.28,0.41-0.7,0.74-1.26,0.99
		c-0.56,0.25-1.15,0.38-1.76,0.38c-0.93,0-1.66-0.32-2.2-0.95c-0.54-0.63-0.82-1.49-0.82-2.56c0-1.26,0.39-2.2,1.18-2.8
		c0.79-0.61,2.05-0.96,3.8-1.05h0.99v-0.52c0-0.77-0.1-1.31-0.29-1.63c-0.19-0.31-0.52-0.47-0.97-0.47c-0.5,0-0.87,0.13-1.12,0.4
		c-0.25,0.27-0.38,0.66-0.38,1.18H41.95z"/>
	<path class="st31" d="M55.91,9.29L55.91,9.29v11.24h-3.16V9.29H55.91z M55.91,4.41v2.67h-3.16V4.41H55.91z"/>
	<path class="st31" d="M63.67,13.77L63.67,13.77c0-1.12-0.1-1.88-0.3-2.28c-0.2-0.4-0.56-0.6-1.07-0.6c-0.49,0-0.82,0.21-1,0.63
		c-0.18,0.42-0.27,1.5-0.27,3.23v0.26c0,1.54,0.1,2.55,0.29,3.03c0.19,0.49,0.53,0.73,1.02,0.73c0.44,0,0.78-0.21,0.99-0.63
		c0.22-0.42,0.33-1.07,0.33-1.93V13.77z M66.76,20.31c0,1.73-0.33,2.94-0.99,3.61c-0.66,0.67-1.81,1.01-3.45,1.01
		c-1.34,0-2.37-0.27-3.1-0.81c-0.73-0.54-1.09-1.31-1.09-2.29v-0.14l3.03,0.01c0.02,0.52,0.12,0.88,0.31,1.09
		c0.19,0.21,0.5,0.32,0.94,0.32c0.44,0,0.76-0.12,0.93-0.36c0.18-0.24,0.28-0.87,0.31-1.9v-1.28c-0.39,0.41-0.81,0.73-1.23,0.93
		c-0.43,0.2-0.89,0.31-1.38,0.31c-1.12,0-1.93-0.43-2.41-1.3c-0.48-0.87-0.73-2.34-0.73-4.41c0-1.43,0.05-2.47,0.15-3.11
		c0.1-0.64,0.26-1.16,0.5-1.57c0.25-0.44,0.6-0.78,1.06-1.02c0.46-0.24,0.98-0.37,1.56-0.37c0.57,0,1.07,0.12,1.5,0.35
		c0.43,0.23,0.76,0.56,0.98,0.99l0.11-1.07h3.07c-0.03,0.45-0.05,0.88-0.07,1.29c-0.01,0.41-0.02,0.81-0.02,1.19V20.31z"/>
	<rect x="69.24" y="17.53" class="st31" width="2.69" height="3"/>
	<path class="st31" d="M80.12,16.36h3.14c0,1.47-0.38,2.58-1.14,3.31c-0.76,0.74-1.9,1.1-3.43,1.1c-1.74,0-2.95-0.43-3.63-1.3
		c-0.68-0.87-1.02-2.47-1.02-4.82c0-2.02,0.36-3.46,1.08-4.33c0.72-0.87,1.91-1.31,3.57-1.31c1.46,0,2.58,0.36,3.38,1.08
		c0.79,0.72,1.19,1.73,1.19,3.04v0.11h-3.14v-0.11c0-0.72-0.12-1.26-0.36-1.61c-0.24-0.35-0.6-0.53-1.09-0.53
		c-0.55,0-0.94,0.25-1.14,0.74c-0.21,0.5-0.31,1.52-0.31,3.06c0,1.58,0.11,2.65,0.32,3.2c0.21,0.55,0.6,0.83,1.15,0.83
		c0.46,0,0.81-0.19,1.06-0.58c0.25-0.39,0.37-0.94,0.37-1.67V16.36z"/>
	<path class="st31" d="M88.07,14.8L88.07,14.8c0,1.58,0.11,2.65,0.32,3.2c0.21,0.55,0.6,0.83,1.15,0.83c0.56,0,0.94-0.28,1.15-0.83
		c0.22-0.55,0.32-1.62,0.32-3.2c0-1.55-0.11-2.57-0.32-3.07C90.49,11.24,90.09,11,89.53,11c-0.55,0-0.93,0.25-1.14,0.74
		C88.18,12.23,88.07,13.25,88.07,14.8 M89.61,9.02c1.62,0,2.79,0.44,3.5,1.31c0.71,0.87,1.07,2.32,1.07,4.33
		c0,2.35-0.34,3.96-1.02,4.83c-0.68,0.86-1.88,1.3-3.62,1.3c-1.74,0-2.95-0.43-3.63-1.3c-0.68-0.87-1.02-2.47-1.02-4.82
		c0-2.03,0.36-3.48,1.09-4.34C86.71,9.45,87.92,9.02,89.61,9.02z"/>
	<path class="st31" d="M99.3,10.45c0.25-0.47,0.6-0.82,1.02-1.07c0.43-0.24,0.92-0.37,1.49-0.37c0.73,0,1.34,0.15,1.84,0.45
		c0.5,0.3,0.85,0.73,1.05,1.28c0.29-0.58,0.66-1.01,1.1-1.3c0.44-0.29,0.97-0.43,1.56-0.43c0.98,0,1.74,0.25,2.26,0.76
		c0.52,0.51,0.78,1.24,0.78,2.2v8.55h-3.16v-7.67c0-0.74-0.08-1.25-0.23-1.51c-0.15-0.27-0.42-0.4-0.8-0.4
		c-0.41,0-0.74,0.15-0.99,0.44c-0.25,0.29-0.38,0.68-0.38,1.16v7.99h-3.16v-7.67c0-0.73-0.08-1.23-0.23-1.5
		c-0.16-0.27-0.43-0.41-0.81-0.41c-0.41,0-0.73,0.14-0.98,0.43c-0.24,0.29-0.37,0.68-0.37,1.16v7.99h-3.16V11.3
		c0-0.52-0.01-0.92-0.02-1.2c-0.01-0.28-0.04-0.55-0.08-0.82h3.17L99.3,10.45z"/>
</g>
</svg>
