<?xml version="1.0" encoding="utf-8"?>
<!-- Generator: Adobe Illustrator 24.2.3, SVG Export Plug-In . SVG Version: 6.00 Build 0)  -->
<svg version="1.1" id="Layer_1" xmlns="http://www.w3.org/2000/svg" xmlns:xlink="http://www.w3.org/1999/xlink" x="0px" y="0px"
	 viewBox="0 0 60.58 57.16" style="enable-background:new 0 0 60.58 57.16;" xml:space="preserve">
<style type="text/css">
	.st0{fill:#FFFFFF;}
	.st1{fill:none;stroke:#000000;stroke-width:0.67;stroke-linecap:square;stroke-miterlimit:10;}
	.st2{fill:none;stroke:#000000;stroke-width:0;stroke-miterlimit:10;}
	.st3{fill-rule:evenodd;clip-rule:evenodd;fill:#FFFFFF;}
	.st4{fill:none;stroke:#000000;stroke-width:0.67;stroke-miterlimit:10;}
	.st5{fill:#E6E7E7;}
	.st6{fill-rule:evenodd;clip-rule:evenodd;fill:#373435;}
	.st7{fill:#065CA8;}
	.st8{fill:#E73A3A;}
	.st9{fill:#E8282B;}
	.st10{fill-rule:evenodd;clip-rule:evenodd;fill:#E8282B;}
	.st11{fill-rule:evenodd;clip-rule:evenodd;fill:#F5F5F5;}
	.st12{fill:#D3D3D4;}
	.st13{fill:#2B2A29;}
	.st14{clip-path:url(#SVGID_19_);fill:url(#SVGID_20_);}
	.st15{clip-path:url(#SVGID_21_);fill:url(#SVGID_22_);}
	.st16{fill-rule:evenodd;clip-rule:evenodd;fill:#D5292D;}
	.st17{fill:none;stroke:#D9DADA;stroke-width:1.0001;stroke-miterlimit:2.613;}
	.st18{fill-rule:evenodd;clip-rule:evenodd;fill:#727271;}
	.st19{fill-rule:evenodd;clip-rule:evenodd;fill:#FEFEFE;}
	.st20{clip-path:url(#SVGID_24_);fill:url(#SVGID_25_);}
	.st21{fill:#727271;}
	.st22{clip-path:url(#SVGID_27_);fill:url(#SVGID_28_);}
	.st23{fill:#FEFEFE;}
	.st24{fill:#D5292D;}
	.st25{fill:#0D78B6;}
	.st26{fill:none;stroke:#0D78B6;stroke-width:0.5669;stroke-miterlimit:22.9256;}
	.st27{fill:#0077B6;}
	.st28{fill-rule:evenodd;clip-rule:evenodd;fill:#0C54A0;}
	.st29{fill-rule:evenodd;clip-rule:evenodd;fill:#007FC4;}
	.st30{fill:none;stroke:#D9DADA;stroke-width:0.5;stroke-miterlimit:2.613;}
</style>
<g>
	<rect x="7.26" y="1.07" class="st6" width="47.05" height="46.93"/>
	<rect x="8.63" y="2.43" class="st3" width="44.3" height="44.19"/>
	<rect x="10.22" y="4.01" class="st6" width="41.13" height="41.03"/>
	<rect x="13.88" y="11.33" class="st3" width="8.1" height="2.65"/>
	<rect x="16.1" y="13.39" class="st3" width="3.66" height="6.33"/>
	<polygon class="st3" points="24.42,11.36 28.01,11.36 31.28,19.72 27.66,19.73 	"/>
	<polygon class="st3" points="27.91,11.36 24.32,11.36 21.05,19.72 24.67,19.73 	"/>
	<rect x="30.38" y="11.33" class="st3" width="8.1" height="2.65"/>
	<rect x="32.6" y="13.39" class="st3" width="3.66" height="6.33"/>
	<polygon class="st3" points="40.91,11.36 44.5,11.36 47.78,19.72 44.15,19.73 	"/>
	<polygon class="st3" points="44.41,11.36 40.82,11.36 37.54,19.72 41.17,19.73 	"/>
	<path class="st3" d="M13.89,37.63v-3.69V37.63z M13.89,33.94h0.77v3.69h-0.77V33.94z M16.12,37.63v-3.69h0.8l1.6,2.15
		c0.04,0.06,0.1,0.14,0.15,0.25c0.05,0.11,0.11,0.24,0.17,0.39c-0.02-0.11-0.03-0.22-0.04-0.33c-0.01-0.11-0.01-0.24-0.01-0.4v-2.06
		h0.74v3.69h-0.76l-1.64-2.19c-0.05-0.06-0.1-0.15-0.15-0.25c-0.05-0.11-0.11-0.24-0.17-0.4c0.02,0.11,0.03,0.21,0.04,0.32
		c0.01,0.11,0.01,0.24,0.01,0.41v2.11H16.12z M20.73,37.15l0.43-0.49c0.06,0.14,0.14,0.24,0.26,0.32c0.12,0.08,0.25,0.12,0.4,0.12
		c0.18,0,0.32-0.04,0.43-0.13c0.11-0.09,0.16-0.21,0.16-0.35c0-0.17-0.18-0.35-0.52-0.52c-0.11-0.06-0.2-0.1-0.27-0.14
		c-0.32-0.17-0.54-0.33-0.65-0.49c-0.12-0.16-0.18-0.35-0.18-0.57c0-0.3,0.12-0.55,0.35-0.75c0.24-0.19,0.54-0.29,0.92-0.29
		c0.22,0,0.41,0.04,0.57,0.12c0.16,0.08,0.3,0.2,0.42,0.37l-0.46,0.45c-0.05-0.11-0.12-0.19-0.21-0.24
		c-0.09-0.05-0.2-0.08-0.32-0.08c-0.15,0-0.28,0.04-0.37,0.12c-0.09,0.08-0.14,0.18-0.14,0.3c0,0.2,0.19,0.37,0.56,0.53
		c0.07,0.03,0.13,0.06,0.17,0.08c0.31,0.14,0.53,0.3,0.68,0.48c0.15,0.18,0.22,0.38,0.22,0.62c0,0.34-0.11,0.62-0.35,0.83
		c-0.23,0.2-0.54,0.31-0.93,0.31c-0.28,0-0.51-0.05-0.71-0.15C20.97,37.48,20.82,37.34,20.73,37.15z M27.52,33.94v2.29
		c0,0.5-0.13,0.87-0.39,1.12c-0.26,0.25-0.65,0.37-1.17,0.37c-0.53,0-0.92-0.12-1.18-0.37c-0.26-0.25-0.39-0.62-0.39-1.12v-2.29
		h0.77v2.17c0,0.3,0.06,0.53,0.19,0.69c0.13,0.15,0.33,0.23,0.59,0.23c0.26,0,0.46-0.08,0.6-0.23c0.14-0.15,0.2-0.38,0.2-0.68v-2.17
		H27.52z M31.56,37.63h-0.89l-0.95-1.72v1.72h-0.77v-3.69h1.1c0.44,0,0.77,0.09,0.99,0.26c0.22,0.17,0.33,0.44,0.33,0.79
		c0,0.25-0.07,0.47-0.23,0.65c-0.15,0.18-0.34,0.28-0.58,0.32L31.56,37.63z M29.72,35.51h0.11c0.31,0,0.52-0.04,0.62-0.1
		c0.1-0.07,0.15-0.19,0.15-0.36c0-0.18-0.05-0.31-0.16-0.39c-0.11-0.08-0.31-0.11-0.61-0.11h-0.11V35.51z M34.51,36.22l-0.4-1.19
		c-0.01-0.04-0.03-0.09-0.05-0.18c-0.02-0.08-0.04-0.19-0.06-0.31c-0.02,0.12-0.04,0.23-0.06,0.32c-0.02,0.09-0.03,0.16-0.05,0.19
		l-0.39,1.18H34.51z M32.22,37.63l1.37-3.69h0.88l1.4,3.69h-0.88l-0.3-0.78h-1.4l-0.25,0.78H32.22z M36.87,37.63v-3.69h0.8l1.6,2.15
		c0.05,0.06,0.09,0.14,0.15,0.25c0.06,0.11,0.11,0.24,0.17,0.39c-0.02-0.11-0.03-0.22-0.04-0.33c-0.01-0.11-0.01-0.24-0.01-0.4
		v-2.06h0.74v3.69h-0.76l-1.64-2.19c-0.05-0.06-0.1-0.15-0.15-0.25c-0.06-0.11-0.11-0.24-0.17-0.4c0.02,0.11,0.03,0.21,0.04,0.32
		c0.01,0.11,0.01,0.24,0.01,0.41v2.11H36.87z M44.62,34.9c-0.15-0.14-0.32-0.25-0.48-0.31c-0.17-0.06-0.34-0.1-0.53-0.1
		c-0.38,0-0.69,0.12-0.92,0.35c-0.23,0.24-0.34,0.55-0.34,0.95c0,0.39,0.11,0.69,0.32,0.92c0.21,0.23,0.5,0.34,0.87,0.34
		c0.21,0,0.4-0.04,0.58-0.11c0.18-0.07,0.35-0.18,0.5-0.32l0,0.81c-0.16,0.1-0.34,0.17-0.52,0.22c-0.18,0.05-0.37,0.07-0.57,0.07
		c-0.58,0-1.05-0.18-1.42-0.55c-0.37-0.37-0.55-0.83-0.55-1.39c0-0.56,0.18-1.02,0.56-1.39c0.37-0.36,0.85-0.55,1.43-0.55
		c0.2,0,0.39,0.02,0.57,0.06c0.18,0.04,0.36,0.11,0.54,0.19L44.62,34.9z M45.97,37.63v-3.69h2.12v0.66h-1.35v0.76h1.35v0.67h-1.35
		v0.92h1.35v0.67H45.97z"/>
	<path class="st3" d="M18.91,31.33c0.27-0.07,0.53-0.36,0.77-0.87c0.16-0.33,0.33-0.71,0.5-1.13l3.07-7.77h0.35l3.5,8.67
		c0.17,0.41,0.31,0.7,0.41,0.84c0.15,0.22,0.42,0.34,0.81,0.35v0.37h-3.6v-0.37c0.62,0.01,0.92-0.15,0.9-0.48
		c0-0.23-0.08-0.54-0.24-0.93l-0.66-1.61h-3.42l-0.44,1.13l-0.26,0.75c-0.08,0.22-0.12,0.41-0.11,0.56
		c-0.02,0.36,0.29,0.56,0.93,0.59v0.37H18.6v-0.37L18.91,31.33z M21.57,27.74L21.57,27.74l2.93,0v0l-1.45-3.76L21.57,27.74z
		 M28.93,31.41c0.67-0.02,1.04-0.18,1.13-0.47c0.09-0.29,0.13-0.73,0.13-1.33v-5.83c0-0.66-0.05-1.08-0.15-1.26
		c-0.15-0.26-0.52-0.4-1.11-0.41v-0.37h4.02v0.37c-0.57,0.02-0.93,0.16-1.11,0.42c-0.1,0.16-0.15,0.58-0.15,1.26v5.83
		c0,0.69,0.04,1.14,0.12,1.35c0.12,0.3,0.5,0.46,1.14,0.46v0.37h-4.02V31.41z M39.58,26.44h3.69v0.37c-0.56,0-0.87,0.25-0.91,0.75
		c-0.02,0.18-0.03,0.38-0.03,0.58v2.85l-0.81,0.39c-0.87,0.39-1.79,0.59-2.73,0.59c-1.56,0-2.81-0.52-3.76-1.57
		c-0.83-0.89-1.25-2.09-1.25-3.58c0.01-1.14,0.24-2.11,0.69-2.91c0.53-0.93,1.24-1.59,2.13-1.99c0.56-0.24,1.16-0.37,1.82-0.37
		c0.53,0,1.07,0.07,1.63,0.22l0.54,0.16c0.23,0.07,0.42,0.11,0.54,0.11c0.11,0.01,0.23-0.06,0.34-0.19l0.26-0.3h0.35l0.15,3.21
		h-0.35l-0.17-0.51c-0.24-0.63-0.64-1.12-1.2-1.47c-0.54-0.33-1.13-0.5-1.79-0.51c-1.05,0-1.9,0.49-2.53,1.48
		c-0.48,0.76-0.72,1.77-0.72,3.02c0,0.81,0.12,1.56,0.36,2.25c0.15,0.45,0.39,0.85,0.72,1.2c0.62,0.66,1.43,1,2.43,1
		c0.62,0,1.23-0.2,1.85-0.58V28.1c0-0.5-0.1-0.84-0.28-1c-0.15-0.14-0.48-0.24-0.98-0.3V26.44z"/>
	<path class="st6" d="M1.27,51.27h1.17l0.15,3.21h0.06l0.51-3.21h1.41l0.55,3.21h0.06l0.24-3.21h1.04l-0.73,4.75H4.47l-0.65-3.7
		H3.77l-0.6,3.7H1.9L1.27,51.27z M7.43,51.27h1.2v4.75h-1.2V51.27z M9.52,51.27h3.02V52h-0.9v4.01h-1.23V52H9.52V51.27z M13.4,51.27
		h1.2v1.88h0.82v-1.88h1.2v4.75h-1.2v-2.14H14.6v2.14h-1.2V51.27z M20.23,51.27h1.21l0.51,2h0.06l0.48-2h1.07l-1.09,2.84v1.91h-1.19
		v-1.91L20.23,51.27z M27.53,52.88v1.53c0,0.64-0.12,1.09-0.36,1.33c-0.24,0.24-0.66,0.36-1.27,0.36c-0.61,0-1.03-0.12-1.27-0.36
		c-0.23-0.24-0.35-0.68-0.35-1.33v-1.53c0-0.64,0.12-1.08,0.35-1.32c0.23-0.24,0.66-0.36,1.27-0.36c0.61,0,1.03,0.12,1.27,0.36
		C27.42,51.8,27.53,52.24,27.53,52.88z M26.34,52.66c0-0.31-0.03-0.5-0.09-0.6c-0.06-0.09-0.17-0.14-0.34-0.14
		c-0.16,0-0.27,0.05-0.33,0.14c-0.06,0.1-0.1,0.29-0.1,0.59v1.96c0,0.3,0.03,0.5,0.09,0.59c0.06,0.09,0.17,0.14,0.33,0.14
		c0.16,0,0.27-0.05,0.34-0.14c0.06-0.09,0.1-0.29,0.1-0.59V52.66z M28.68,51.27h1.2v3.36c0,0.3,0.03,0.5,0.09,0.59
		c0.06,0.09,0.16,0.14,0.31,0.14s0.25-0.05,0.31-0.14c0.05-0.09,0.08-0.29,0.08-0.59v-3.36h1.2v3.14c0,0.64-0.12,1.08-0.35,1.33
		c-0.23,0.24-0.65,0.36-1.25,0.36c-0.6,0-1.01-0.12-1.24-0.36c-0.23-0.24-0.35-0.68-0.35-1.33V51.27z M37.36,52.09l-0.39,2.2h0.74
		l-0.31-2.2H37.36z M36.63,51.27h1.54l0.96,4.75h-1.16l-0.16-1h-1.01l-0.2,1h-1.06L36.63,51.27z M39.96,51.27h1.2v4.02h1.38v0.73
		h-2.58V51.27z M42.75,51.27h1.17l0.15,3.21h0.05l0.51-3.21h1.41l0.55,3.21h0.05l0.24-3.21h1.04l-0.73,4.75h-1.25l-0.64-3.7h-0.06
		l-0.6,3.7h-1.27L42.75,51.27z M50.2,52.09l-0.39,2.2h0.74l-0.31-2.2H50.2z M49.48,51.27h1.54l0.96,4.75h-1.16l-0.16-1h-1.01l-0.2,1
		h-1.06L49.48,51.27z M52.25,51.27h1.21l0.51,2h0.06l0.48-2h1.07l-1.08,2.84v1.91h-1.19v-1.91L52.25,51.27z M59.27,52.33v0.36H58.1
		v-0.42c0-0.13-0.02-0.22-0.07-0.27c-0.05-0.05-0.12-0.08-0.23-0.08c-0.11,0-0.18,0.02-0.22,0.08c-0.04,0.05-0.06,0.14-0.06,0.27
		v0.31c0,0.12,0.04,0.23,0.11,0.32c0.07,0.09,0.21,0.2,0.41,0.33l0.49,0.3c0.03,0.01,0.07,0.04,0.12,0.07
		c0.24,0.14,0.4,0.27,0.48,0.39c0.07,0.09,0.11,0.18,0.14,0.29c0.03,0.11,0.04,0.24,0.04,0.39v0.29c0,0.37-0.14,0.65-0.41,0.85
		c-0.28,0.2-0.67,0.3-1.19,0.3c-0.53,0-0.9-0.09-1.13-0.28c-0.23-0.18-0.34-0.49-0.34-0.92v-0.35h1.2v0.4
		c0,0.15,0.03,0.25,0.08,0.31c0.05,0.06,0.14,0.09,0.27,0.09c0.13,0,0.22-0.03,0.27-0.09c0.05-0.06,0.07-0.16,0.07-0.32v-0.18
		c0-0.13-0.03-0.25-0.11-0.35c-0.07-0.1-0.24-0.22-0.5-0.38l-0.49-0.31c-0.24-0.14-0.41-0.3-0.51-0.46
		c-0.1-0.17-0.15-0.36-0.15-0.59v-0.42c0-0.32,0.14-0.58,0.42-0.78c0.28-0.2,0.66-0.29,1.13-0.29c0.45,0,0.79,0.09,1.01,0.28
		C59.15,51.67,59.27,51.96,59.27,52.33z"/>
</g>
</svg>
